<?xml version="1.0" encoding="utf-8"?>
<!-- Generator: Adobe Illustrator 19.2.1, SVG Export Plug-In . SVG Version: 6.00 Build 0)  -->
<svg version="1.1" id="Layer_1" xmlns="http://www.w3.org/2000/svg" xmlns:xlink="http://www.w3.org/1999/xlink" x="0px" y="0px"
	 width="210.25px" height="171.64px" viewBox="0 0 210.25 171.64" enable-background="new 0 0 210.25 171.64" xml:space="preserve">
<path fill="#FFFFFF" d="M9.92,143.54c0,0-8.95-3.45-4.71-8.87c4.24-5.42,12.71-7.39,11.77,0C16.04,142.06,13.69,143.54,9.92,143.54z
	"/>
<path fill="#FFFFFF" d="M24.28,143.54c0,0-4.71,1.91-6.12-4.93c-1.41-6.84,11.3-10.84,12.24-5.67S29.69,142.55,24.28,143.54z"/>
<path fill="#FFFFFF" d="M30.65,151.86c0,0-5.19-3.63-1.66-8.31s10.36-5.42,10.36-2.46C39.35,144.03,37.73,156.23,30.65,151.86z"/>
<path fill="#FFFFFF" d="M30.65,165.47c0,0-5.73-4.06,0-9.12s11.52-4.19,8.7,2.71C36.52,165.97,34.9,167.94,30.65,165.47z"/>
<path fill="#FFFFFF" d="M5.92,166.49c0,0,17.42,12.54,19.54-1.51s0.47-20.11-12.95-18.93C-0.91,147.24-4.2,154.69,5.92,166.49z"/>
<path fill="#FFFFFF" d="M23.43,83.06c0,0-8.95-3.45-4.71-8.87c4.24-5.42,12.71-7.39,11.77,0C29.55,81.58,27.2,83.06,23.43,83.06z"/>
<path fill="#FFFFFF" d="M37.79,83.06c0,0-4.71,1.91-6.12-4.93c-1.41-6.84,11.3-10.84,12.24-5.67C44.85,77.64,43.2,82.07,37.79,83.06
	z"/>
<path fill="#FFFFFF" d="M44.16,91.37c0,0-5.19-3.63-1.66-8.31c3.53-4.68,10.36-5.42,10.36-2.46S51.24,95.74,44.16,91.37z"/>
<path fill="#FFFFFF" d="M44.16,104.99c0,0-5.73-4.06,0-9.12s11.52-4.19,8.7,2.71S48.41,107.45,44.16,104.99z"/>
<path fill="#FFFFFF" d="M19.43,106.01c0,0,17.42,12.54,19.54-1.51c2.12-14.05,0.47-20.11-12.95-18.93S9.3,94.21,19.43,106.01z"/>
<path fill="#FFFFFF" d="M92.9,75.86c0,0-8.95-3.45-4.71-8.87c4.24-5.42,12.71-7.39,11.77,0C99.02,74.38,96.66,75.86,92.9,75.86z"/>
<path fill="#FFFFFF" d="M107.26,75.86c0,0-4.71,1.91-6.12-4.93s11.3-10.84,12.24-5.67C114.32,70.44,112.67,74.87,107.26,75.86z"/>
<path fill="#FFFFFF" d="M113.63,84.17c0,0-5.19-3.63-1.66-8.31c3.53-4.68,10.36-5.42,10.36-2.46S120.7,88.55,113.63,84.17z"/>
<path fill="#FFFFFF" d="M113.63,97.79c0,0-5.73-4.06,0-9.12c5.73-5.05,11.52-4.19,8.7,2.71C119.5,98.29,117.88,100.26,113.63,97.79z
	"/>
<path fill="#FFFFFF" d="M88.89,98.81c0,0,17.42,12.54,19.54-1.51s0.47-20.11-12.95-18.93S78.77,87.01,88.89,98.81z"/>
<path fill="#FFFFFF" d="M108.65,13.7c0,0-8.95-3.45-4.71-8.87s12.71-7.39,11.77,0C114.77,12.23,112.41,13.7,108.65,13.7z"/>
<path fill="#FFFFFF" d="M123.01,13.7c0,0-4.71,1.91-6.12-4.93s11.3-10.84,12.24-5.67C130.07,8.28,128.42,12.72,123.01,13.7z"/>
<path fill="#FFFFFF" d="M129.38,22.02c0,0-5.19-3.63-1.66-8.31c3.53-4.68,10.36-5.42,10.36-2.46S136.45,26.39,129.38,22.02z"/>
<path fill="#FFFFFF" d="M129.38,35.64c0,0-5.73-4.06,0-9.12c5.73-5.05,11.52-4.19,8.7,2.71C135.25,36.13,133.63,38.1,129.38,35.64z"
	/>
<path fill="#FFFFFF" d="M104.64,36.65c0,0,17.42,12.54,19.54-1.51c2.12-14.05,0.47-20.11-12.95-18.93S94.52,24.86,104.64,36.65z"/>
<path fill="#FFFFFF" d="M180.08,24.48c0,0-8.95-3.45-4.71-8.87c4.24-5.42,12.71-7.39,11.77,0S183.85,24.48,180.08,24.48z"/>
<path fill="#FFFFFF" d="M194.44,24.48c0,0-4.71,1.91-6.12-4.93s11.3-10.84,12.24-5.67S199.86,23.5,194.44,24.48z"/>
<path fill="#FFFFFF" d="M200.81,32.8c0,0-5.19-3.63-1.66-8.31s10.36-5.42,10.36-2.46S207.89,37.17,200.81,32.8z"/>
<path fill="#FFFFFF" d="M200.81,46.41c0,0-5.73-4.06,0-9.12c5.73-5.05,11.52-4.19,8.7,2.71C206.68,46.91,205.07,48.88,200.81,46.41z
	"/>
<path fill="#FFFFFF" d="M176.08,47.43c0,0,17.42,12.54,19.54-1.51c2.12-14.05,0.47-20.11-12.95-18.93S165.96,35.63,176.08,47.43z"/>
<g>
</g>
<g>
</g>
<g>
</g>
<g>
</g>
<g>
</g>
<g>
</g>
</svg>
