<?xml version="1.0" encoding="utf-8"?>
<!-- Generator: Adobe Illustrator 19.2.1, SVG Export Plug-In . SVG Version: 6.00 Build 0)  -->
<svg version="1.1" id="Layer_1" xmlns="http://www.w3.org/2000/svg" xmlns:xlink="http://www.w3.org/1999/xlink" x="0px" y="0px"
	 width="210.25px" height="171.64px" viewBox="0 0 210.25 171.64" enable-background="new 0 0 210.25 171.64" xml:space="preserve">
<path fill="#FFFFFF" d="M71.09,60.35c0,0-28.22-10.88-14.85-27.98s40.1-23.32,37.13,0C90.4,55.69,82.97,60.35,71.09,60.35z"/>
<path fill="#FFFFFF" d="M116.39,60.35c0,0-14.86,6.03-19.31-15.55s35.64-34.2,38.61-17.88S133.47,57.25,116.39,60.35z"/>
<path fill="#FFFFFF" d="M136.48,86.58c0,0-16.38-11.46-5.24-26.23s32.67-17.1,32.67-7.77S158.81,100.37,136.48,86.58z"/>
<path fill="#FFFFFF" d="M136.48,129.54c0,0-18.08-12.82,0-28.76s36.34-13.21,27.43,8.55C155,131.09,149.89,137.31,136.48,129.54z"/>
<path fill="#FFFFFF" d="M58.46,132.74c0,0,54.95,39.55,61.63-4.76s1.49-63.43-40.84-59.7S26.53,95.53,58.46,132.74z"/>
<g>
</g>
<g>
</g>
<g>
</g>
<g>
</g>
<g>
</g>
<g>
</g>
</svg>
