<?xml version="1.0" encoding="utf-8"?>
<!-- Generator: Adobe Illustrator 19.2.1, SVG Export Plug-In . SVG Version: 6.00 Build 0)  -->
<svg version="1.1" xmlns="http://www.w3.org/2000/svg" xmlns:xlink="http://www.w3.org/1999/xlink" x="0px" y="0px" width="478.3px"
	 height="286.6px" viewBox="0 0 478.3 286.6" enable-background="new 0 0 478.3 286.6" xml:space="preserve">
<g id="graph">
	<path fill="#5B87DA" d="M478.3,68.8v203.4c0,8-6.5,14.4-14.4,14.4H64.3c-8,0-14.4-6.5-14.4-14.4V14.4c0-8,6.5-14.4,14.4-14.4h75.8
		c8,0,14.4,6.5,14.4,14.4v25.5c0,8,6.5,14.4,14.4,14.4h294.9C471.9,54.3,478.3,60.8,478.3,68.8z"/>
	<g>
		<g>
			<line fill="none" stroke="#FFFFFF" stroke-width="3" stroke-miterlimit="10" x1="254.3" y1="148" x2="257.3" y2="148"/>
			
				<line fill="none" stroke="#FFFFFF" stroke-width="3" stroke-miterlimit="10" stroke-dasharray="5.7977,8.6966" x1="266" y1="148" x2="435.6" y2="148"/>
			<line fill="none" stroke="#FFFFFF" stroke-width="3" stroke-miterlimit="10" x1="439.9" y1="148" x2="442.9" y2="148"/>
		</g>
	</g>
	<g>
		<g>
			<line fill="none" stroke="#FFFFFF" stroke-width="3" stroke-miterlimit="10" x1="246.6" y1="205.7" x2="249.6" y2="205.7"/>
			
				<line fill="none" stroke="#FFFFFF" stroke-width="3" stroke-miterlimit="10" stroke-dasharray="6.2334,9.3502" x1="258.9" y1="205.7" x2="394.5" y2="205.7"/>
			<line fill="none" stroke="#FFFFFF" stroke-width="3" stroke-miterlimit="10" x1="399.2" y1="205.7" x2="402.2" y2="205.7"/>
		</g>
	</g>
	<g>
		<g>
			<line fill="none" stroke="#FFFFFF" stroke-width="3" stroke-miterlimit="10" x1="280.9" y1="88.8" x2="283.9" y2="88.8"/>
			
				<line fill="none" stroke="#FFFFFF" stroke-width="3" stroke-miterlimit="10" stroke-dasharray="6.1287,9.193" x1="293.1" y1="88.8" x2="457" y2="88.8"/>
			<line fill="none" stroke="#FFFFFF" stroke-width="3" stroke-miterlimit="10" x1="461.6" y1="88.8" x2="464.6" y2="88.8"/>
		</g>
	</g>
	<g>
		<rect x="382.3" y="64.9" fill="none" width="96" height="37"/>
		<path fill="#F7EA84" d="M383,77.1h3.5c0,0,0,0.1,0,0.2c0,0.2,0,0.4,0,0.5s0,0.3,0,0.5s0,0.4,0.1,0.6s0.1,0.3,0.1,0.5
			c0.1,0.2,0.1,0.3,0.2,0.4c0.1,0.1,0.2,0.2,0.4,0.3c0.2,0.1,0.3,0.1,0.5,0.1s0.4,0,0.5-0.1s0.3-0.1,0.4-0.2s0.2-0.2,0.2-0.4
			c0.1-0.2,0.1-0.3,0.1-0.4c0-0.1,0.1-0.3,0.1-0.5c0-0.2,0-0.4,0-0.5c0-0.1,0-0.2,0-0.5c0-0.8-0.2-1.5-0.6-1.9
			c-0.4-0.5-1-0.7-1.9-0.7v-3.5c0.4,0,0.8,0,1-0.1c0.3-0.1,0.5-0.1,0.8-0.3c0.2-0.1,0.4-0.3,0.5-0.6s0.2-0.6,0.2-1
			c0-0.3,0-0.5-0.1-0.7c0-0.2-0.1-0.4-0.2-0.6c-0.1-0.2-0.2-0.4-0.4-0.5c-0.2-0.1-0.4-0.2-0.7-0.2c-0.2,0-0.4,0-0.5,0.1
			c-0.2,0.1-0.3,0.2-0.4,0.3c-0.1,0.1-0.2,0.2-0.2,0.4c-0.1,0.2-0.1,0.3-0.1,0.5s-0.1,0.3-0.1,0.6s0,0.4,0,0.5s0,0.3,0,0.5
			c0,0.1,0,0.1,0,0.2H383v-1.1c0-1.6,0.4-2.8,1.3-3.7c0.8-0.9,2-1.3,3.6-1.3c1.5,0,2.7,0.4,3.6,1.3c0.9,0.9,1.3,2.1,1.3,3.7
			c0,0.8-0.2,1.5-0.5,2.2s-0.8,1.2-1.4,1.6c0.6,0.5,1.1,1.1,1.4,1.9c0.3,0.8,0.4,1.6,0.4,2.5c0,0.8-0.1,1.6-0.3,2.3
			c-0.2,0.7-0.5,1.3-0.8,1.8c-0.4,0.5-0.9,0.9-1.5,1.2s-1.4,0.4-2.3,0.4c-0.7,0-1.4-0.1-1.9-0.3c-0.6-0.2-1-0.4-1.4-0.8
			c-0.4-0.3-0.7-0.7-0.9-1.2s-0.4-1-0.5-1.5c-0.1-0.5-0.1-1.1-0.2-1.8V77.1z"/>
		<path fill="#F7EA84" d="M403.5,69.5c0,0.8-0.1,1.6-0.4,2.4s-0.6,1.5-1.1,2.2c-0.5,0.7-0.9,1.4-1.3,1.9c-0.4,0.5-0.9,1.2-1.5,1.9
			c-0.6,0.7-1,1.2-1.3,1.6h5.6V83h-9.6v-3.1l4.4-6.3c0.3-0.4,0.5-0.7,0.6-0.9c0.2-0.3,0.3-0.6,0.5-0.9c0.2-0.4,0.3-0.7,0.4-1.1
			c0.1-0.4,0.1-0.7,0.1-1.1c0-0.2,0-0.4-0.1-0.6c-0.1-0.2-0.1-0.4-0.2-0.6c-0.1-0.2-0.2-0.4-0.4-0.5c-0.2-0.1-0.4-0.2-0.6-0.2
			c-0.2,0-0.4,0-0.5,0.1c-0.2,0.1-0.3,0.2-0.4,0.4c-0.1,0.2-0.2,0.3-0.2,0.5c-0.1,0.2-0.1,0.4-0.1,0.6c0,0.2-0.1,0.4-0.1,0.7
			c0,0.2,0,0.4,0,0.6c0,0.2,0,0.4,0,0.5c0,0.1,0,0.2,0,0.2h-3.5v-1.1c0-0.7,0.1-1.3,0.2-1.8c0.1-0.6,0.3-1.1,0.5-1.5
			c0.2-0.5,0.5-0.9,0.9-1.2s0.8-0.6,1.4-0.8s1.2-0.3,1.8-0.3c1.5,0,2.7,0.4,3.5,1.3S403.5,68,403.5,69.5z"/>
		<path fill="#F7EA84" d="M404.8,77.7v-7.4c0-0.8,0.1-1.5,0.3-2.2c0.2-0.7,0.5-1.3,0.9-1.8c0.4-0.5,0.9-0.9,1.5-1.2
			c0.6-0.3,1.4-0.4,2.2-0.4c0.8,0,1.6,0.1,2.2,0.4c0.6,0.3,1.1,0.7,1.5,1.2c0.4,0.5,0.7,1.1,0.9,1.8s0.3,1.4,0.3,2.2v7.4
			c0,0.8-0.1,1.5-0.3,2.2c-0.2,0.7-0.5,1.3-0.9,1.8c-0.4,0.5-0.9,0.9-1.5,1.2c-0.6,0.3-1.3,0.5-2.1,0.5c-0.8,0-1.5-0.2-2.2-0.5
			c-0.6-0.3-1.1-0.7-1.5-1.2c-0.4-0.5-0.7-1.1-0.9-1.8S404.8,78.4,404.8,77.7z M411,77.7v-7.4c0-1.7-0.5-2.6-1.4-2.6
			c-0.2,0-0.5,0.1-0.6,0.2c-0.2,0.1-0.3,0.3-0.4,0.5c-0.1,0.2-0.2,0.4-0.2,0.7c0,0.3-0.1,0.5-0.1,0.7c0,0.2,0,0.4,0,0.6v7.4
			c0,0.2,0,0.4,0,0.6c0,0.2,0.1,0.4,0.1,0.7s0.1,0.5,0.2,0.7c0.1,0.2,0.2,0.3,0.4,0.5c0.2,0.1,0.4,0.2,0.6,0.2
			c0.3,0,0.5-0.1,0.7-0.3c0.2-0.2,0.3-0.4,0.4-0.7s0.1-0.6,0.2-0.8C411,78.2,411,77.9,411,77.7z"/>
		<path fill="#F7EA84" d="M420.5,83V64.9h3.4v9.5l2.1-4.5h3.6l-3.2,5.5l3.2,7.6h-3.5l-1.7-5.8l-0.5,0.8V83H420.5z"/>
		<path fill="#F7EA84" d="M430.3,83V69.9h3.4v0.9c0.3-0.4,0.7-0.7,1.1-0.9c0.4-0.2,0.9-0.3,1.3-0.3c0.4,0,0.8,0.1,1.2,0.4
			s0.6,0.6,0.8,1.1c0.3-0.4,0.7-0.8,1.2-1.1s1-0.4,1.5-0.4c0.5,0,0.9,0.1,1.2,0.4c0.4,0.3,0.6,0.7,0.8,1.1c0.2,0.4,0.3,0.9,0.3,1.3
			V83h-3.4v-9.9c0-0.1,0-0.2,0-0.3c0-0.1,0-0.2-0.1-0.3c0-0.1-0.1-0.2-0.2-0.3c-0.1-0.1-0.2-0.1-0.3-0.1c-0.2,0-0.5,0.2-0.9,0.7V83
			h-3.4v-9.9c0-0.6-0.2-0.9-0.5-0.9c-0.3,0-0.6,0.3-1,0.8V83H430.3z"/>
		<path fill="#F7EA84" d="M445.1,83l5.8-18.4h1.8L446.9,83H445.1z"/>
		<path fill="#F7EA84" d="M454.1,83V64.9h3.4v5.9c0.3-0.4,0.7-0.7,1.2-0.9s0.9-0.3,1.4-0.3c0.5,0,0.9,0.1,1.2,0.4
			c0.4,0.3,0.6,0.7,0.8,1.1c0.2,0.4,0.3,0.9,0.3,1.3V83H459v-9.7c0,0,0-0.1,0-0.2c0-0.1,0-0.2,0-0.2c0-0.1,0-0.1,0-0.2
			c0-0.1,0-0.2,0-0.2c0-0.1,0-0.1-0.1-0.2c0-0.1-0.1-0.1-0.1-0.1s-0.1,0-0.2,0c-0.1,0-0.3,0.1-0.4,0.2c-0.2,0.1-0.3,0.2-0.3,0.3
			c-0.1,0.1-0.2,0.2-0.3,0.3V83H454.1z"/>
	</g>
	<g>
		<rect x="374.4" y="124.1" fill="none" width="96" height="37"/>
		<path fill="#F7EA84" d="M376.6,142.2v-13.4h-1.8v-2.7c0.2-0.1,0.4-0.2,0.8-0.4c0.3-0.2,0.6-0.3,0.7-0.4c0.2-0.1,0.4-0.2,0.6-0.5
			s0.4-0.5,0.5-0.8h2.7v18.1H376.6z"/>
		<path fill="#F7EA84" d="M382.7,142.2l3.1-15h-4.4v-3h7.8v1.8l-3.1,16.3H382.7z"/>
		<path fill="#F7EA84" d="M390.3,136.8v-7.4c0-0.8,0.1-1.5,0.3-2.2c0.2-0.7,0.5-1.3,0.9-1.8c0.4-0.5,0.9-0.9,1.5-1.2
			c0.6-0.3,1.4-0.4,2.2-0.4c0.8,0,1.6,0.1,2.2,0.4c0.6,0.3,1.1,0.7,1.5,1.2c0.4,0.5,0.7,1.1,0.9,1.8s0.3,1.4,0.3,2.2v7.4
			c0,0.8-0.1,1.5-0.3,2.2c-0.2,0.7-0.5,1.3-0.9,1.8c-0.4,0.5-0.9,0.9-1.5,1.2c-0.6,0.3-1.3,0.5-2.1,0.5c-0.8,0-1.5-0.2-2.2-0.5
			c-0.6-0.3-1.1-0.7-1.5-1.2c-0.4-0.5-0.7-1.1-0.9-1.8S390.3,137.6,390.3,136.8z M396.5,136.8v-7.4c0-1.7-0.5-2.6-1.4-2.6
			c-0.2,0-0.5,0.1-0.6,0.2c-0.2,0.1-0.3,0.3-0.4,0.5c-0.1,0.2-0.2,0.4-0.2,0.7c0,0.3-0.1,0.5-0.1,0.7c0,0.2,0,0.4,0,0.6v7.4
			c0,0.2,0,0.4,0,0.6c0,0.2,0.1,0.4,0.1,0.7s0.1,0.5,0.2,0.7c0.1,0.2,0.2,0.3,0.4,0.5c0.2,0.1,0.4,0.2,0.6,0.2
			c0.3,0,0.5-0.1,0.7-0.3c0.2-0.2,0.3-0.4,0.4-0.7s0.1-0.6,0.2-0.8C396.5,137.4,396.5,137.1,396.5,136.8z"/>
		<path fill="#F7EA84" d="M406,142.2v-18.1h3.4v9.5l2.1-4.5h3.6l-3.2,5.5l3.2,7.6h-3.5l-1.7-5.8l-0.5,0.8v5.1H406z"/>
		<path fill="#F7EA84" d="M415.8,142.2V129h3.4v0.9c0.3-0.4,0.7-0.7,1.1-0.9c0.4-0.2,0.9-0.3,1.3-0.3c0.4,0,0.8,0.1,1.2,0.4
			s0.6,0.6,0.8,1.1c0.3-0.4,0.7-0.8,1.2-1.1s1-0.4,1.5-0.4c0.5,0,0.9,0.1,1.2,0.4c0.4,0.3,0.6,0.7,0.8,1.1c0.2,0.4,0.3,0.9,0.3,1.3
			v10.6h-3.4v-9.9c0-0.1,0-0.2,0-0.3c0-0.1,0-0.2-0.1-0.3c0-0.1-0.1-0.2-0.2-0.3c-0.1-0.1-0.2-0.1-0.3-0.1c-0.2,0-0.5,0.2-0.9,0.7
			v10.1h-3.4v-9.9c0-0.6-0.2-0.9-0.5-0.9c-0.3,0-0.6,0.3-1,0.8v10.1H415.8z"/>
		<path fill="#F7EA84" d="M430.5,142.2l5.8-18.4h1.8l-5.8,18.4H430.5z"/>
		<path fill="#F7EA84" d="M439.5,142.2v-18.1h3.4v5.9c0.3-0.4,0.7-0.7,1.2-0.9s0.9-0.3,1.4-0.3c0.5,0,0.9,0.1,1.2,0.4
			c0.4,0.3,0.6,0.7,0.8,1.1c0.2,0.4,0.3,0.9,0.3,1.3v10.6h-3.4v-9.7c0,0,0-0.1,0-0.2c0-0.1,0-0.2,0-0.2c0-0.1,0-0.1,0-0.2
			c0-0.1,0-0.2,0-0.2c0-0.1,0-0.1-0.1-0.2c0-0.1-0.1-0.1-0.1-0.1s-0.1,0-0.2,0c-0.1,0-0.3,0.1-0.4,0.2c-0.2,0.1-0.3,0.2-0.3,0.3
			c-0.1,0.1-0.2,0.2-0.3,0.3v10.1H439.5z"/>
	</g>
	<g>
		<rect x="345.5" y="180.5" fill="none" width="96" height="20.6"/>
		<path fill="#F7EA84" d="M347.8,198.6v-13.4H346v-2.7c0.2-0.1,0.4-0.2,0.8-0.4c0.3-0.2,0.6-0.3,0.7-0.4c0.2-0.1,0.4-0.2,0.6-0.5
			c0.2-0.2,0.4-0.5,0.5-0.8h2.7v18.1H347.8z"/>
		<path fill="#F7EA84" d="M362.5,185.2c0,0.8-0.1,1.6-0.4,2.4c-0.3,0.8-0.6,1.5-1.1,2.2s-0.9,1.4-1.3,1.9c-0.4,0.5-0.9,1.2-1.5,1.9
			c-0.6,0.7-1,1.2-1.3,1.6h5.6v3.5h-9.6v-3.1l4.4-6.3c0.3-0.4,0.5-0.7,0.6-0.9c0.2-0.3,0.3-0.6,0.5-0.9c0.2-0.4,0.3-0.7,0.4-1.1
			c0.1-0.4,0.1-0.7,0.1-1.1c0-0.2,0-0.4-0.1-0.6c-0.1-0.2-0.1-0.4-0.2-0.6c-0.1-0.2-0.2-0.4-0.4-0.5c-0.2-0.1-0.4-0.2-0.6-0.2
			c-0.2,0-0.4,0-0.5,0.1c-0.2,0.1-0.3,0.2-0.4,0.4s-0.2,0.3-0.2,0.5c-0.1,0.2-0.1,0.4-0.1,0.6c0,0.2-0.1,0.4-0.1,0.7
			c0,0.2,0,0.4,0,0.6c0,0.2,0,0.4,0,0.5c0,0.1,0,0.2,0,0.2h-3.5v-1.1c0-0.7,0.1-1.3,0.2-1.8c0.1-0.6,0.3-1.1,0.5-1.5
			c0.2-0.5,0.5-0.9,0.9-1.2c0.4-0.3,0.8-0.6,1.4-0.8c0.5-0.2,1.2-0.3,1.8-0.3c1.5,0,2.7,0.4,3.5,1.3S362.5,183.6,362.5,185.2z"/>
		<path fill="#F7EA84" d="M363.9,193.3v-7.4c0-0.8,0.1-1.5,0.3-2.2c0.2-0.7,0.5-1.3,0.9-1.8c0.4-0.5,0.9-0.9,1.5-1.2
			c0.6-0.3,1.4-0.4,2.2-0.4c0.8,0,1.6,0.1,2.2,0.4c0.6,0.3,1.1,0.7,1.5,1.2s0.7,1.1,0.9,1.8c0.2,0.7,0.3,1.4,0.3,2.2v7.4
			c0,0.8-0.1,1.5-0.3,2.2c-0.2,0.7-0.5,1.3-0.9,1.8c-0.4,0.5-0.9,0.9-1.5,1.2c-0.6,0.3-1.3,0.5-2.1,0.5c-0.8,0-1.5-0.2-2.2-0.5
			c-0.6-0.3-1.1-0.7-1.5-1.2c-0.4-0.5-0.7-1.1-0.9-1.8C364,194.8,363.9,194.1,363.9,193.3z M370.1,193.3v-7.4c0-1.7-0.5-2.6-1.4-2.6
			c-0.2,0-0.5,0.1-0.6,0.2s-0.3,0.3-0.4,0.5c-0.1,0.2-0.2,0.4-0.2,0.7c0,0.3-0.1,0.5-0.1,0.7c0,0.2,0,0.4,0,0.6v7.4
			c0,0.2,0,0.4,0,0.6c0,0.2,0.1,0.4,0.1,0.7s0.1,0.5,0.2,0.7c0.1,0.2,0.2,0.3,0.4,0.5s0.4,0.2,0.6,0.2c0.3,0,0.5-0.1,0.7-0.3
			c0.2-0.2,0.3-0.4,0.4-0.7s0.1-0.6,0.2-0.8C370.1,193.8,370.1,193.6,370.1,193.3z"/>
		<path fill="#F7EA84" d="M379.6,198.6v-18.1h3.4v9.5l2.1-4.5h3.6l-3.2,5.5l3.2,7.6h-3.5l-1.7-5.8l-0.5,0.8v5.1H379.6z"/>
		<path fill="#F7EA84" d="M389.4,198.6v-13.1h3.4v0.9c0.3-0.4,0.7-0.7,1.1-0.9c0.4-0.2,0.9-0.3,1.3-0.3c0.4,0,0.8,0.1,1.2,0.4
			c0.4,0.3,0.6,0.6,0.8,1.1c0.3-0.4,0.7-0.8,1.2-1.1c0.5-0.3,1-0.4,1.5-0.4c0.5,0,0.9,0.1,1.2,0.4c0.4,0.3,0.6,0.7,0.8,1.1
			c0.2,0.4,0.3,0.9,0.3,1.3v10.6h-3.4v-9.9c0-0.1,0-0.2,0-0.3c0-0.1,0-0.2-0.1-0.3c0-0.1-0.1-0.2-0.2-0.3c-0.1-0.1-0.2-0.1-0.3-0.1
			c-0.2,0-0.5,0.2-0.9,0.7v10.1h-3.4v-9.9c0-0.6-0.2-0.9-0.5-0.9c-0.3,0-0.6,0.3-1,0.8v10.1H389.4z"/>
		<path fill="#F7EA84" d="M404.1,198.6l5.8-18.4h1.8l-5.8,18.4H404.1z"/>
		<path fill="#F7EA84" d="M413.1,198.6v-18.1h3.4v5.9c0.3-0.4,0.7-0.7,1.2-0.9s0.9-0.3,1.4-0.3c0.5,0,0.9,0.1,1.2,0.4
			c0.4,0.3,0.6,0.7,0.8,1.1c0.2,0.4,0.3,0.9,0.3,1.3v10.6H418v-9.7c0,0,0-0.1,0-0.2c0-0.1,0-0.2,0-0.2c0-0.1,0-0.1,0-0.2
			c0-0.1,0-0.2,0-0.2c0-0.1,0-0.1-0.1-0.2s-0.1-0.1-0.1-0.1c-0.1,0-0.1,0-0.2,0c-0.1,0-0.3,0.1-0.4,0.2c-0.2,0.1-0.3,0.2-0.3,0.3
			c-0.1,0.1-0.2,0.2-0.3,0.3v10.1H413.1z"/>
	</g>
	<g>
		<g>
			<line fill="none" stroke="#FFFFFF" stroke-width="3" stroke-miterlimit="10" x1="297.6" y1="262.4" x2="300.6" y2="262.4"/>
			
				<line fill="none" stroke="#FFFFFF" stroke-width="3" stroke-miterlimit="10" stroke-dasharray="6.4261,9.6391" x1="310.2" y1="262.4" x2="385.7" y2="262.4"/>
			<line fill="none" stroke="#FFFFFF" stroke-width="3" stroke-miterlimit="10" x1="390.5" y1="262.4" x2="393.5" y2="262.4"/>
		</g>
	</g>
	<g>
		<rect x="324.7" y="238.6" fill="none" width="96" height="20.6"/>
		<path fill="#F7EA84" d="M325.7,250.9h3.5c0,0.3,0,0.6,0,0.8c0,0.2,0,0.5,0,0.7c0,0.3,0.1,0.5,0.1,0.6c0,0.2,0.1,0.3,0.2,0.5
			c0.1,0.2,0.2,0.3,0.3,0.3c0.1,0.1,0.3,0.1,0.5,0.1c0.2,0,0.4,0,0.6-0.1s0.3-0.2,0.4-0.4c0.1-0.2,0.2-0.3,0.3-0.5
			c0.1-0.2,0.1-0.4,0.2-0.6s0.1-0.5,0.1-0.7c0-0.2,0-0.5,0-0.7c0-0.2,0-0.4,0-0.6c0-0.1,0-0.2,0-0.3c0-0.2,0-0.4,0-0.5s0-0.3,0-0.6
			c0-0.2-0.1-0.4-0.1-0.6s-0.1-0.3-0.2-0.5c-0.1-0.2-0.2-0.3-0.4-0.4c-0.2-0.1-0.3-0.1-0.5-0.1c-0.3,0-0.6,0.1-0.9,0.4
			s-0.5,0.6-0.6,1h-3v-10.4h8.6v3.4h-5.4v3.3c0.6-0.4,1.2-0.6,1.8-0.6c0.6,0,1.2,0.1,1.7,0.3c0.5,0.2,0.9,0.5,1.2,0.8
			c0.3,0.3,0.6,0.8,0.8,1.2c0.2,0.5,0.3,1,0.4,1.5c0.1,0.5,0.1,1.1,0.1,1.7c0,0.6,0,1.1-0.1,1.7c-0.1,0.5-0.1,1-0.3,1.6
			c-0.1,0.5-0.3,1-0.5,1.4c-0.2,0.4-0.5,0.8-0.9,1.1c-0.3,0.3-0.8,0.6-1.3,0.8c-0.5,0.2-1.1,0.3-1.8,0.3c-0.7,0-1.4-0.1-2-0.3
			s-1-0.5-1.4-0.9c-0.4-0.4-0.6-0.8-0.9-1.3s-0.4-1.1-0.5-1.7S325.7,251.6,325.7,250.9z"/>
		<path fill="#F7EA84" d="M336.8,251.3v-7.4c0-0.8,0.1-1.5,0.3-2.2c0.2-0.7,0.5-1.3,0.9-1.8c0.4-0.5,0.9-0.9,1.5-1.2
			c0.6-0.3,1.4-0.4,2.2-0.4c0.8,0,1.6,0.1,2.2,0.4c0.6,0.3,1.1,0.7,1.5,1.2s0.7,1.1,0.9,1.8c0.2,0.7,0.3,1.4,0.3,2.2v7.4
			c0,0.8-0.1,1.5-0.3,2.2c-0.2,0.7-0.5,1.3-0.9,1.8c-0.4,0.5-0.9,0.9-1.5,1.2c-0.6,0.3-1.3,0.5-2.1,0.5c-0.8,0-1.5-0.2-2.2-0.5
			c-0.6-0.3-1.1-0.7-1.5-1.2c-0.4-0.5-0.7-1.1-0.9-1.8C336.9,252.8,336.8,252.1,336.8,251.3z M343,251.3v-7.4c0-1.7-0.5-2.6-1.4-2.6
			c-0.2,0-0.5,0.1-0.6,0.2s-0.3,0.3-0.4,0.5c-0.1,0.2-0.2,0.4-0.2,0.7c0,0.3-0.1,0.5-0.1,0.7c0,0.2,0,0.4,0,0.6v7.4
			c0,0.2,0,0.4,0,0.6c0,0.2,0.1,0.4,0.1,0.7s0.1,0.5,0.2,0.7c0.1,0.2,0.2,0.3,0.4,0.5s0.4,0.2,0.6,0.2c0.3,0,0.5-0.1,0.7-0.3
			c0.2-0.2,0.3-0.4,0.4-0.7s0.1-0.6,0.2-0.8C343,251.9,343,251.6,343,251.3z"/>
		<path fill="#F7EA84" d="M352.4,256.6v-18.1h3.4v9.5l2.1-4.5h3.6l-3.2,5.5l3.2,7.6H358l-1.7-5.8l-0.5,0.8v5.1H352.4z"/>
		<path fill="#F7EA84" d="M362.2,256.6v-13.1h3.4v0.9c0.3-0.4,0.7-0.7,1.1-0.9c0.4-0.2,0.9-0.3,1.3-0.3c0.4,0,0.8,0.1,1.2,0.4
			c0.4,0.3,0.6,0.6,0.8,1.1c0.3-0.4,0.7-0.8,1.2-1.1c0.5-0.3,1-0.4,1.5-0.4c0.5,0,0.9,0.1,1.2,0.4c0.4,0.3,0.6,0.7,0.8,1.1
			c0.2,0.4,0.3,0.9,0.3,1.3v10.6h-3.4v-9.9c0-0.1,0-0.2,0-0.3c0-0.1,0-0.2-0.1-0.3c0-0.1-0.1-0.2-0.2-0.3c-0.1-0.1-0.2-0.1-0.3-0.1
			c-0.2,0-0.5,0.2-0.9,0.7v10.1H367v-9.9c0-0.6-0.2-0.9-0.5-0.9c-0.3,0-0.6,0.3-1,0.8v10.1H362.2z"/>
		<path fill="#F7EA84" d="M377,256.6l5.8-18.4h1.8l-5.8,18.4H377z"/>
		<path fill="#F7EA84" d="M386,256.6v-18.1h3.4v5.9c0.3-0.4,0.7-0.7,1.2-0.9s0.9-0.3,1.4-0.3c0.5,0,0.9,0.1,1.2,0.4
			c0.4,0.3,0.6,0.7,0.8,1.1c0.2,0.4,0.3,0.9,0.3,1.3v10.6h-3.4V247c0,0,0-0.1,0-0.2c0-0.1,0-0.2,0-0.2c0-0.1,0-0.1,0-0.2
			c0-0.1,0-0.2,0-0.2c0-0.1,0-0.1-0.1-0.2s-0.1-0.1-0.1-0.1c-0.1,0-0.1,0-0.2,0c-0.1,0-0.3,0.1-0.4,0.2c-0.2,0.1-0.3,0.2-0.3,0.3
			c-0.1,0.1-0.2,0.2-0.3,0.3v10.1H386z"/>
	</g>
	<g>
		<rect x="69.9" y="10.1" fill="none" width="64.2" height="29.5"/>
		<path fill="#553278" d="M70.5,26l4.6-0.9c0,0.5,0,0.9,0,1.2c0,0.3,0.1,0.7,0.1,1.1c0.1,0.4,0.2,0.7,0.3,1c0.1,0.3,0.3,0.5,0.5,0.7
			c0.2,0.2,0.5,0.3,0.8,0.3c0.9,0,1.3-0.6,1.3-1.7c0-1.6-0.9-3.1-2.6-4.7l-1.4-1.2c-0.4-0.4-0.8-0.7-1.1-0.9c-0.3-0.2-0.6-0.6-0.9-1
			c-0.4-0.4-0.6-0.8-0.8-1.2c-0.2-0.4-0.4-0.9-0.5-1.4s-0.2-1.1-0.2-1.8c0-1.8,0.6-3.2,1.7-4.3s2.7-1.6,4.6-1.6c1.6,0,2.9,0.6,4,1.7
			c1.1,1.1,1.7,2.5,1.7,4.1l0,0.2c0,0.1,0,0.2,0,0.4l-4.7,0.6c0-0.1,0-0.2,0-0.4s0-0.4,0-0.5c0-0.3,0-0.6-0.1-0.9
			c0-0.3-0.1-0.5-0.2-0.8c-0.1-0.3-0.2-0.5-0.4-0.6c-0.2-0.2-0.4-0.2-0.7-0.2c-0.5,0-0.9,0.2-1.1,0.6s-0.4,0.8-0.4,1.4
			c0,0.5,0.1,0.9,0.2,1.3c0.1,0.4,0.4,0.8,0.7,1.1s0.6,0.6,0.8,0.9s0.6,0.5,1,0.8c0.4,0.3,0.7,0.6,0.9,0.7c0.6,0.6,1.2,1.1,1.6,1.6
			c0.4,0.5,0.8,1,1.2,1.7s0.7,1.3,0.9,2c0.2,0.7,0.3,1.5,0.3,2.3c0,1.6-0.6,2.8-1.7,3.8c-1.1,1-2.5,1.5-4.1,1.5
			c-1,0-1.9-0.2-2.7-0.6c-0.8-0.4-1.4-0.9-1.9-1.5c-0.5-0.7-0.9-1.4-1.1-2.2C70.7,27.8,70.5,26.9,70.5,26z"/>
		<path fill="#553278" d="M84.1,37V16.3h4.2v1.1c0.3-0.4,0.7-0.8,1.2-1.1c0.5-0.3,1-0.4,1.5-0.4c0.9,0,1.7,0.4,2.4,1.2s1,1.7,1,2.7
			v9.5c0,0.9-0.3,1.7-0.9,2.4c-0.6,0.7-1.4,1-2.3,1c-0.6,0-1.1-0.1-1.6-0.4c-0.5-0.3-0.9-0.7-1.2-1.2V37H84.1z M90.2,28.5v-8.4
			c0-0.7-0.2-1.1-0.7-1.1c-0.3,0-0.7,0.3-1.2,0.9v8.8c0.4,0.6,0.8,0.9,1.2,0.9c0.2,0,0.4-0.1,0.5-0.2s0.2-0.3,0.2-0.4
			C90.2,28.9,90.2,28.7,90.2,28.5z"/>
		<path fill="#553278" d="M96.3,28.2v-6.9c0-1.7,0.4-3.1,1.2-4c0.8-1,2.1-1.4,3.7-1.4c1.7,0,2.9,0.5,3.7,1.4c0.8,1,1.2,2.3,1.2,4
			v3.3h-5.8v3.6c0,0.9,0.3,1.4,0.8,1.4c0.6,0,0.9-0.5,0.9-1.5v-1.8h4.1v1.8c0,1.3-0.5,2.4-1.5,3.3c-1,0.8-2.1,1.3-3.5,1.3
			c-1.4,0-2.5-0.4-3.5-1.3C96.8,30.6,96.3,29.6,96.3,28.2z M100.5,22.5h1.6v-2.2c0-0.8-0.3-1.2-0.8-1.2c-0.5,0-0.8,0.4-0.8,1.2V22.5
			z"/>
		<path fill="#553278" d="M107.9,28.2v-6.9c0-1.7,0.4-3.1,1.2-4c0.8-1,2.1-1.4,3.7-1.4c1.7,0,2.9,0.5,3.7,1.4c0.8,1,1.2,2.3,1.2,4
			v3.3h-5.8v3.6c0,0.9,0.3,1.4,0.8,1.4c0.6,0,0.9-0.5,0.9-1.5v-1.8h4.1v1.8c0,1.3-0.5,2.4-1.5,3.3c-1,0.8-2.1,1.3-3.5,1.3
			c-1.4,0-2.5-0.4-3.5-1.3C108.4,30.6,107.9,29.6,107.9,28.2z M112.1,22.5h1.6v-2.2c0-0.8-0.3-1.2-0.8-1.2c-0.5,0-0.8,0.4-0.8,1.2
			V22.5z"/>
		<path fill="#553278" d="M119.6,29.3v-9.5c0-1,0.3-1.9,1-2.7c0.6-0.8,1.4-1.2,2.4-1.2c0.5,0,1,0.1,1.5,0.4c0.5,0.3,0.9,0.6,1.2,1.1
			v-7.2h4.2v22.3h-4.2v-1.2c-0.3,0.5-0.7,0.9-1.2,1.2c-0.5,0.3-1,0.4-1.6,0.4c-0.9,0-1.7-0.3-2.3-1C119.9,31,119.6,30.2,119.6,29.3z
			 M125.6,28.7V20c-0.5-0.6-0.9-0.9-1.2-0.9c-0.5,0-0.7,0.4-0.7,1.1v8.4c0,0.2,0,0.4,0,0.6c0,0.1,0.1,0.3,0.2,0.4s0.3,0.2,0.5,0.2
			C124.8,29.6,125.2,29.3,125.6,28.7z"/>
	</g>
	<g>
		<rect x="120.5" y="79.4" fill="none" width="160.4" height="21.4"/>
		<path fill="#F7EA84" d="M121.3,91V79.4h2.9c1.9,0,2.9,1.1,2.9,3.3c0,1-0.3,1.7-0.8,2.2s-1.2,0.7-2.2,0.7H123V91H121.3z M123,84.4
			h0.4c0.4,0,0.7,0,0.9-0.1c0.2,0,0.5-0.1,0.6-0.2c0.2-0.1,0.3-0.3,0.4-0.5c0.1-0.2,0.1-0.5,0.1-0.8c0-0.4,0-0.8-0.1-1
			c-0.1-0.3-0.2-0.5-0.3-0.6c-0.2-0.2-0.4-0.3-0.6-0.3s-0.6-0.1-1-0.1H123V84.4z"/>
		<path fill="#F7EA84" d="M130.2,91.2c-0.4,0-0.8-0.1-1.1-0.2c-0.3-0.1-0.5-0.3-0.7-0.5s-0.3-0.5-0.4-0.9s-0.2-0.7-0.2-1
			s-0.1-0.8-0.1-1.2c0-0.4,0-0.7,0-1.1c0-0.4,0-0.8,0.1-1.2c0-0.3,0.1-0.7,0.2-1c0.1-0.3,0.3-0.6,0.4-0.8s0.4-0.4,0.7-0.5
			c0.3-0.1,0.6-0.2,1-0.2c0.4,0,0.7,0,0.9,0.1c0.3,0.1,0.5,0.2,0.7,0.4c0.2,0.2,0.3,0.4,0.4,0.6c0.1,0.2,0.2,0.5,0.3,0.8
			c0.1,0.3,0.1,0.6,0.1,1s0,0.7,0,1.1v0.2h-3.3v0.4c0,0.1,0,0.1,0,0.3c0,0.2,0,0.3,0,0.5c0,0.2,0,0.3,0,0.5c0,0.2,0,0.3,0.1,0.5
			c0,0.1,0.1,0.3,0.1,0.4c0.1,0.1,0.1,0.2,0.2,0.3c0.1,0.1,0.2,0.1,0.4,0.1c0.2,0,0.3,0,0.4-0.1c0.1-0.1,0.2-0.2,0.3-0.3
			c0.1-0.1,0.1-0.3,0.1-0.4c0-0.1,0-0.3,0-0.5v-0.4h1.7v0.3c0,0.9-0.3,1.6-0.7,2C131.6,90.9,131,91.2,130.2,91.2z M129.4,86h1.7
			v-0.5c0-0.2,0-0.4,0-0.6c0-0.2-0.1-0.3-0.1-0.5s-0.1-0.3-0.3-0.4s-0.3-0.1-0.4-0.1c-0.2,0-0.3,0-0.4,0.1c-0.1,0.1-0.2,0.2-0.3,0.4
			c-0.1,0.2-0.1,0.3-0.1,0.5c0,0.2,0,0.4,0,0.6V86z"/>
		<path fill="#F7EA84" d="M133.9,91v-8.3h1.7v1.1c0.2-0.3,0.4-0.6,0.7-0.9c0.3-0.2,0.7-0.4,1.1-0.4c0,0,0.1,0,0.3,0v1.8
			c-0.3-0.1-0.6-0.2-0.9-0.2c-0.3,0-0.6,0.1-0.8,0.3c-0.2,0.2-0.3,0.5-0.3,0.8V91H133.9z"/>
		<path fill="#F7EA84" d="M140.7,91.2c-0.4,0-0.8-0.1-1.1-0.2c-0.3-0.1-0.5-0.3-0.7-0.5s-0.3-0.5-0.4-0.9s-0.2-0.7-0.2-1
			s-0.1-0.8-0.1-1.2c0-0.4,0-0.7,0-1.1c0-0.4,0-0.8,0.1-1.2c0-0.3,0.1-0.7,0.2-1c0.1-0.3,0.3-0.6,0.4-0.8s0.4-0.4,0.7-0.5
			c0.3-0.1,0.6-0.2,1-0.2c0.4,0,0.7,0,0.9,0.1c0.3,0.1,0.5,0.2,0.7,0.4c0.2,0.2,0.3,0.4,0.4,0.6c0.1,0.2,0.2,0.5,0.3,0.8
			c0.1,0.3,0.1,0.6,0.1,1s0,0.7,0,1.1v0.2h-3.3v0.4c0,0.1,0,0.1,0,0.3c0,0.2,0,0.3,0,0.5c0,0.2,0,0.3,0,0.5c0,0.2,0,0.3,0.1,0.5
			c0,0.1,0.1,0.3,0.1,0.4c0.1,0.1,0.1,0.2,0.2,0.3c0.1,0.1,0.2,0.1,0.4,0.1c0.2,0,0.3,0,0.4-0.1c0.1-0.1,0.2-0.2,0.3-0.3
			c0.1-0.1,0.1-0.3,0.1-0.4c0-0.1,0-0.3,0-0.5v-0.4h1.7v0.3c0,0.9-0.3,1.6-0.7,2C142.2,90.9,141.5,91.2,140.7,91.2z M139.9,86h1.7
			v-0.5c0-0.2,0-0.4,0-0.6c0-0.2-0.1-0.3-0.1-0.5s-0.1-0.3-0.3-0.4s-0.3-0.1-0.4-0.1c-0.2,0-0.3,0-0.4,0.1c-0.1,0.1-0.2,0.2-0.3,0.4
			c-0.1,0.2-0.1,0.3-0.1,0.5c0,0.2,0,0.4,0,0.6V86z"/>
		<path fill="#F7EA84" d="M147.1,93.5c-0.2,0-0.4,0-0.5,0c-0.1,0-0.3,0-0.5,0s-0.4,0-0.6,0c-0.2,0-0.3-0.1-0.5-0.1
			c-0.2,0-0.4-0.1-0.5-0.1c-0.1-0.1-0.3-0.1-0.4-0.2s-0.2-0.2-0.3-0.3c-0.1-0.1-0.1-0.3-0.1-0.4c0-0.4,0.1-0.8,0.3-1.1
			c0.2-0.3,0.5-0.6,0.9-0.7c-0.2-0.1-0.4-0.2-0.6-0.3c-0.2-0.1-0.2-0.3-0.2-0.5c0-0.1,0-0.2,0-0.2c0-0.1,0-0.2,0.1-0.2
			c0-0.1,0.1-0.1,0.1-0.2c0-0.1,0.1-0.2,0.1-0.2c0,0,0.1-0.1,0.1-0.2c0.1-0.1,0.1-0.1,0.1-0.2s0.1-0.1,0.1-0.2s0.1-0.1,0.1-0.1
			c-0.6-0.7-0.8-1.5-0.8-2.5c0-0.6,0.1-1.1,0.3-1.5c0.2-0.5,0.5-0.8,0.9-1.1c0.4-0.3,0.8-0.4,1.4-0.4c0.3,0,0.6,0,0.8,0.1
			c0.2,0.1,0.4,0.2,0.6,0.3c0.1,0.1,0.3,0.3,0.4,0.5c0.3-0.6,0.8-0.9,1.4-1c0,0,0,0,0,0c0,0,0,0,0,0s0,0,0,0V84c0,0-0.1,0-0.1,0
			c-0.2,0-0.3,0-0.4,0c-0.1,0-0.2,0-0.3,0.1c-0.1,0-0.2,0.1-0.3,0.2c0.1,0.2,0.1,0.4,0.2,0.7c0.1,0.3,0.1,0.5,0.1,0.8
			c0,0.6-0.1,1.1-0.3,1.5c-0.2,0.4-0.5,0.8-0.8,1.1s-0.8,0.4-1.4,0.4l-0.8-0.1c0,0,0,0.1-0.1,0.1c0,0.1-0.1,0.1-0.1,0.1
			s0,0.1-0.1,0.1c0,0.1,0,0.1,0,0.2c0,0.1,0.1,0.2,0.2,0.3c0.1,0.1,0.3,0.1,0.4,0.2c0.2,0,0.4,0.1,0.6,0.1c0.2,0,0.4,0,0.6,0
			c0.2,0,0.4,0,0.4,0c0.2,0,0.5,0.1,0.7,0.1c0.2,0,0.4,0.1,0.6,0.2c0.2,0.1,0.4,0.2,0.5,0.3s0.2,0.3,0.3,0.5
			c0.1,0.2,0.1,0.4,0.1,0.7c0,0.3-0.1,0.6-0.2,0.8s-0.2,0.4-0.4,0.6c-0.2,0.2-0.4,0.3-0.6,0.4c-0.3,0.1-0.5,0.2-0.8,0.2
			S147.4,93.5,147.1,93.5z M147.1,92.3c0.1,0,0.2,0,0.3,0s0.2,0,0.3,0c0.1,0,0.2,0,0.3-0.1s0.2-0.1,0.3-0.1c0.1,0,0.1-0.1,0.2-0.2
			c0-0.1,0.1-0.2,0.1-0.2c0-0.5-0.4-0.7-1.3-0.9l-1.4-0.2c-0.2,0.1-0.3,0.3-0.4,0.5c-0.1,0.2-0.2,0.5-0.2,0.7c0,0.1,0,0.1,0.1,0.2
			s0.1,0.1,0.2,0.1c0.1,0,0.2,0,0.3,0.1s0.2,0,0.3,0s0.2,0,0.3,0s0.2,0,0.3,0S147,92.3,147.1,92.3z M146.6,87.4c0.7,0,1-0.6,1-1.8
			c0-0.2,0-0.5,0-0.7c0-0.2-0.1-0.4-0.2-0.6s-0.2-0.3-0.3-0.5c-0.1-0.1-0.3-0.2-0.5-0.2c-0.2,0-0.4,0.1-0.5,0.2
			c-0.1,0.1-0.3,0.3-0.3,0.5c-0.1,0.2-0.1,0.4-0.2,0.6c0,0.2,0,0.4,0,0.7C145.6,86.8,146,87.4,146.6,87.4z"/>
		<path fill="#F7EA84" d="M150.5,91v-8.3h1.7v1.1c0.2-0.3,0.4-0.6,0.7-0.9c0.3-0.2,0.7-0.4,1.1-0.4c0,0,0.1,0,0.3,0v1.8
			c-0.3-0.1-0.6-0.2-0.9-0.2c-0.3,0-0.6,0.1-0.8,0.3c-0.2,0.2-0.3,0.5-0.3,0.8V91H150.5z"/>
		<path fill="#F7EA84" d="M155,81.5v-1.7h1.7v1.7H155z M155,91v-8.3h1.7V91H155z"/>
		<path fill="#F7EA84" d="M158.3,91v-8.3h1.7v0.9c0.2-0.2,0.4-0.4,0.6-0.5c0.2-0.1,0.4-0.2,0.6-0.3c0.3-0.1,0.6-0.2,0.9-0.2
			c0.4,0,0.6,0.1,0.9,0.4c0.2,0.3,0.3,0.6,0.3,1V91h-1.7v-6.3c0-0.3,0-0.5-0.1-0.6S161.3,84,161,84c-0.1,0-0.3,0-0.4,0.1
			s-0.2,0.1-0.3,0.2c-0.1,0.1-0.2,0.1-0.3,0.2V91H158.3z"/>
		<path fill="#F7EA84" d="M167.1,91.2c-0.4,0-0.8-0.1-1.1-0.2c-0.3-0.1-0.5-0.3-0.7-0.5s-0.3-0.5-0.4-0.9s-0.2-0.7-0.2-1
			s-0.1-0.8-0.1-1.2c0-0.4,0-0.7,0-1.1c0-0.4,0-0.8,0.1-1.2c0-0.3,0.1-0.7,0.2-1c0.1-0.3,0.3-0.6,0.4-0.8s0.4-0.4,0.7-0.5
			c0.3-0.1,0.6-0.2,1-0.2c0.4,0,0.7,0,0.9,0.1c0.3,0.1,0.5,0.2,0.7,0.4c0.2,0.2,0.3,0.4,0.4,0.6c0.1,0.2,0.2,0.5,0.3,0.8
			c0.1,0.3,0.1,0.6,0.1,1s0,0.7,0,1.1v0.2h-3.3v0.4c0,0.1,0,0.1,0,0.3c0,0.2,0,0.3,0,0.5c0,0.2,0,0.3,0,0.5c0,0.2,0,0.3,0.1,0.5
			c0,0.1,0.1,0.3,0.1,0.4c0.1,0.1,0.1,0.2,0.2,0.3c0.1,0.1,0.2,0.1,0.4,0.1c0.2,0,0.3,0,0.4-0.1c0.1-0.1,0.2-0.2,0.3-0.3
			c0.1-0.1,0.1-0.3,0.1-0.4c0-0.1,0-0.3,0-0.5v-0.4h1.7v0.3c0,0.9-0.3,1.6-0.7,2C168.6,90.9,167.9,91.2,167.1,91.2z M166.3,86h1.7
			v-0.5c0-0.2,0-0.4,0-0.6c0-0.2-0.1-0.3-0.1-0.5s-0.1-0.3-0.3-0.4s-0.3-0.1-0.4-0.1c-0.2,0-0.3,0-0.4,0.1c-0.1,0.1-0.2,0.2-0.3,0.4
			c-0.1,0.2-0.1,0.3-0.1,0.5c0,0.2,0,0.4,0,0.6V86z"/>
		<path fill="#F7EA84" d="M174,91V84h-0.8v-1.3h0.8v-0.3c0-0.4,0-0.7,0-0.9s0.1-0.5,0.2-0.7c0.1-0.2,0.2-0.4,0.3-0.5
			s0.3-0.2,0.5-0.3c0.2-0.1,0.5-0.1,0.8-0.1c0.3,0,0.6,0,1,0.1v1.2c0,0-0.1,0-0.3,0c-0.1,0-0.2,0-0.3,0c-0.3,0-0.5,0.1-0.6,0.3
			c-0.1,0.2-0.1,0.4-0.1,0.8v0.6h1.3V84h-1.3V91H174z"/>
		<path fill="#F7EA84" d="M179.1,91.2c-0.5,0-0.9-0.2-1.2-0.6c-0.3-0.4-0.5-0.9-0.5-1.4c0-0.4,0.1-0.8,0.2-1.1
			c0.1-0.3,0.3-0.6,0.4-0.8c0.2-0.2,0.4-0.4,0.8-0.6c0.4-0.2,0.6-0.4,0.8-0.4c0.2-0.1,0.5-0.2,1-0.4c0.1,0,0.1-0.1,0.2-0.1v-0.6
			c0-0.4-0.1-0.7-0.2-1c-0.1-0.2-0.3-0.3-0.7-0.3c-0.3,0-0.5,0.1-0.6,0.3c-0.1,0.2-0.2,0.5-0.2,0.8c0,0,0,0.1,0,0.2h-1.7
			c0-0.8,0.2-1.4,0.7-1.9s1-0.7,1.8-0.7c0.8,0,1.4,0.2,1.8,0.7c0.4,0.5,0.7,1.1,0.7,1.9V89c0,0.9,0.1,1.6,0.2,2.1H181l-0.2-1.3
			c-0.1,0.2-0.2,0.3-0.2,0.4c-0.1,0.1-0.1,0.2-0.2,0.4c-0.1,0.1-0.2,0.2-0.3,0.3c-0.1,0.1-0.2,0.1-0.4,0.2
			C179.5,91.1,179.3,91.2,179.1,91.2z M180,89.8c0.1,0,0.2,0,0.3-0.1s0.2-0.1,0.3-0.2c0.1-0.1,0.1-0.2,0.2-0.3c0,0,0,0,0,0v-2.3
			c-0.1,0-0.2,0.1-0.3,0.2c-0.2,0.1-0.3,0.2-0.4,0.2c-0.1,0.1-0.2,0.1-0.3,0.3c-0.1,0.1-0.2,0.2-0.3,0.3s-0.1,0.2-0.2,0.4
			c-0.1,0.1-0.1,0.3-0.1,0.5C179.1,89.5,179.4,89.8,180,89.8z"/>
		<path fill="#F7EA84" d="M183.9,91V79.4h1.7V91H183.9z"/>
		<path fill="#F7EA84" d="M189.1,91.2c-0.4,0-0.8-0.1-1.1-0.2c-0.3-0.1-0.5-0.3-0.7-0.5c-0.2-0.2-0.3-0.5-0.4-0.8
			c-0.1-0.3-0.2-0.7-0.2-1c0-0.3-0.1-0.7-0.1-1.2c0-0.4,0-0.7,0-1.1c0-0.4,0-0.8,0.1-1.2c0-0.3,0.1-0.7,0.2-1
			c0.1-0.3,0.3-0.6,0.4-0.8s0.4-0.4,0.7-0.5c0.3-0.1,0.6-0.2,1.1-0.2c0.9,0,1.5,0.2,1.9,0.7c0.4,0.5,0.6,1.2,0.6,2.1v0.2H190v-0.2
			c0-0.2,0-0.4,0-0.5s-0.1-0.3-0.1-0.5c-0.1-0.2-0.1-0.3-0.3-0.4c-0.1-0.1-0.3-0.1-0.4-0.1s-0.3,0-0.4,0.1s-0.2,0.2-0.3,0.4
			c-0.1,0.2-0.1,0.4-0.1,0.6c0,0.2,0,0.4,0,0.7c0,0.5,0,1.4,0,2.4c0,0.2,0,0.4,0.1,0.6c0,0.2,0.1,0.4,0.1,0.5
			c0.1,0.2,0.1,0.3,0.3,0.4s0.2,0.1,0.4,0.1c0.1,0,0.3,0,0.4-0.1c0.1-0.1,0.2-0.1,0.2-0.2c0.1-0.1,0.1-0.2,0.1-0.3
			c0-0.1,0.1-0.3,0.1-0.4c0-0.1,0-0.3,0-0.5v-0.2h1.7v0.2c0,0.4-0.1,0.8-0.2,1.2c-0.1,0.3-0.2,0.6-0.4,0.9c-0.2,0.3-0.4,0.4-0.8,0.6
			C190,91.1,189.6,91.2,189.1,91.2z"/>
		<path fill="#F7EA84" d="M196.9,90.4c-0.4,0.5-1,0.8-1.9,0.8s-1.5-0.3-1.9-0.8c-0.4-0.5-0.6-1.3-0.6-2.3v-2.5c0-1,0.2-1.7,0.6-2.3
			c0.4-0.5,1-0.8,1.9-0.8s1.5,0.3,1.9,0.8c0.4,0.5,0.6,1.3,0.6,2.3v2.5C197.5,89.1,197.3,89.9,196.9,90.4z M194.7,89.7
			c0.1,0,0.2,0.1,0.3,0.1s0.2,0,0.3-0.1c0.1,0,0.2-0.1,0.2-0.1c0.1,0,0.1-0.1,0.1-0.2s0.1-0.2,0.1-0.3c0-0.1,0-0.2,0-0.3
			c0-0.1,0-0.2,0-0.3c0-0.1,0-0.2,0-0.4v-2.5c0-0.2,0-0.3,0-0.4c0-0.1,0-0.2,0-0.3c0-0.1,0-0.2,0-0.3c0-0.1-0.1-0.2-0.1-0.3
			s-0.1-0.2-0.1-0.2s-0.1-0.1-0.2-0.1c-0.1,0-0.2-0.1-0.3-0.1s-0.2,0-0.3,0.1c-0.1,0-0.2,0.1-0.2,0.1s-0.1,0.1-0.1,0.2
			s-0.1,0.2-0.1,0.3c0,0.1,0,0.2,0,0.3c0,0.1,0,0.2,0,0.3c0,0.1,0,0.2,0,0.4v2.5c0,0.2,0,0.3,0,0.4c0,0.1,0,0.2,0,0.3
			c0,0.1,0,0.2,0,0.3c0,0.1,0.1,0.2,0.1,0.3s0.1,0.2,0.1,0.2C194.5,89.7,194.6,89.7,194.7,89.7z"/>
		<path fill="#F7EA84" d="M198.9,91v-8.3h1.7v0.9c0.2-0.2,0.4-0.4,0.6-0.5c0.2-0.1,0.4-0.2,0.6-0.3c0.3-0.1,0.6-0.2,0.9-0.2
			c0.4,0,0.6,0.1,0.9,0.4c0.2,0.3,0.3,0.6,0.3,1V91h-1.7v-6.3c0-0.3,0-0.5-0.1-0.6s-0.2-0.2-0.5-0.2c-0.1,0-0.3,0-0.4,0.1
			s-0.2,0.1-0.3,0.2c-0.1,0.1-0.2,0.1-0.3,0.2V91H198.9z"/>
		<path fill="#F7EA84" d="M209,91l-1.5-8.3h1.5l0.9,6.3l0.9-6.3h1.5l0.9,6.3l0.9-6.3h1.5l-1.6,8.3h-1.5l-0.9-5.7l-0.9,5.7H209z"/>
		<path fill="#F7EA84" d="M216.4,91V79.4h1.7v4.2c0.2-0.2,0.4-0.4,0.6-0.5c0.2-0.1,0.4-0.2,0.6-0.3c0.3-0.1,0.6-0.2,0.9-0.2
			c0.4,0,0.6,0.1,0.9,0.4c0.2,0.3,0.3,0.6,0.3,1V91h-1.7v-6.3c0-0.3,0-0.5-0.1-0.6c-0.1-0.1-0.2-0.2-0.5-0.2c-0.3,0-0.7,0.2-1.1,0.5
			V91H216.4z"/>
		<path fill="#F7EA84" d="M222.9,81.5v-1.7h1.7v1.7H222.9z M222.9,91v-8.3h1.7V91H222.9z"/>
		<path fill="#F7EA84" d="M226.2,91V79.4h1.7V91H226.2z"/>
		<path fill="#F7EA84" d="M231.7,91.2c-0.4,0-0.8-0.1-1.1-0.2c-0.3-0.1-0.5-0.3-0.7-0.5s-0.3-0.5-0.4-0.9s-0.2-0.7-0.2-1
			s-0.1-0.8-0.1-1.2c0-0.4,0-0.7,0-1.1c0-0.4,0-0.8,0.1-1.2c0-0.3,0.1-0.7,0.2-1c0.1-0.3,0.3-0.6,0.4-0.8s0.4-0.4,0.7-0.5
			c0.3-0.1,0.6-0.2,1-0.2c0.4,0,0.7,0,0.9,0.1c0.3,0.1,0.5,0.2,0.7,0.4c0.2,0.2,0.3,0.4,0.4,0.6c0.1,0.2,0.2,0.5,0.3,0.8
			c0.1,0.3,0.1,0.6,0.1,1s0,0.7,0,1.1v0.2h-3.3v0.4c0,0.1,0,0.1,0,0.3c0,0.2,0,0.3,0,0.5c0,0.2,0,0.3,0,0.5c0,0.2,0,0.3,0.1,0.5
			c0,0.1,0.1,0.3,0.1,0.4c0.1,0.1,0.1,0.2,0.2,0.3c0.1,0.1,0.2,0.1,0.4,0.1c0.2,0,0.3,0,0.4-0.1c0.1-0.1,0.2-0.2,0.3-0.3
			c0.1-0.1,0.1-0.3,0.1-0.4c0-0.1,0-0.3,0-0.5v-0.4h1.7v0.3c0,0.9-0.3,1.6-0.7,2C233.1,90.9,232.5,91.2,231.7,91.2z M230.9,86h1.7
			v-0.5c0-0.2,0-0.4,0-0.6c0-0.2-0.1-0.3-0.1-0.5s-0.1-0.3-0.3-0.4s-0.3-0.1-0.4-0.1c-0.2,0-0.3,0-0.4,0.1c-0.1,0.1-0.2,0.2-0.3,0.4
			c-0.1,0.2-0.1,0.3-0.1,0.5c0,0.2,0,0.4,0,0.6V86z"/>
		<path fill="#F7EA84" d="M240.1,91.2c-0.4,0-0.7-0.1-1-0.3c-0.3-0.2-0.5-0.5-0.6-0.8c-0.1-0.4-0.3-0.7-0.3-1.1s-0.1-0.8-0.1-1.2
			c0-0.2,0-0.7,0-1.5c0-0.3,0-0.5,0-0.8c0-0.2,0-0.5,0.1-0.7c0-0.3,0.1-0.5,0.2-0.7c0.1-0.2,0.1-0.4,0.3-0.6
			c0.1-0.2,0.2-0.3,0.4-0.4c0.1-0.1,0.3-0.2,0.5-0.3c0.2-0.1,0.4-0.1,0.7-0.1c0.2,0,0.4,0,0.5,0.1c0.2,0.1,0.3,0.1,0.5,0.2
			s0.3,0.2,0.4,0.3s0.2,0.2,0.3,0.4v-4.2h1.7V91h-1.7v-0.8c-0.3,0.3-0.5,0.5-0.8,0.6C240.7,91.1,240.4,91.2,240.1,91.2z M240.5,89.8
			c0.4,0,0.8-0.1,1.3-0.3v-5.2c-0.4-0.2-0.8-0.3-1.3-0.3c-0.2,0-0.3,0-0.4,0.1c-0.1,0.1-0.2,0.2-0.3,0.4c-0.1,0.2-0.1,0.3-0.1,0.5
			c0,0.2,0,0.4,0,0.6c0,1,0,1.7,0,2.3c0,0.3,0,0.5,0,0.7c0,0.2,0.1,0.4,0.1,0.6c0.1,0.2,0.1,0.4,0.3,0.5
			C240.2,89.7,240.3,89.8,240.5,89.8z"/>
		<path fill="#F7EA84" d="M245,81.5v-1.7h1.7v1.7H245z M245,91v-8.3h1.7V91H245z"/>
		<path fill="#F7EA84" d="M249.6,91l-1.9-8.3h1.6l1.2,6.3l1.1-6.3h1.6l-1.9,8.3H249.6z"/>
		<path fill="#F7EA84" d="M254.1,81.5v-1.7h1.7v1.7H254.1z M254.1,91v-8.3h1.7V91H254.1z"/>
		<path fill="#F7EA84" d="M257.3,91v-8.3h1.7v0.9c0.2-0.2,0.5-0.4,0.6-0.5c0.2-0.1,0.4-0.2,0.6-0.3s0.6-0.2,0.9-0.2
			c0.4,0,0.6,0.1,0.9,0.4c0.2,0.3,0.3,0.6,0.3,1V91h-1.7v-6.3c0-0.3,0-0.5-0.1-0.6c-0.1-0.1-0.2-0.2-0.5-0.2c-0.1,0-0.3,0-0.4,0.1
			c-0.1,0.1-0.2,0.1-0.3,0.2c-0.1,0.1-0.2,0.1-0.3,0.2V91H257.3z"/>
		<path fill="#F7EA84" d="M266.4,93.5c-0.2,0-0.4,0-0.5,0c-0.1,0-0.3,0-0.5,0s-0.4,0-0.6,0c-0.2,0-0.3-0.1-0.5-0.1
			c-0.2,0-0.4-0.1-0.5-0.1c-0.1-0.1-0.3-0.1-0.4-0.2s-0.2-0.2-0.3-0.3c-0.1-0.1-0.1-0.3-0.1-0.4c0-0.4,0.1-0.8,0.3-1.1
			c0.2-0.3,0.5-0.6,0.9-0.7c-0.2-0.1-0.4-0.2-0.6-0.3c-0.2-0.1-0.2-0.3-0.2-0.5c0-0.1,0-0.2,0-0.2s0-0.2,0.1-0.2s0.1-0.1,0.1-0.2
			c0-0.1,0.1-0.2,0.1-0.2c0,0,0.1-0.1,0.1-0.2c0.1-0.1,0.1-0.1,0.1-0.2c0,0,0.1-0.1,0.1-0.2s0.1-0.1,0.1-0.1
			c-0.6-0.7-0.8-1.5-0.8-2.5c0-0.6,0.1-1.1,0.3-1.5c0.2-0.5,0.5-0.8,0.8-1.1c0.4-0.3,0.8-0.4,1.4-0.4c0.3,0,0.6,0,0.8,0.1
			s0.4,0.2,0.6,0.3c0.1,0.1,0.3,0.3,0.4,0.5c0.3-0.6,0.8-0.9,1.4-1c0,0,0,0,0,0c0,0,0,0,0,0s0,0,0,0V84c0,0-0.1,0-0.1,0
			c-0.2,0-0.3,0-0.4,0c-0.1,0-0.2,0-0.3,0.1c-0.1,0-0.2,0.1-0.3,0.2c0.1,0.2,0.1,0.4,0.2,0.7c0.1,0.3,0.1,0.5,0.1,0.8
			c0,0.6-0.1,1.1-0.3,1.5c-0.2,0.4-0.5,0.8-0.8,1.1c-0.4,0.3-0.9,0.4-1.4,0.4l-0.8-0.1c0,0,0,0.1-0.1,0.1c0,0.1-0.1,0.1-0.1,0.1
			s0,0.1-0.1,0.1s0,0.1,0,0.2c0,0.1,0.1,0.2,0.2,0.3s0.3,0.1,0.4,0.2c0.2,0,0.4,0.1,0.6,0.1c0.2,0,0.4,0,0.6,0c0.2,0,0.4,0,0.5,0
			c0.2,0,0.5,0.1,0.7,0.1c0.2,0,0.4,0.1,0.6,0.2c0.2,0.1,0.4,0.2,0.5,0.3c0.1,0.1,0.2,0.3,0.3,0.5c0.1,0.2,0.1,0.4,0.1,0.7
			c0,0.3-0.1,0.6-0.2,0.8s-0.2,0.4-0.4,0.6c-0.2,0.2-0.4,0.3-0.6,0.4s-0.5,0.2-0.8,0.2C267,93.5,266.7,93.5,266.4,93.5z M266.4,92.3
			c0.1,0,0.2,0,0.3,0c0.1,0,0.2,0,0.3,0c0.1,0,0.2,0,0.3-0.1s0.2-0.1,0.3-0.1s0.1-0.1,0.2-0.2c0-0.1,0.1-0.2,0.1-0.2
			c0-0.5-0.4-0.7-1.3-0.9l-1.4-0.2c-0.2,0.1-0.3,0.3-0.4,0.5s-0.2,0.5-0.2,0.7c0,0.1,0,0.1,0.1,0.2s0.1,0.1,0.2,0.1
			c0.1,0,0.2,0,0.3,0.1s0.2,0,0.3,0s0.2,0,0.3,0c0.1,0,0.2,0,0.3,0S266.4,92.3,266.4,92.3z M266,87.4c0.7,0,1-0.6,1-1.8
			c0-0.2,0-0.5,0-0.7c0-0.2-0.1-0.4-0.2-0.6c-0.1-0.2-0.2-0.3-0.3-0.5c-0.1-0.1-0.3-0.2-0.5-0.2c-0.2,0-0.4,0.1-0.5,0.2
			c-0.1,0.1-0.3,0.3-0.3,0.5c-0.1,0.2-0.1,0.4-0.2,0.6c0,0.2,0,0.4,0,0.7C265,86.8,265.3,87.4,266,87.4z"/>
	</g>
	<g>
		<rect x="121.8" y="126.1" fill="none" width="215.5" height="30.7"/>
		<path fill="#F7EA84" d="M123.9,137.8l-2.1-11.7h1.7l0.8,5.4l0.4,3.3l0.4-3.3l0.8-5.4h1.7l0.8,5.4l0.4,3.3l0.4-3.3l0.8-5.4h1.7
			l-2.1,11.7h-1.7l-0.8-5.4l-0.4-3.3l-0.4,3.3l-0.8,5.4H123.9z"/>
		<path fill="#F7EA84" d="M132.7,137.8v-11.7h1.7v4.2c0.2-0.2,0.4-0.4,0.6-0.5c0.2-0.1,0.4-0.2,0.6-0.3c0.3-0.1,0.6-0.2,0.9-0.2
			c0.4,0,0.6,0.1,0.9,0.4c0.2,0.3,0.3,0.6,0.3,1v7.1H136v-6.3c0-0.3,0-0.5-0.1-0.6c-0.1-0.1-0.2-0.2-0.5-0.2c-0.3,0-0.7,0.2-1.1,0.5
			v6.6H132.7z"/>
		<path fill="#F7EA84" d="M139.2,128.2v-1.7h1.7v1.7H139.2z M139.2,137.8v-8.3h1.7v8.3H139.2z"/>
		<path fill="#F7EA84" d="M144.8,137.9c-0.7,0-1.1-0.2-1.4-0.5c-0.3-0.3-0.5-0.8-0.5-1.5v-5.2h-0.8v-1.3h0.8v-2.9h1.7v2.9h1.3v1.3
			h-1.3v4.9c0,0.3,0,0.6,0.1,0.7s0.3,0.2,0.6,0.2c0.1,0,0.3,0,0.6-0.1v1.4C145.4,137.9,145,137.9,144.8,137.9z"/>
		<path fill="#F7EA84" d="M149.3,137.9c-0.4,0-0.8-0.1-1.1-0.2c-0.3-0.1-0.5-0.3-0.7-0.5s-0.3-0.5-0.4-0.9s-0.2-0.7-0.2-1
			s-0.1-0.8-0.1-1.2c0-0.4,0-0.7,0-1.1c0-0.4,0-0.8,0.1-1.2c0-0.3,0.1-0.7,0.2-1c0.1-0.3,0.3-0.6,0.4-0.8s0.4-0.4,0.7-0.5
			c0.3-0.1,0.6-0.2,1-0.2c0.4,0,0.7,0,0.9,0.1c0.3,0.1,0.5,0.2,0.7,0.4c0.2,0.2,0.3,0.4,0.4,0.6c0.1,0.2,0.2,0.5,0.3,0.8
			c0.1,0.3,0.1,0.6,0.1,1s0,0.7,0,1.1v0.2h-3.3v0.4c0,0.1,0,0.1,0,0.3c0,0.2,0,0.3,0,0.5c0,0.2,0,0.3,0,0.5c0,0.2,0,0.3,0.1,0.5
			c0,0.1,0.1,0.3,0.1,0.4c0.1,0.1,0.1,0.2,0.2,0.3c0.1,0.1,0.2,0.1,0.4,0.1c0.2,0,0.3,0,0.4-0.1c0.1-0.1,0.2-0.2,0.3-0.3
			c0.1-0.1,0.1-0.3,0.1-0.4c0-0.1,0-0.3,0-0.5v-0.4h1.7v0.3c0,0.9-0.3,1.6-0.7,2C150.8,137.7,150.2,137.9,149.3,137.9z M148.5,132.8
			h1.7v-0.5c0-0.2,0-0.4,0-0.6c0-0.2-0.1-0.3-0.1-0.5s-0.1-0.3-0.3-0.4s-0.3-0.1-0.4-0.1c-0.2,0-0.3,0-0.4,0.1
			c-0.1,0.1-0.2,0.2-0.3,0.4c-0.1,0.2-0.1,0.3-0.1,0.5c0,0.2,0,0.4,0,0.6V132.8z"/>
		<path fill="#F7EA84" d="M158.1,137.9c-0.7,0-1.1-0.2-1.4-0.5c-0.3-0.3-0.5-0.8-0.5-1.5v-5.2h-0.8v-1.3h0.8v-2.9h1.7v2.9h1.3v1.3
			h-1.3v4.9c0,0.3,0,0.6,0.1,0.7s0.3,0.2,0.6,0.2c0.1,0,0.3,0,0.6-0.1v1.4C158.7,137.9,158.3,137.9,158.1,137.9z"/>
		<path fill="#F7EA84" d="M160.3,137.8v-11.7h1.7v4.2c0.2-0.2,0.4-0.4,0.6-0.5c0.2-0.1,0.4-0.2,0.6-0.3c0.3-0.1,0.6-0.2,0.9-0.2
			c0.4,0,0.6,0.1,0.9,0.4c0.2,0.3,0.3,0.6,0.3,1v7.1h-1.7v-6.3c0-0.3,0-0.5-0.1-0.6c-0.1-0.1-0.2-0.2-0.5-0.2
			c-0.3,0-0.7,0.2-1.1,0.5v6.6H160.3z"/>
		<path fill="#F7EA84" d="M166.8,137.8v-8.3h1.7v1.1c0.2-0.3,0.4-0.6,0.7-0.9c0.3-0.2,0.7-0.4,1.1-0.4c0,0,0.1,0,0.3,0v1.8
			c-0.3-0.1-0.6-0.2-0.9-0.2c-0.3,0-0.6,0.1-0.8,0.3c-0.2,0.2-0.3,0.5-0.3,0.8v5.6H166.8z"/>
		<path fill="#F7EA84" d="M175.5,137.1c-0.4,0.5-1,0.8-1.9,0.8s-1.5-0.3-1.9-0.8c-0.4-0.5-0.6-1.3-0.6-2.3v-2.5c0-1,0.2-1.7,0.6-2.3
			c0.4-0.5,1-0.8,1.9-0.8s1.5,0.3,1.9,0.8c0.4,0.5,0.6,1.3,0.6,2.3v2.5C176.1,135.9,175.9,136.6,175.5,137.1z M173.3,136.5
			c0.1,0,0.2,0.1,0.3,0.1s0.2,0,0.3-0.1c0.1,0,0.2-0.1,0.2-0.1c0.1,0,0.1-0.1,0.1-0.2s0.1-0.2,0.1-0.3c0-0.1,0-0.2,0-0.3
			c0-0.1,0-0.2,0-0.3c0-0.1,0-0.2,0-0.4v-2.5c0-0.2,0-0.3,0-0.4c0-0.1,0-0.2,0-0.3c0-0.1,0-0.2,0-0.3c0-0.1-0.1-0.2-0.1-0.3
			s-0.1-0.2-0.1-0.2s-0.1-0.1-0.2-0.1c-0.1,0-0.2-0.1-0.3-0.1s-0.2,0-0.3,0.1c-0.1,0-0.2,0.1-0.2,0.1s-0.1,0.1-0.1,0.2
			s-0.1,0.2-0.1,0.3c0,0.1,0,0.2,0,0.3c0,0.1,0,0.2,0,0.3c0,0.1,0,0.2,0,0.4v2.5c0,0.2,0,0.3,0,0.4c0,0.1,0,0.2,0,0.3
			c0,0.1,0,0.2,0,0.3c0,0.1,0.1,0.2,0.1,0.3s0.1,0.2,0.1,0.2C173.1,136.4,173.2,136.5,173.3,136.5z"/>
		<path fill="#F7EA84" d="M178.9,137.9c-0.5,0-0.9-0.2-1.2-0.6c-0.3-0.4-0.5-0.9-0.5-1.4c0-0.4,0.1-0.8,0.2-1.1
			c0.1-0.3,0.3-0.6,0.4-0.8c0.2-0.2,0.4-0.4,0.8-0.6c0.4-0.2,0.6-0.4,0.8-0.4c0.2-0.1,0.5-0.2,1-0.4c0.1,0,0.1-0.1,0.2-0.1V132
			c0-0.4-0.1-0.7-0.2-1c-0.1-0.2-0.3-0.3-0.7-0.3c-0.3,0-0.5,0.1-0.6,0.3c-0.1,0.2-0.2,0.5-0.2,0.8c0,0,0,0.1,0,0.2h-1.7
			c0-0.8,0.2-1.4,0.7-1.9s1-0.7,1.8-0.7c0.8,0,1.4,0.2,1.8,0.7c0.4,0.5,0.7,1.1,0.7,1.9v3.8c0,0.9,0.1,1.6,0.2,2.1h-1.7l-0.2-1.3
			c-0.1,0.2-0.2,0.3-0.2,0.4c-0.1,0.1-0.1,0.2-0.2,0.4c-0.1,0.1-0.2,0.2-0.3,0.3c-0.1,0.1-0.2,0.1-0.4,0.2
			C179.3,137.9,179.1,137.9,178.9,137.9z M179.7,136.5c0.1,0,0.2,0,0.3-0.1s0.2-0.1,0.3-0.2c0.1-0.1,0.1-0.2,0.2-0.3c0,0,0,0,0,0
			v-2.3c-0.1,0-0.2,0.1-0.3,0.2c-0.2,0.1-0.3,0.2-0.4,0.2c-0.1,0.1-0.2,0.1-0.3,0.3c-0.1,0.1-0.2,0.2-0.3,0.3s-0.1,0.2-0.2,0.4
			c-0.1,0.1-0.1,0.3-0.1,0.5C178.9,136.2,179.2,136.5,179.7,136.5z"/>
		<path fill="#F7EA84" d="M185.8,137.9c-0.7,0-1.1-0.2-1.4-0.5c-0.3-0.3-0.5-0.8-0.5-1.5v-5.2H183v-1.3h0.8v-2.9h1.7v2.9h1.3v1.3
			h-1.3v4.9c0,0.3,0,0.6,0.1,0.7s0.3,0.2,0.6,0.2c0.1,0,0.3,0,0.6-0.1v1.4C186.4,137.9,186,137.9,185.8,137.9z"/>
		<path fill="#F7EA84" d="M190.3,137.9c-0.4,0-0.8-0.1-1.1-0.2c-0.3-0.1-0.5-0.3-0.7-0.5s-0.3-0.5-0.4-0.9s-0.2-0.7-0.2-1
			s-0.1-0.8-0.1-1.2c0-0.4,0-0.7,0-1.1c0-0.4,0-0.8,0.1-1.2c0-0.3,0.1-0.7,0.2-1c0.1-0.3,0.3-0.6,0.4-0.8s0.4-0.4,0.7-0.5
			c0.3-0.1,0.6-0.2,1-0.2c0.4,0,0.7,0,0.9,0.1c0.3,0.1,0.5,0.2,0.7,0.4c0.2,0.2,0.3,0.4,0.4,0.6c0.1,0.2,0.2,0.5,0.3,0.8
			c0.1,0.3,0.1,0.6,0.1,1s0,0.7,0,1.1v0.2h-3.3v0.4c0,0.1,0,0.1,0,0.3c0,0.2,0,0.3,0,0.5c0,0.2,0,0.3,0,0.5c0,0.2,0,0.3,0.1,0.5
			c0,0.1,0.1,0.3,0.1,0.4c0.1,0.1,0.1,0.2,0.2,0.3c0.1,0.1,0.2,0.1,0.4,0.1c0.2,0,0.3,0,0.4-0.1c0.1-0.1,0.2-0.2,0.3-0.3
			c0.1-0.1,0.1-0.3,0.1-0.4c0-0.1,0-0.3,0-0.5v-0.4h1.7v0.3c0,0.9-0.3,1.6-0.7,2C191.8,137.7,191.1,137.9,190.3,137.9z M189.5,132.8
			h1.7v-0.5c0-0.2,0-0.4,0-0.6c0-0.2-0.1-0.3-0.1-0.5s-0.1-0.3-0.3-0.4s-0.3-0.1-0.4-0.1c-0.2,0-0.3,0-0.4,0.1
			c-0.1,0.1-0.2,0.2-0.3,0.4c-0.1,0.2-0.1,0.3-0.1,0.5c0,0.2,0,0.4,0,0.6V132.8z"/>
		<path fill="#F7EA84" d="M196,137.9c-0.4,0-0.7-0.1-1-0.3c-0.3-0.2-0.5-0.5-0.6-0.8c-0.1-0.4-0.3-0.7-0.3-1.1s-0.1-0.8-0.1-1.2
			c0-0.2,0-0.7,0-1.5c0-0.3,0-0.5,0-0.8c0-0.2,0-0.5,0.1-0.7c0-0.3,0.1-0.5,0.2-0.7c0.1-0.2,0.1-0.4,0.3-0.6
			c0.1-0.2,0.2-0.3,0.4-0.4c0.1-0.1,0.3-0.2,0.5-0.3c0.2-0.1,0.4-0.1,0.7-0.1c0.2,0,0.4,0,0.5,0.1c0.2,0.1,0.3,0.1,0.5,0.2
			s0.3,0.2,0.4,0.3s0.2,0.2,0.3,0.4v-4.2h1.7v11.7h-1.7V137c-0.3,0.3-0.5,0.5-0.8,0.6C196.6,137.8,196.3,137.9,196,137.9z
			 M196.4,136.5c0.4,0,0.8-0.1,1.3-0.3V131c-0.4-0.2-0.8-0.3-1.3-0.3c-0.2,0-0.3,0-0.4,0.1c-0.1,0.1-0.2,0.2-0.3,0.4
			c-0.1,0.2-0.1,0.3-0.1,0.5c0,0.2,0,0.4,0,0.6c0,1,0,1.7,0,2.3c0,0.3,0,0.5,0,0.7c0,0.2,0.1,0.4,0.1,0.6c0.1,0.2,0.1,0.4,0.3,0.5
			C196.1,136.5,196.2,136.5,196.4,136.5z"/>
		<path fill="#F7EA84" d="M203.6,137.8v-8.3h1.7v0.9c0.2-0.2,0.4-0.4,0.6-0.5c0.2-0.1,0.4-0.2,0.6-0.3c0.3-0.1,0.6-0.2,0.9-0.2
			c0.4,0,0.6,0.1,0.9,0.4c0.2,0.3,0.3,0.6,0.3,1v7.1h-1.7v-6.3c0-0.3,0-0.5-0.1-0.6s-0.2-0.2-0.5-0.2c-0.1,0-0.3,0-0.4,0.1
			s-0.2,0.1-0.3,0.2c-0.1,0.1-0.2,0.1-0.3,0.2v6.6H203.6z"/>
		<path fill="#F7EA84" d="M212.4,137.9c-0.4,0-0.8-0.1-1.1-0.2c-0.3-0.1-0.5-0.3-0.7-0.5s-0.3-0.5-0.4-0.9s-0.2-0.7-0.2-1
			s-0.1-0.8-0.1-1.2c0-0.4,0-0.7,0-1.1c0-0.4,0-0.8,0.1-1.2c0-0.3,0.1-0.7,0.2-1c0.1-0.3,0.3-0.6,0.4-0.8s0.4-0.4,0.7-0.5
			c0.3-0.1,0.6-0.2,1-0.2c0.4,0,0.7,0,0.9,0.1c0.3,0.1,0.5,0.2,0.7,0.4c0.2,0.2,0.3,0.4,0.4,0.6c0.1,0.2,0.2,0.5,0.3,0.8
			c0.1,0.3,0.1,0.6,0.1,1s0,0.7,0,1.1v0.2h-3.3v0.4c0,0.1,0,0.1,0,0.3c0,0.2,0,0.3,0,0.5c0,0.2,0,0.3,0,0.5c0,0.2,0,0.3,0.1,0.5
			c0,0.1,0.1,0.3,0.1,0.4c0.1,0.1,0.1,0.2,0.2,0.3c0.1,0.1,0.2,0.1,0.4,0.1c0.2,0,0.3,0,0.4-0.1c0.1-0.1,0.2-0.2,0.3-0.3
			c0.1-0.1,0.1-0.3,0.1-0.4c0-0.1,0-0.3,0-0.5v-0.4h1.7v0.3c0,0.9-0.3,1.6-0.7,2C213.8,137.7,213.2,137.9,212.4,137.9z M211.6,132.8
			h1.7v-0.5c0-0.2,0-0.4,0-0.6c0-0.2-0.1-0.3-0.1-0.5s-0.1-0.3-0.3-0.4s-0.3-0.1-0.4-0.1c-0.2,0-0.3,0-0.4,0.1
			c-0.1,0.1-0.2,0.2-0.3,0.4c-0.1,0.2-0.1,0.3-0.1,0.5c0,0.2,0,0.4,0,0.6V132.8z"/>
		<path fill="#F7EA84" d="M218.5,137.9c-0.4,0-0.8-0.1-1.1-0.2c-0.3-0.1-0.5-0.3-0.7-0.5s-0.3-0.5-0.4-0.9s-0.2-0.7-0.2-1
			s-0.1-0.8-0.1-1.2c0-0.4,0-0.7,0-1.1c0-0.4,0-0.8,0.1-1.2c0-0.3,0.1-0.7,0.2-1c0.1-0.3,0.3-0.6,0.4-0.8s0.4-0.4,0.7-0.5
			c0.3-0.1,0.6-0.2,1-0.2c0.4,0,0.7,0,0.9,0.1c0.3,0.1,0.5,0.2,0.7,0.4c0.2,0.2,0.3,0.4,0.4,0.6c0.1,0.2,0.2,0.5,0.3,0.8
			c0.1,0.3,0.1,0.6,0.1,1s0,0.7,0,1.1v0.2h-3.3v0.4c0,0.1,0,0.1,0,0.3c0,0.2,0,0.3,0,0.5c0,0.2,0,0.3,0,0.5c0,0.2,0,0.3,0.1,0.5
			c0,0.1,0.1,0.3,0.1,0.4c0.1,0.1,0.1,0.2,0.2,0.3c0.1,0.1,0.2,0.1,0.4,0.1c0.2,0,0.3,0,0.4-0.1c0.1-0.1,0.2-0.2,0.3-0.3
			c0.1-0.1,0.1-0.3,0.1-0.4c0-0.1,0-0.3,0-0.5v-0.4h1.7v0.3c0,0.9-0.3,1.6-0.7,2C219.9,137.7,219.3,137.9,218.5,137.9z M217.7,132.8
			h1.7v-0.5c0-0.2,0-0.4,0-0.6c0-0.2-0.1-0.3-0.1-0.5s-0.1-0.3-0.3-0.4s-0.3-0.1-0.4-0.1c-0.2,0-0.3,0-0.4,0.1
			c-0.1,0.1-0.2,0.2-0.3,0.4c-0.1,0.2-0.1,0.3-0.1,0.5c0,0.2,0,0.4,0,0.6V132.8z"/>
		<path fill="#F7EA84" d="M224.1,137.9c-0.4,0-0.7-0.1-1-0.3c-0.3-0.2-0.5-0.5-0.6-0.8c-0.1-0.4-0.3-0.7-0.3-1.1s-0.1-0.8-0.1-1.2
			c0-0.2,0-0.7,0-1.5c0-0.3,0-0.5,0-0.8c0-0.2,0-0.5,0.1-0.7c0-0.3,0.1-0.5,0.2-0.7c0.1-0.2,0.1-0.4,0.3-0.6
			c0.1-0.2,0.2-0.3,0.4-0.4c0.1-0.1,0.3-0.2,0.5-0.3c0.2-0.1,0.4-0.1,0.7-0.1c0.2,0,0.4,0,0.5,0.1c0.2,0.1,0.3,0.1,0.5,0.2
			s0.3,0.2,0.4,0.3s0.2,0.2,0.3,0.4v-4.2h1.7v11.7h-1.7V137c-0.3,0.3-0.5,0.5-0.8,0.6C224.8,137.8,224.5,137.9,224.1,137.9z
			 M224.6,136.5c0.4,0,0.8-0.1,1.3-0.3V131c-0.4-0.2-0.8-0.3-1.3-0.3c-0.2,0-0.3,0-0.4,0.1c-0.1,0.1-0.2,0.2-0.3,0.4
			c-0.1,0.2-0.1,0.3-0.1,0.5c0,0.2,0,0.4,0,0.6c0,1,0,1.7,0,2.3c0,0.3,0,0.5,0,0.7c0,0.2,0.1,0.4,0.1,0.6c0.1,0.2,0.1,0.4,0.3,0.5
			C224.3,136.5,224.4,136.5,224.6,136.5z"/>
		<path fill="#F7EA84" d="M229,137.8v-11.7h1.7v11.7H229z"/>
		<path fill="#F7EA84" d="M234.5,137.9c-0.4,0-0.8-0.1-1.1-0.2c-0.3-0.1-0.5-0.3-0.7-0.5s-0.3-0.5-0.4-0.9s-0.2-0.7-0.2-1
			s-0.1-0.8-0.1-1.2c0-0.4,0-0.7,0-1.1c0-0.4,0-0.8,0.1-1.2c0-0.3,0.1-0.7,0.2-1c0.1-0.3,0.3-0.6,0.4-0.8s0.4-0.4,0.7-0.5
			c0.3-0.1,0.6-0.2,1-0.2c0.4,0,0.7,0,0.9,0.1c0.3,0.1,0.5,0.2,0.7,0.4c0.2,0.2,0.3,0.4,0.4,0.6c0.1,0.2,0.2,0.5,0.3,0.8
			c0.1,0.3,0.1,0.6,0.1,1s0,0.7,0,1.1v0.2h-3.3v0.4c0,0.1,0,0.1,0,0.3c0,0.2,0,0.3,0,0.5c0,0.2,0,0.3,0,0.5c0,0.2,0,0.3,0.1,0.5
			c0,0.1,0.1,0.3,0.1,0.4c0.1,0.1,0.1,0.2,0.2,0.3c0.1,0.1,0.2,0.1,0.4,0.1c0.2,0,0.3,0,0.4-0.1c0.1-0.1,0.2-0.2,0.3-0.3
			c0.1-0.1,0.1-0.3,0.1-0.4c0-0.1,0-0.3,0-0.5v-0.4h1.7v0.3c0,0.9-0.3,1.6-0.7,2C236,137.7,235.4,137.9,234.5,137.9z M233.7,132.8
			h1.7v-0.5c0-0.2,0-0.4,0-0.6c0-0.2-0.1-0.3-0.1-0.5s-0.1-0.3-0.3-0.4s-0.3-0.1-0.4-0.1c-0.2,0-0.3,0-0.4,0.1
			c-0.1,0.1-0.2,0.2-0.3,0.4c-0.1,0.2-0.1,0.3-0.1,0.5c0,0.2,0,0.4,0,0.6V132.8z"/>
		<path fill="#F7EA84" d="M243.3,137.9c-0.7,0-1.1-0.2-1.4-0.5c-0.3-0.3-0.5-0.8-0.5-1.5v-5.2h-0.8v-1.3h0.8v-2.9h1.7v2.9h1.3v1.3
			h-1.3v4.9c0,0.3,0,0.6,0.1,0.7s0.3,0.2,0.6,0.2c0.1,0,0.3,0,0.6-0.1v1.4C243.9,137.9,243.6,137.9,243.3,137.9z"/>
		<path fill="#F7EA84" d="M247,137.9c-0.5,0-0.9-0.2-1.2-0.6c-0.3-0.4-0.5-0.9-0.5-1.4c0-0.4,0.1-0.8,0.2-1.1
			c0.1-0.3,0.3-0.6,0.4-0.8c0.2-0.2,0.4-0.4,0.8-0.6c0.4-0.2,0.6-0.4,0.8-0.4c0.2-0.1,0.5-0.2,1-0.4c0.1,0,0.1-0.1,0.2-0.1V132
			c0-0.4-0.1-0.7-0.2-1c-0.1-0.2-0.3-0.3-0.7-0.3c-0.3,0-0.5,0.1-0.6,0.3c-0.1,0.2-0.2,0.5-0.2,0.8c0,0,0,0.1,0,0.2h-1.7
			c0-0.8,0.2-1.4,0.7-1.9s1-0.7,1.8-0.7c0.8,0,1.4,0.2,1.8,0.7c0.4,0.5,0.7,1.1,0.7,1.9v3.8c0,0.9,0.1,1.6,0.2,2.1h-1.7l-0.2-1.3
			c-0.1,0.2-0.2,0.3-0.2,0.4c-0.1,0.1-0.1,0.2-0.2,0.4c-0.1,0.1-0.2,0.2-0.3,0.3c-0.1,0.1-0.2,0.1-0.4,0.2
			C247.3,137.9,247.2,137.9,247,137.9z M247.8,136.5c0.1,0,0.2,0,0.3-0.1s0.2-0.1,0.3-0.2c0.1-0.1,0.1-0.2,0.2-0.3c0,0,0,0,0,0v-2.3
			c-0.1,0-0.2,0.1-0.3,0.2c-0.2,0.1-0.3,0.2-0.4,0.2c-0.1,0.1-0.2,0.1-0.3,0.3c-0.1,0.1-0.2,0.2-0.3,0.3s-0.1,0.2-0.2,0.4
			c-0.1,0.1-0.1,0.3-0.1,0.5C247,136.2,247.3,136.5,247.8,136.5z"/>
		<path fill="#F7EA84" d="M251.8,128.2v-1.7h1.7v1.7H251.8z M251.8,137.8v-8.3h1.7v8.3H251.8z"/>
		<path fill="#F7EA84" d="M255.1,137.8v-11.7h1.7v11.7H255.1z"/>
		<path fill="#F7EA84" d="M261,128.2v-1.7h1.7v1.7H261z M261,137.8v-8.3h1.7v8.3H261z"/>
		<path fill="#F7EA84" d="M266.5,137.9c-0.7,0-1.2-0.2-1.7-0.6c-0.4-0.4-0.7-0.9-0.8-1.6l1.3-0.4c0.3,0.8,0.7,1.3,1.2,1.3
			c0.3,0,0.5-0.1,0.6-0.2c0.1-0.1,0.2-0.4,0.2-0.6c0-0.4-0.1-0.7-0.4-1l-1.7-1.3c-0.2-0.1-0.3-0.2-0.5-0.4c-0.1-0.1-0.3-0.2-0.4-0.4
			s-0.2-0.3-0.3-0.5c-0.1-0.2-0.1-0.4-0.1-0.7c0-0.7,0.2-1.3,0.7-1.6c0.5-0.4,1.1-0.6,1.8-0.6c0.4,0,0.7,0.1,1,0.2
			c0.3,0.1,0.5,0.3,0.7,0.5c0.2,0.2,0.4,0.4,0.5,0.7c0.1,0.3,0.2,0.5,0.3,0.8l-1.3,0.4c-0.1-0.2-0.1-0.3-0.2-0.4
			c-0.1-0.1-0.1-0.2-0.2-0.4c-0.1-0.1-0.2-0.2-0.4-0.3c-0.1-0.1-0.3-0.1-0.5-0.1c-0.3,0-0.5,0.1-0.6,0.2s-0.2,0.4-0.2,0.6
			c0,0.3,0.1,0.5,0.4,0.7l1.7,1.2c0.2,0.1,0.3,0.3,0.5,0.4c0.1,0.1,0.3,0.3,0.4,0.5s0.2,0.4,0.3,0.6c0.1,0.2,0.1,0.5,0.1,0.7
			c0,0.7-0.2,1.3-0.7,1.6C267.8,137.7,267.2,137.9,266.5,137.9z"/>
		<path fill="#F7EA84" d="M275,137.9c-0.7,0-1.1-0.2-1.4-0.5c-0.3-0.3-0.5-0.8-0.5-1.5v-5.2h-0.8v-1.3h0.8v-2.9h1.7v2.9h1.2v1.3
			h-1.2v4.9c0,0.3,0,0.6,0.1,0.7s0.3,0.2,0.6,0.2c0.1,0,0.3,0,0.6-0.1v1.4C275.6,137.9,275.3,137.9,275,137.9z"/>
		<path fill="#F7EA84" d="M277.3,137.8v-11.7h1.7v4.2c0.2-0.2,0.5-0.4,0.6-0.5c0.2-0.1,0.4-0.2,0.6-0.3s0.6-0.2,0.9-0.2
			c0.4,0,0.6,0.1,0.9,0.4c0.2,0.3,0.3,0.6,0.3,1v7.1h-1.7v-6.3c0-0.3,0-0.5-0.1-0.6c-0.1-0.1-0.2-0.2-0.5-0.2
			c-0.3,0-0.7,0.2-1.1,0.5v6.6H277.3z"/>
		<path fill="#F7EA84" d="M286.1,137.9c-0.4,0-0.8-0.1-1.1-0.2c-0.3-0.1-0.5-0.3-0.7-0.5s-0.3-0.5-0.4-0.9c-0.1-0.3-0.2-0.7-0.2-1
			c0-0.3-0.1-0.8-0.1-1.2c0-0.4,0-0.7,0-1.1c0-0.4,0-0.8,0.1-1.2s0.1-0.7,0.2-1c0.1-0.3,0.3-0.6,0.4-0.8c0.2-0.2,0.4-0.4,0.7-0.5
			c0.3-0.1,0.6-0.2,1-0.2c0.4,0,0.7,0,0.9,0.1s0.5,0.2,0.7,0.4c0.2,0.2,0.3,0.4,0.4,0.6s0.2,0.5,0.3,0.8c0.1,0.3,0.1,0.6,0.1,1
			c0,0.3,0,0.7,0,1.1v0.2h-3.3v0.4c0,0.1,0,0.1,0,0.3c0,0.2,0,0.3,0,0.5c0,0.2,0,0.3,0,0.5c0,0.2,0,0.3,0.1,0.5
			c0,0.1,0.1,0.3,0.1,0.4c0.1,0.1,0.1,0.2,0.2,0.3c0.1,0.1,0.2,0.1,0.4,0.1c0.2,0,0.3,0,0.4-0.1c0.1-0.1,0.2-0.2,0.3-0.3
			c0.1-0.1,0.1-0.3,0.1-0.4c0-0.1,0-0.3,0-0.5v-0.4h1.7v0.3c0,0.9-0.3,1.6-0.7,2C287.5,137.7,286.9,137.9,286.1,137.9z M285.3,132.8
			h1.7v-0.5c0-0.2,0-0.4,0-0.6s-0.1-0.3-0.1-0.5c-0.1-0.2-0.1-0.3-0.3-0.4c-0.1-0.1-0.3-0.1-0.4-0.1c-0.2,0-0.3,0-0.4,0.1
			s-0.2,0.2-0.3,0.4c-0.1,0.2-0.1,0.3-0.1,0.5s0,0.4,0,0.6V132.8z"/>
		<path fill="#F7EA84" d="M292.9,137.8v-7.1h-0.8v-1.3h0.8v-0.3c0-0.4,0-0.7,0-0.9s0.1-0.5,0.2-0.7c0.1-0.2,0.2-0.4,0.3-0.5
			s0.3-0.2,0.5-0.3c0.2-0.1,0.5-0.1,0.8-0.1c0.3,0,0.6,0,1,0.1v1.2c0,0-0.1,0-0.3,0s-0.2,0-0.3,0c-0.3,0-0.5,0.1-0.6,0.3
			c-0.1,0.2-0.1,0.4-0.1,0.8v0.6h1.3v1.3h-1.3v7.1H292.9z"/>
		<path fill="#F7EA84" d="M298.1,137.9c-0.5,0-0.9-0.2-1.2-0.6c-0.3-0.4-0.5-0.9-0.5-1.4c0-0.4,0.1-0.8,0.2-1.1
			c0.1-0.3,0.3-0.6,0.4-0.8c0.2-0.2,0.4-0.4,0.8-0.6c0.4-0.2,0.6-0.4,0.8-0.4s0.5-0.2,1-0.4c0.1,0,0.1-0.1,0.2-0.1V132
			c0-0.4-0.1-0.7-0.2-1c-0.1-0.2-0.3-0.3-0.7-0.3c-0.3,0-0.5,0.1-0.6,0.3c-0.1,0.2-0.2,0.5-0.2,0.8c0,0,0,0.1,0,0.2h-1.7
			c0-0.8,0.2-1.4,0.7-1.9s1-0.7,1.8-0.7c0.8,0,1.4,0.2,1.8,0.7s0.7,1.1,0.7,1.9v3.8c0,0.9,0.1,1.6,0.2,2.1H300l-0.2-1.3
			c-0.1,0.2-0.2,0.3-0.2,0.4c-0.1,0.1-0.1,0.2-0.2,0.4c-0.1,0.1-0.2,0.2-0.3,0.3c-0.1,0.1-0.2,0.1-0.4,0.2
			C298.4,137.9,298.3,137.9,298.1,137.9z M298.9,136.5c0.1,0,0.2,0,0.3-0.1s0.2-0.1,0.3-0.2c0.1-0.1,0.1-0.2,0.2-0.3c0,0,0,0,0,0
			v-2.3c-0.1,0-0.2,0.1-0.3,0.2c-0.2,0.1-0.3,0.2-0.4,0.2c-0.1,0.1-0.2,0.1-0.3,0.3s-0.2,0.2-0.3,0.3s-0.1,0.2-0.2,0.4
			c-0.1,0.1-0.1,0.3-0.1,0.5C298.1,136.2,298.4,136.5,298.9,136.5z"/>
		<path fill="#F7EA84" d="M305,137.9c-0.7,0-1.2-0.2-1.7-0.6c-0.4-0.4-0.7-0.9-0.8-1.6l1.3-0.4c0.3,0.8,0.7,1.3,1.2,1.3
			c0.3,0,0.5-0.1,0.6-0.2c0.1-0.1,0.2-0.4,0.2-0.6c0-0.4-0.1-0.7-0.4-1l-1.7-1.3c-0.2-0.1-0.3-0.2-0.5-0.4c-0.1-0.1-0.3-0.2-0.4-0.4
			s-0.2-0.3-0.3-0.5c-0.1-0.2-0.1-0.4-0.1-0.7c0-0.7,0.2-1.3,0.7-1.6c0.5-0.4,1.1-0.6,1.8-0.6c0.4,0,0.7,0.1,1,0.2
			c0.3,0.1,0.5,0.3,0.7,0.5c0.2,0.2,0.4,0.4,0.5,0.7c0.1,0.3,0.2,0.5,0.3,0.8l-1.3,0.4c-0.1-0.2-0.1-0.3-0.2-0.4
			c-0.1-0.1-0.1-0.2-0.2-0.4c-0.1-0.1-0.2-0.2-0.4-0.3c-0.1-0.1-0.3-0.1-0.5-0.1c-0.3,0-0.5,0.1-0.6,0.2s-0.2,0.4-0.2,0.6
			c0,0.3,0.1,0.5,0.4,0.7l1.7,1.2c0.2,0.1,0.3,0.3,0.5,0.4c0.1,0.1,0.3,0.3,0.4,0.5s0.2,0.4,0.3,0.6c0.1,0.2,0.1,0.5,0.1,0.7
			c0,0.7-0.2,1.3-0.7,1.6C306.4,137.7,305.8,137.9,305,137.9z"/>
		<path fill="#F7EA84" d="M310.9,137.9c-0.7,0-1.1-0.2-1.4-0.5c-0.3-0.3-0.5-0.8-0.5-1.5v-5.2h-0.8v-1.3h0.8v-2.9h1.7v2.9h1.2v1.3
			h-1.2v4.9c0,0.3,0,0.6,0.1,0.7s0.3,0.2,0.6,0.2c0.1,0,0.3,0,0.6-0.1v1.4C311.5,137.9,311.1,137.9,310.9,137.9z"/>
		<path fill="#F7EA84" d="M315.4,137.9c-0.4,0-0.8-0.1-1.1-0.2c-0.3-0.1-0.5-0.3-0.7-0.5s-0.3-0.5-0.4-0.9c-0.1-0.3-0.2-0.7-0.2-1
			c0-0.3-0.1-0.8-0.1-1.2c0-0.4,0-0.7,0-1.1c0-0.4,0-0.8,0.1-1.2s0.1-0.7,0.2-1c0.1-0.3,0.3-0.6,0.4-0.8c0.2-0.2,0.4-0.4,0.7-0.5
			c0.3-0.1,0.6-0.2,1-0.2c0.4,0,0.7,0,0.9,0.1s0.5,0.2,0.7,0.4c0.2,0.2,0.3,0.4,0.4,0.6s0.2,0.5,0.3,0.8c0.1,0.3,0.1,0.6,0.1,1
			c0,0.3,0,0.7,0,1.1v0.2h-3.3v0.4c0,0.1,0,0.1,0,0.3c0,0.2,0,0.3,0,0.5c0,0.2,0,0.3,0,0.5c0,0.2,0,0.3,0.1,0.5
			c0,0.1,0.1,0.3,0.1,0.4c0.1,0.1,0.1,0.2,0.2,0.3c0.1,0.1,0.2,0.1,0.4,0.1c0.2,0,0.3,0,0.4-0.1c0.1-0.1,0.2-0.2,0.3-0.3
			c0.1-0.1,0.1-0.3,0.1-0.4c0-0.1,0-0.3,0-0.5v-0.4h1.7v0.3c0,0.9-0.3,1.6-0.7,2C316.9,137.7,316.3,137.9,315.4,137.9z M314.6,132.8
			h1.7v-0.5c0-0.2,0-0.4,0-0.6s-0.1-0.3-0.1-0.5c-0.1-0.2-0.1-0.3-0.3-0.4c-0.1-0.1-0.3-0.1-0.4-0.1c-0.2,0-0.3,0-0.4,0.1
			s-0.2,0.2-0.3,0.4c-0.1,0.2-0.1,0.3-0.1,0.5s0,0.4,0,0.6V132.8z"/>
		<path fill="#F7EA84" d="M321.3,137.9c-0.7,0-1.2-0.2-1.7-0.6c-0.4-0.4-0.7-0.9-0.8-1.6l1.3-0.4c0.3,0.8,0.7,1.3,1.2,1.3
			c0.3,0,0.5-0.1,0.6-0.2c0.1-0.1,0.2-0.4,0.2-0.6c0-0.4-0.1-0.7-0.4-1l-1.7-1.3c-0.2-0.1-0.3-0.2-0.5-0.4c-0.1-0.1-0.3-0.2-0.4-0.4
			s-0.2-0.3-0.3-0.5c-0.1-0.2-0.1-0.4-0.1-0.7c0-0.7,0.2-1.3,0.7-1.6c0.5-0.4,1.1-0.6,1.8-0.6c0.4,0,0.7,0.1,1,0.2
			c0.3,0.1,0.5,0.3,0.7,0.5c0.2,0.2,0.4,0.4,0.5,0.7c0.1,0.3,0.2,0.5,0.3,0.8l-1.3,0.4c-0.1-0.2-0.1-0.3-0.2-0.4
			c-0.1-0.1-0.1-0.2-0.2-0.4c-0.1-0.1-0.2-0.2-0.4-0.3c-0.1-0.1-0.3-0.1-0.5-0.1c-0.3,0-0.5,0.1-0.6,0.2s-0.2,0.4-0.2,0.6
			c0,0.3,0.1,0.5,0.4,0.7l1.7,1.2c0.2,0.1,0.3,0.3,0.5,0.4c0.1,0.1,0.3,0.3,0.4,0.5s0.2,0.4,0.3,0.6c0.1,0.2,0.1,0.5,0.1,0.7
			c0,0.7-0.2,1.3-0.7,1.6C322.7,137.7,322.1,137.9,321.3,137.9z"/>
		<path fill="#F7EA84" d="M327.2,137.9c-0.7,0-1.1-0.2-1.4-0.5c-0.3-0.3-0.5-0.8-0.5-1.5v-5.2h-0.8v-1.3h0.8v-2.9h1.7v2.9h1.2v1.3
			h-1.2v4.9c0,0.3,0,0.6,0.1,0.7s0.3,0.2,0.6,0.2c0.1,0,0.3,0,0.6-0.1v1.4C327.8,137.9,327.4,137.9,327.2,137.9z"/>
		<path fill="#F7EA84" d="M123,152.5v-7.1h-0.8v-1.3h0.8v-0.3c0-0.4,0-0.7,0-0.9s0.1-0.5,0.2-0.7c0.1-0.2,0.2-0.4,0.3-0.5
			s0.3-0.2,0.5-0.3c0.2-0.1,0.5-0.1,0.8-0.1c0.3,0,0.6,0,1,0.1v1.2c0,0-0.1,0-0.3,0c-0.1,0-0.2,0-0.3,0c-0.3,0-0.5,0.1-0.6,0.3
			c-0.1,0.2-0.1,0.4-0.1,0.8v0.6h1.3v1.3h-1.3v7.1H123z"/>
		<path fill="#F7EA84" d="M126.7,152.5v-11.7h1.7v11.7H126.7z"/>
		<path fill="#F7EA84" d="M129.6,154.5v-1.2c0.3,0,0.6,0,0.8-0.1c0.2,0,0.3-0.1,0.4-0.2c0.1-0.1,0.2-0.2,0.2-0.4c0-0.1,0-0.3,0-0.6
			l-1.9-8h1.7c0.6,3.6,1,5.5,1,5.8c0.1-0.6,0.2-1.2,0.3-1.9c0.1-0.6,0.2-1.4,0.4-2.1s0.3-1.4,0.3-1.8h1.7l-2.1,8.8
			c-0.1,0.6-0.4,1-0.9,1.3s-1.1,0.4-1.9,0.4H129.6z"/>
		<path fill="#F7EA84" d="M135.6,142.9v-1.7h1.7v1.7H135.6z M135.6,152.5v-8.3h1.7v8.3H135.6z"/>
		<path fill="#F7EA84" d="M138.8,152.5v-8.3h1.7v0.9c0.2-0.2,0.4-0.4,0.6-0.5c0.2-0.1,0.4-0.2,0.6-0.3c0.3-0.1,0.6-0.2,0.9-0.2
			c0.4,0,0.6,0.1,0.9,0.4c0.2,0.3,0.3,0.6,0.3,1v7.1h-1.7v-6.3c0-0.3,0-0.5-0.1-0.6s-0.2-0.2-0.5-0.2c-0.1,0-0.3,0-0.4,0.1
			s-0.2,0.1-0.3,0.2c-0.1,0.1-0.2,0.1-0.3,0.2v6.6H138.8z"/>
		<path fill="#F7EA84" d="M147.9,155c-0.2,0-0.4,0-0.5,0c-0.1,0-0.3,0-0.5,0s-0.4,0-0.6,0c-0.2,0-0.3-0.1-0.5-0.1
			c-0.2,0-0.4-0.1-0.5-0.1c-0.1-0.1-0.3-0.1-0.4-0.2c-0.1-0.1-0.2-0.2-0.3-0.3c-0.1-0.1-0.1-0.3-0.1-0.4c0-0.4,0.1-0.8,0.3-1.1
			c0.2-0.3,0.5-0.6,0.9-0.7c-0.2-0.1-0.4-0.2-0.6-0.3s-0.2-0.3-0.2-0.5c0-0.1,0-0.2,0-0.2c0-0.1,0-0.2,0.1-0.2
			c0-0.1,0.1-0.1,0.1-0.2c0-0.1,0.1-0.2,0.1-0.2s0.1-0.1,0.1-0.2s0.1-0.1,0.1-0.2c0,0,0.1-0.1,0.1-0.2c0.1-0.1,0.1-0.1,0.1-0.1
			c-0.6-0.7-0.8-1.5-0.8-2.5c0-0.6,0.1-1.1,0.3-1.5c0.2-0.5,0.5-0.8,0.9-1.1c0.4-0.3,0.8-0.4,1.4-0.4c0.3,0,0.6,0,0.8,0.1
			c0.2,0.1,0.4,0.2,0.6,0.3c0.1,0.1,0.3,0.3,0.4,0.5c0.3-0.6,0.8-0.9,1.4-1c0,0,0,0,0,0c0,0,0,0,0,0s0,0,0,0v1.4c0,0-0.1,0-0.1,0
			c-0.2,0-0.3,0-0.4,0c-0.1,0-0.2,0-0.3,0.1c-0.1,0-0.2,0.1-0.3,0.2c0.1,0.2,0.1,0.4,0.2,0.7c0.1,0.3,0.1,0.5,0.1,0.8
			c0,0.6-0.1,1.1-0.3,1.5s-0.5,0.8-0.8,1.1c-0.4,0.3-0.8,0.4-1.4,0.4l-0.8-0.1c0,0,0,0.1-0.1,0.1c0,0.1-0.1,0.1-0.1,0.1
			c0,0,0,0.1-0.1,0.1c0,0.1,0,0.1,0,0.2c0,0.1,0.1,0.2,0.2,0.3c0.1,0.1,0.3,0.1,0.4,0.2s0.4,0.1,0.6,0.1c0.2,0,0.4,0,0.6,0
			c0.2,0,0.4,0,0.4,0c0.2,0,0.5,0.1,0.7,0.1c0.2,0,0.4,0.1,0.6,0.2c0.2,0.1,0.4,0.2,0.5,0.3c0.1,0.1,0.2,0.3,0.3,0.5
			c0.1,0.2,0.1,0.4,0.1,0.7c0,0.3-0.1,0.6-0.2,0.8c-0.1,0.2-0.2,0.4-0.4,0.6c-0.2,0.2-0.4,0.3-0.6,0.4c-0.3,0.1-0.5,0.2-0.8,0.2
			C148.5,154.9,148.2,155,147.9,155z M147.9,153.7c0.1,0,0.2,0,0.3,0s0.2,0,0.3,0c0.1,0,0.2,0,0.3-0.1s0.2-0.1,0.3-0.1
			c0.1,0,0.1-0.1,0.2-0.2c0-0.1,0.1-0.2,0.1-0.2c0-0.5-0.4-0.7-1.3-0.9l-1.4-0.2c-0.2,0.1-0.3,0.3-0.4,0.5c-0.1,0.2-0.2,0.5-0.2,0.7
			c0,0.1,0,0.1,0.1,0.2c0,0,0.1,0.1,0.2,0.1c0.1,0,0.2,0,0.3,0.1s0.2,0,0.3,0c0.1,0,0.2,0,0.3,0s0.2,0,0.3,0
			C147.8,153.7,147.9,153.7,147.9,153.7z M147.5,148.8c0.7,0,1-0.6,1-1.8c0-0.2,0-0.5,0-0.7c0-0.2-0.1-0.4-0.2-0.6s-0.2-0.3-0.3-0.5
			c-0.1-0.1-0.3-0.2-0.5-0.2c-0.2,0-0.4,0.1-0.5,0.2c-0.1,0.1-0.3,0.3-0.3,0.5c-0.1,0.2-0.1,0.4-0.2,0.6c0,0.2,0,0.4,0,0.7
			C146.5,148.2,146.8,148.8,147.5,148.8z"/>
		<path fill="#F7EA84" d="M157.4,152.6c-0.3,0-0.6-0.1-0.9-0.2c-0.3-0.2-0.5-0.4-0.8-0.6v0.8H154v-11.7h1.7v4.2
			c0.2-0.2,0.3-0.3,0.4-0.4c0.1-0.1,0.2-0.2,0.3-0.3c0.1-0.1,0.3-0.2,0.5-0.2c0.2,0,0.3-0.1,0.5-0.1c0.3,0,0.5,0.1,0.8,0.2
			c0.2,0.1,0.4,0.2,0.5,0.4c0.1,0.1,0.3,0.3,0.4,0.6c0.1,0.3,0.2,0.5,0.2,0.7s0.1,0.5,0.1,0.9c0,0.4,0,0.7,0,0.9c0,0.2,0,0.5,0,0.9
			v0.1c0,0.4,0,0.7-0.1,1.1c0,0.3-0.1,0.7-0.2,1s-0.2,0.7-0.4,0.9c-0.1,0.3-0.3,0.5-0.6,0.6S157.7,152.6,157.4,152.6z M156.9,151.2
			c0.2,0,0.3-0.1,0.4-0.2c0.1-0.1,0.2-0.3,0.3-0.6c0.1-0.2,0.1-0.5,0.1-0.7c0-0.2,0-0.5,0-0.8c0-0.2,0-0.5,0-0.9c0-0.4,0-0.7,0-0.9
			s0-0.4,0-0.5c0-0.1,0-0.3-0.1-0.5s-0.1-0.3-0.1-0.4c-0.1-0.1-0.1-0.2-0.2-0.3c-0.1-0.1-0.2-0.1-0.4-0.1c-0.5,0-0.9,0.1-1.3,0.3
			v5.2C156.1,151.1,156.5,151.2,156.9,151.2z"/>
		<path fill="#F7EA84" d="M160.9,142.9v-1.7h1.7v1.7H160.9z M160.9,152.5v-8.3h1.7v8.3H160.9z"/>
		<path fill="#F7EA84" d="M164.1,152.5v-8.3h1.7v1.1c0.2-0.3,0.4-0.6,0.7-0.9c0.3-0.2,0.7-0.4,1.1-0.4c0,0,0.1,0,0.3,0v1.8
			c-0.3-0.1-0.6-0.2-0.9-0.2c-0.3,0-0.6,0.1-0.8,0.3c-0.2,0.2-0.3,0.5-0.3,0.8v5.6H164.1z"/>
		<path fill="#F7EA84" d="M170.5,152.6c-0.4,0-0.7-0.1-1-0.3c-0.3-0.2-0.5-0.5-0.6-0.8c-0.1-0.4-0.3-0.7-0.3-1.1s-0.1-0.8-0.1-1.2
			c0-0.2,0-0.7,0-1.5c0-0.3,0-0.5,0-0.8c0-0.2,0-0.5,0.1-0.7c0-0.3,0.1-0.5,0.2-0.7c0.1-0.2,0.1-0.4,0.3-0.6
			c0.1-0.2,0.2-0.3,0.4-0.4c0.1-0.1,0.3-0.2,0.5-0.3c0.2-0.1,0.4-0.1,0.7-0.1c0.2,0,0.4,0,0.5,0.1c0.2,0.1,0.3,0.1,0.5,0.2
			s0.3,0.2,0.4,0.3s0.2,0.2,0.3,0.4v-4.2h1.7v11.7h-1.7v-0.8c-0.3,0.3-0.5,0.5-0.8,0.6C171.2,152.5,170.9,152.6,170.5,152.6z
			 M170.9,151.2c0.4,0,0.8-0.1,1.3-0.3v-5.2c-0.4-0.2-0.8-0.3-1.3-0.3c-0.2,0-0.3,0-0.4,0.1c-0.1,0.1-0.2,0.2-0.3,0.4
			c-0.1,0.2-0.1,0.3-0.1,0.5c0,0.2,0,0.4,0,0.6c0,1,0,1.7,0,2.3c0,0.3,0,0.5,0,0.7c0,0.2,0.1,0.4,0.1,0.6s0.1,0.4,0.3,0.5
			C170.7,151.2,170.8,151.2,170.9,151.2z"/>
		<path fill="#F7EA84" d="M178.2,142.9v-1.7h1.7v1.7H178.2z M178.2,152.5v-8.3h1.7v8.3H178.2z"/>
		<path fill="#F7EA84" d="M181.5,152.5v-8.3h1.7v0.9c0.2-0.2,0.4-0.4,0.6-0.5c0.2-0.1,0.4-0.2,0.6-0.3c0.3-0.1,0.6-0.2,0.9-0.2
			c0.4,0,0.6,0.1,0.9,0.4c0.2,0.3,0.3,0.6,0.3,1v7.1h-1.7v-6.3c0-0.3,0-0.5-0.1-0.6s-0.2-0.2-0.5-0.2c-0.1,0-0.3,0-0.4,0.1
			s-0.2,0.1-0.3,0.2c-0.1,0.1-0.2,0.1-0.3,0.2v6.6H181.5z"/>
		<path fill="#F7EA84" d="M190.6,152.5v-11.7h1.7v11.7H190.6z"/>
		<path fill="#F7EA84" d="M196.2,152.6c-0.4,0-0.8-0.1-1.1-0.2c-0.3-0.1-0.5-0.3-0.7-0.5s-0.3-0.5-0.4-0.9c-0.1-0.3-0.2-0.7-0.2-1
			s-0.1-0.8-0.1-1.2c0-0.4,0-0.7,0-1.1c0-0.4,0-0.8,0.1-1.2c0-0.3,0.1-0.7,0.2-1c0.1-0.3,0.3-0.6,0.4-0.8s0.4-0.4,0.7-0.5
			c0.3-0.1,0.6-0.2,1-0.2c0.4,0,0.7,0,0.9,0.1c0.3,0.1,0.5,0.2,0.7,0.4c0.2,0.2,0.3,0.4,0.4,0.6c0.1,0.2,0.2,0.5,0.3,0.8
			c0.1,0.3,0.1,0.6,0.1,1c0,0.3,0,0.7,0,1.1v0.2h-3.3v0.4c0,0.1,0,0.1,0,0.3c0,0.2,0,0.3,0,0.5c0,0.2,0,0.3,0,0.5s0,0.3,0.1,0.5
			c0,0.1,0.1,0.3,0.1,0.4c0.1,0.1,0.1,0.2,0.2,0.3c0.1,0.1,0.2,0.1,0.4,0.1c0.2,0,0.3,0,0.4-0.1c0.1-0.1,0.2-0.2,0.3-0.3
			s0.1-0.3,0.1-0.4c0-0.1,0-0.3,0-0.5v-0.4h1.7v0.3c0,0.9-0.3,1.6-0.7,2S197,152.6,196.2,152.6z M195.3,147.5h1.7V147
			c0-0.2,0-0.4,0-0.6c0-0.2-0.1-0.3-0.1-0.5s-0.1-0.3-0.3-0.4s-0.3-0.1-0.4-0.1c-0.2,0-0.3,0-0.4,0.1c-0.1,0.1-0.2,0.2-0.3,0.4
			c-0.1,0.2-0.1,0.3-0.1,0.5c0,0.2,0,0.4,0,0.6V147.5z"/>
		<path fill="#F7EA84" d="M201.1,152.5l-1.9-8.3h1.6l1.2,6.3l1.1-6.3h1.6l-1.9,8.3H201.1z"/>
		<path fill="#F7EA84" d="M207.8,152.6c-0.4,0-0.8-0.1-1.1-0.2c-0.3-0.1-0.5-0.3-0.7-0.5s-0.3-0.5-0.4-0.9c-0.1-0.3-0.2-0.7-0.2-1
			s-0.1-0.8-0.1-1.2c0-0.4,0-0.7,0-1.1c0-0.4,0-0.8,0.1-1.2c0-0.3,0.1-0.7,0.2-1c0.1-0.3,0.3-0.6,0.4-0.8s0.4-0.4,0.7-0.5
			c0.3-0.1,0.6-0.2,1-0.2c0.4,0,0.7,0,0.9,0.1c0.3,0.1,0.5,0.2,0.7,0.4c0.2,0.2,0.3,0.4,0.4,0.6c0.1,0.2,0.2,0.5,0.3,0.8
			c0.1,0.3,0.1,0.6,0.1,1c0,0.3,0,0.7,0,1.1v0.2H207v0.4c0,0.1,0,0.1,0,0.3c0,0.2,0,0.3,0,0.5c0,0.2,0,0.3,0,0.5s0,0.3,0.1,0.5
			c0,0.1,0.1,0.3,0.1,0.4c0.1,0.1,0.1,0.2,0.2,0.3c0.1,0.1,0.2,0.1,0.4,0.1c0.2,0,0.3,0,0.4-0.1c0.1-0.1,0.2-0.2,0.3-0.3
			s0.1-0.3,0.1-0.4c0-0.1,0-0.3,0-0.5v-0.4h1.7v0.3c0,0.9-0.3,1.6-0.7,2S208.6,152.6,207.8,152.6z M207,147.5h1.7V147
			c0-0.2,0-0.4,0-0.6c0-0.2-0.1-0.3-0.1-0.5s-0.1-0.3-0.3-0.4s-0.3-0.1-0.4-0.1c-0.2,0-0.3,0-0.4,0.1c-0.1,0.1-0.2,0.2-0.3,0.4
			c-0.1,0.2-0.1,0.3-0.1,0.5c0,0.2,0,0.4,0,0.6V147.5z"/>
		<path fill="#F7EA84" d="M211.5,152.5v-11.7h1.7v11.7H211.5z"/>
		<path fill="#F7EA84" d="M217.8,152.5v-7.1H217v-1.3h0.8v-0.3c0-0.4,0-0.7,0-0.9s0.1-0.5,0.2-0.7c0.1-0.2,0.2-0.4,0.3-0.5
			s0.3-0.2,0.5-0.3c0.2-0.1,0.5-0.1,0.8-0.1c0.3,0,0.6,0,1,0.1v1.2c0,0-0.1,0-0.3,0c-0.1,0-0.2,0-0.3,0c-0.3,0-0.5,0.1-0.6,0.3
			c-0.1,0.2-0.1,0.4-0.1,0.8v0.6h1.3v1.3h-1.3v7.1H217.8z"/>
		<path fill="#F7EA84" d="M221.5,152.5v-11.7h1.7v11.7H221.5z"/>
		<path fill="#F7EA84" d="M224.7,142.9v-1.7h1.7v1.7H224.7z M224.7,152.5v-8.3h1.7v8.3H224.7z"/>
		<path fill="#F7EA84" d="M230.6,155c-0.2,0-0.4,0-0.5,0c-0.1,0-0.3,0-0.5,0s-0.4,0-0.6,0c-0.2,0-0.3-0.1-0.5-0.1
			c-0.2,0-0.4-0.1-0.5-0.1c-0.1-0.1-0.3-0.1-0.4-0.2c-0.1-0.1-0.2-0.2-0.3-0.3c-0.1-0.1-0.1-0.3-0.1-0.4c0-0.4,0.1-0.8,0.3-1.1
			c0.2-0.3,0.5-0.6,0.9-0.7c-0.2-0.1-0.4-0.2-0.6-0.3s-0.2-0.3-0.2-0.5c0-0.1,0-0.2,0-0.2c0-0.1,0-0.2,0.1-0.2
			c0-0.1,0.1-0.1,0.1-0.2c0-0.1,0.1-0.2,0.1-0.2s0.1-0.1,0.1-0.2s0.1-0.1,0.1-0.2c0,0,0.1-0.1,0.1-0.2c0.1-0.1,0.1-0.1,0.1-0.1
			c-0.6-0.7-0.8-1.5-0.8-2.5c0-0.6,0.1-1.1,0.3-1.5c0.2-0.5,0.5-0.8,0.9-1.1c0.4-0.3,0.8-0.4,1.4-0.4c0.3,0,0.6,0,0.8,0.1
			c0.2,0.1,0.4,0.2,0.6,0.3c0.1,0.1,0.3,0.3,0.4,0.5c0.3-0.6,0.8-0.9,1.4-1c0,0,0,0,0,0c0,0,0,0,0,0s0,0,0,0v1.4c0,0-0.1,0-0.1,0
			c-0.2,0-0.3,0-0.4,0c-0.1,0-0.2,0-0.3,0.1c-0.1,0-0.2,0.1-0.3,0.2c0.1,0.2,0.1,0.4,0.2,0.7c0.1,0.3,0.1,0.5,0.1,0.8
			c0,0.6-0.1,1.1-0.3,1.5s-0.5,0.8-0.8,1.1c-0.4,0.3-0.8,0.4-1.4,0.4l-0.8-0.1c0,0,0,0.1-0.1,0.1c0,0.1-0.1,0.1-0.1,0.1
			c0,0,0,0.1-0.1,0.1c0,0.1,0,0.1,0,0.2c0,0.1,0.1,0.2,0.2,0.3c0.1,0.1,0.3,0.1,0.4,0.2s0.4,0.1,0.6,0.1c0.2,0,0.4,0,0.6,0
			c0.2,0,0.4,0,0.4,0c0.2,0,0.5,0.1,0.7,0.1c0.2,0,0.4,0.1,0.6,0.2c0.2,0.1,0.4,0.2,0.5,0.3c0.1,0.1,0.2,0.3,0.3,0.5
			c0.1,0.2,0.1,0.4,0.1,0.7c0,0.3-0.1,0.6-0.2,0.8c-0.1,0.2-0.2,0.4-0.4,0.6c-0.2,0.2-0.4,0.3-0.6,0.4c-0.3,0.1-0.5,0.2-0.8,0.2
			C231.3,154.9,231,155,230.6,155z M230.6,153.7c0.1,0,0.2,0,0.3,0s0.2,0,0.3,0c0.1,0,0.2,0,0.3-0.1s0.2-0.1,0.3-0.1
			c0.1,0,0.1-0.1,0.2-0.2c0-0.1,0.1-0.2,0.1-0.2c0-0.5-0.4-0.7-1.3-0.9l-1.4-0.2c-0.2,0.1-0.3,0.3-0.4,0.5c-0.1,0.2-0.2,0.5-0.2,0.7
			c0,0.1,0,0.1,0.1,0.2c0,0,0.1,0.1,0.2,0.1c0.1,0,0.2,0,0.3,0.1s0.2,0,0.3,0c0.1,0,0.2,0,0.3,0s0.2,0,0.3,0
			C230.5,153.7,230.6,153.7,230.6,153.7z M230.2,148.8c0.7,0,1-0.6,1-1.8c0-0.2,0-0.5,0-0.7c0-0.2-0.1-0.4-0.2-0.6s-0.2-0.3-0.3-0.5
			c-0.1-0.1-0.3-0.2-0.5-0.2c-0.2,0-0.4,0.1-0.5,0.2c-0.1,0.1-0.3,0.3-0.3,0.5c-0.1,0.2-0.1,0.4-0.2,0.6c0,0.2,0,0.4,0,0.7
			C229.2,148.2,229.5,148.8,230.2,148.8z"/>
		<path fill="#F7EA84" d="M234,152.5v-11.7h1.7v4.2c0.2-0.2,0.4-0.4,0.6-0.5c0.2-0.1,0.4-0.2,0.6-0.3c0.3-0.1,0.6-0.2,0.9-0.2
			c0.4,0,0.6,0.1,0.9,0.4c0.2,0.3,0.3,0.6,0.3,1v7.1h-1.7v-6.3c0-0.3,0-0.5-0.1-0.6c-0.1-0.1-0.2-0.2-0.5-0.2
			c-0.3,0-0.7,0.2-1.1,0.5v6.6H234z"/>
		<path fill="#F7EA84" d="M242.8,152.6c-0.7,0-1.1-0.2-1.4-0.5c-0.3-0.3-0.5-0.8-0.5-1.5v-5.2h-0.8v-1.3h0.8v-2.9h1.7v2.9h1.3v1.3
			h-1.3v4.9c0,0.3,0,0.6,0.1,0.7c0.1,0.2,0.3,0.2,0.6,0.2c0.1,0,0.3,0,0.6-0.1v1.4C243.4,152.6,243.1,152.6,242.8,152.6z"/>
	</g>
	<g>
		<rect x="173.3" y="184.5" fill="none" width="124.2" height="32.3"/>
		<path fill="#F7EA84" d="M174.2,196.2v-11.7h4.6v1.2h-2.9v3.8h2.1v1.3h-2.1v5.4H174.2z"/>
		<path fill="#F7EA84" d="M180.7,196.3c-0.5,0-0.9-0.2-1.2-0.6c-0.3-0.4-0.5-0.9-0.5-1.4c0-0.4,0.1-0.8,0.2-1.1
			c0.1-0.3,0.3-0.6,0.4-0.8c0.2-0.2,0.4-0.4,0.8-0.6c0.4-0.2,0.6-0.4,0.8-0.4c0.2-0.1,0.5-0.2,1-0.4c0.1,0,0.1-0.1,0.2-0.1v-0.6
			c0-0.4-0.1-0.7-0.2-1s-0.3-0.3-0.7-0.3c-0.3,0-0.5,0.1-0.6,0.3c-0.1,0.2-0.2,0.5-0.2,0.8c0,0,0,0.1,0,0.2h-1.7
			c0-0.8,0.2-1.4,0.7-1.9s1-0.7,1.8-0.7c0.8,0,1.4,0.2,1.8,0.7c0.4,0.5,0.7,1.1,0.7,1.9v3.8c0,0.9,0.1,1.6,0.2,2.1h-1.7l-0.2-1.2
			c-0.1,0.2-0.2,0.3-0.2,0.4c-0.1,0.1-0.1,0.2-0.2,0.4c-0.1,0.1-0.2,0.2-0.3,0.3c-0.1,0.1-0.2,0.1-0.4,0.2
			C181.1,196.3,180.9,196.3,180.7,196.3z M181.6,194.9c0.1,0,0.2,0,0.3-0.1s0.2-0.1,0.3-0.2c0.1-0.1,0.1-0.2,0.2-0.3c0,0,0,0,0,0
			V192c-0.1,0-0.2,0.1-0.3,0.2s-0.3,0.2-0.4,0.2c-0.1,0.1-0.2,0.1-0.3,0.3c-0.1,0.1-0.2,0.2-0.3,0.3c-0.1,0.1-0.1,0.2-0.2,0.4
			s-0.1,0.3-0.1,0.5C180.7,194.6,181,194.9,181.6,194.9z"/>
		<path fill="#F7EA84" d="M187.7,196.3c-0.7,0-1.2-0.2-1.7-0.6s-0.7-0.9-0.9-1.6l1.3-0.4c0.3,0.8,0.7,1.3,1.3,1.3
			c0.3,0,0.5-0.1,0.6-0.2s0.2-0.4,0.2-0.6c0-0.4-0.1-0.7-0.4-1l-1.7-1.2c-0.2-0.1-0.3-0.2-0.5-0.4c-0.1-0.1-0.3-0.2-0.4-0.4
			c-0.1-0.2-0.2-0.3-0.3-0.5c-0.1-0.2-0.1-0.4-0.1-0.7c0-0.7,0.2-1.3,0.7-1.6s1.1-0.6,1.8-0.6c0.4,0,0.7,0.1,1,0.2
			c0.3,0.1,0.5,0.3,0.7,0.5c0.2,0.2,0.4,0.4,0.5,0.7s0.2,0.5,0.3,0.8l-1.2,0.4c-0.1-0.2-0.1-0.3-0.2-0.4c-0.1-0.1-0.1-0.2-0.2-0.4
			c-0.1-0.1-0.2-0.2-0.4-0.3c-0.1-0.1-0.3-0.1-0.5-0.1c-0.3,0-0.5,0.1-0.6,0.2s-0.2,0.4-0.2,0.6c0,0.3,0.1,0.5,0.4,0.7l1.7,1.3
			c0.2,0.1,0.3,0.3,0.5,0.4c0.1,0.1,0.3,0.3,0.4,0.5c0.1,0.2,0.2,0.4,0.3,0.6c0.1,0.2,0.1,0.5,0.1,0.7c0,0.7-0.2,1.3-0.7,1.6
			C189.1,196.1,188.5,196.3,187.7,196.3z"/>
		<path fill="#F7EA84" d="M193.5,196.3c-0.7,0-1.1-0.2-1.4-0.5c-0.3-0.3-0.5-0.8-0.5-1.5v-5.2h-0.8v-1.2h0.8v-2.9h1.7v2.9h1.3v1.2
			h-1.3v4.9c0,0.3,0,0.6,0.1,0.7c0.1,0.2,0.3,0.2,0.6,0.2c0.1,0,0.3,0,0.6-0.1v1.4C194.1,196.3,193.8,196.3,193.5,196.3z"/>
		<path fill="#F7EA84" d="M198.1,196.3c-0.4,0-0.8-0.1-1.1-0.2c-0.3-0.1-0.5-0.3-0.7-0.5s-0.3-0.5-0.4-0.9c-0.1-0.3-0.2-0.7-0.2-1
			s-0.1-0.8-0.1-1.2c0-0.4,0-0.7,0-1.1c0-0.4,0-0.8,0.1-1.2c0-0.3,0.1-0.7,0.2-1c0.1-0.3,0.3-0.6,0.4-0.8s0.4-0.4,0.7-0.5
			c0.3-0.1,0.6-0.2,1-0.2c0.4,0,0.7,0,0.9,0.1c0.3,0.1,0.5,0.2,0.7,0.4c0.2,0.2,0.3,0.4,0.4,0.6c0.1,0.2,0.2,0.5,0.3,0.8
			c0.1,0.3,0.1,0.7,0.1,1c0,0.3,0,0.7,0,1.1v0.2h-3.3v0.4c0,0.1,0,0.1,0,0.3c0,0.2,0,0.3,0,0.5c0,0.2,0,0.3,0,0.5s0,0.3,0.1,0.5
			c0,0.1,0.1,0.3,0.1,0.4c0.1,0.1,0.1,0.2,0.2,0.3c0.1,0.1,0.2,0.1,0.4,0.1c0.2,0,0.3,0,0.4-0.1c0.1-0.1,0.2-0.2,0.3-0.3
			s0.1-0.3,0.1-0.4c0-0.1,0-0.3,0-0.5v-0.4h1.7v0.3c0,0.9-0.3,1.6-0.7,2S198.9,196.3,198.1,196.3z M197.3,191.2h1.7v-0.5
			c0-0.2,0-0.4,0-0.6c0-0.2-0.1-0.3-0.1-0.5s-0.1-0.3-0.3-0.4s-0.3-0.1-0.4-0.1c-0.2,0-0.3,0-0.4,0.1c-0.1,0.1-0.2,0.2-0.3,0.4
			c-0.1,0.2-0.1,0.3-0.1,0.5c0,0.2,0,0.4,0,0.6V191.2z"/>
		<path fill="#F7EA84" d="M204,196.3c-0.7,0-1.2-0.2-1.7-0.6s-0.7-0.9-0.9-1.6l1.3-0.4c0.3,0.8,0.7,1.3,1.3,1.3
			c0.3,0,0.5-0.1,0.6-0.2s0.2-0.4,0.2-0.6c0-0.4-0.1-0.7-0.4-1l-1.7-1.2c-0.2-0.1-0.3-0.2-0.5-0.4c-0.1-0.1-0.3-0.2-0.4-0.4
			c-0.1-0.2-0.2-0.3-0.3-0.5c-0.1-0.2-0.1-0.4-0.1-0.7c0-0.7,0.2-1.3,0.7-1.6s1.1-0.6,1.8-0.6c0.4,0,0.7,0.1,1,0.2
			c0.3,0.1,0.5,0.3,0.7,0.5c0.2,0.2,0.4,0.4,0.5,0.7s0.2,0.5,0.3,0.8l-1.2,0.4c-0.1-0.2-0.1-0.3-0.2-0.4c-0.1-0.1-0.1-0.2-0.2-0.4
			c-0.1-0.1-0.2-0.2-0.4-0.3c-0.1-0.1-0.3-0.1-0.5-0.1c-0.3,0-0.5,0.1-0.6,0.2s-0.2,0.4-0.2,0.6c0,0.3,0.1,0.5,0.4,0.7l1.7,1.3
			c0.2,0.1,0.3,0.3,0.5,0.4c0.1,0.1,0.3,0.3,0.4,0.5c0.1,0.2,0.2,0.4,0.3,0.6c0.1,0.2,0.1,0.5,0.1,0.7c0,0.7-0.2,1.3-0.7,1.6
			C205.4,196.1,204.8,196.3,204,196.3z"/>
		<path fill="#F7EA84" d="M209.8,196.3c-0.7,0-1.1-0.2-1.4-0.5c-0.3-0.3-0.5-0.8-0.5-1.5v-5.2h-0.8v-1.2h0.8v-2.9h1.7v2.9h1.3v1.2
			h-1.3v4.9c0,0.3,0,0.6,0.1,0.7c0.1,0.2,0.3,0.2,0.6,0.2c0.1,0,0.3,0,0.6-0.1v1.4C210.4,196.3,210.1,196.3,209.8,196.3z"/>
		<path fill="#F7EA84" d="M214.8,196.2v-8.3h1.7v1.1c0.2-0.3,0.4-0.6,0.7-0.9c0.3-0.2,0.7-0.4,1.1-0.4c0,0,0.1,0,0.3,0v1.8
			c-0.3-0.1-0.6-0.2-0.9-0.2c-0.3,0-0.6,0.1-0.8,0.3c-0.2,0.2-0.3,0.5-0.3,0.8v5.6H214.8z"/>
		<path fill="#F7EA84" d="M220.5,196.3c-0.4,0-0.7-0.1-0.9-0.4c-0.2-0.3-0.3-0.6-0.3-1v-7.1h1.7v6.6c0,0.2,0.1,0.3,0.2,0.4
			c0.1,0.1,0.2,0.2,0.4,0.2c0.1,0,0.2,0,0.3,0c0.1,0,0.2-0.1,0.3-0.1c0.1-0.1,0.2-0.1,0.2-0.1c0,0,0.1-0.1,0.2-0.2s0.1-0.1,0.2-0.1
			v-6.6h1.7v8.3h-1.7v-0.9c-0.2,0.1-0.3,0.2-0.4,0.3c-0.1,0.1-0.2,0.2-0.3,0.3c-0.2,0.1-0.3,0.2-0.4,0.2c-0.1,0-0.3,0.1-0.4,0.1
			C220.9,196.3,220.7,196.3,220.5,196.3z"/>
		<path fill="#F7EA84" d="M225.7,196.2v-8.3h1.7v0.9c0.2-0.2,0.4-0.4,0.6-0.5c0.2-0.1,0.4-0.2,0.6-0.3c0.3-0.1,0.6-0.2,0.9-0.2
			c0.4,0,0.6,0.1,0.9,0.4c0.2,0.3,0.3,0.6,0.3,1v7.1h-1.7v-6.3c0-0.3,0-0.5-0.1-0.6s-0.2-0.2-0.5-0.2c-0.1,0-0.3,0-0.4,0.1
			c-0.1,0.1-0.2,0.1-0.3,0.2s-0.2,0.1-0.3,0.2v6.6H225.7z"/>
		<path fill="#F7EA84" d="M232.2,196.2v-8.3h1.7v0.9c0.2-0.2,0.4-0.4,0.6-0.5c0.2-0.1,0.4-0.2,0.6-0.3c0.3-0.1,0.6-0.2,0.9-0.2
			c0.4,0,0.6,0.1,0.9,0.4c0.2,0.3,0.3,0.6,0.3,1v7.1h-1.7v-6.3c0-0.3,0-0.5-0.1-0.6s-0.2-0.2-0.5-0.2c-0.1,0-0.3,0-0.4,0.1
			c-0.1,0.1-0.2,0.1-0.3,0.2s-0.2,0.1-0.3,0.2v6.6H232.2z"/>
		<path fill="#F7EA84" d="M238.7,186.6v-1.7h1.7v1.7H238.7z M238.7,196.2v-8.3h1.7v8.3H238.7z"/>
		<path fill="#F7EA84" d="M242,196.2v-8.3h1.7v0.9c0.2-0.2,0.4-0.4,0.6-0.5c0.2-0.1,0.4-0.2,0.6-0.3c0.3-0.1,0.6-0.2,0.9-0.2
			c0.4,0,0.6,0.1,0.9,0.4c0.2,0.3,0.3,0.6,0.3,1v7.1h-1.7v-6.3c0-0.3,0-0.5-0.1-0.6s-0.2-0.2-0.5-0.2c-0.1,0-0.3,0-0.4,0.1
			c-0.1,0.1-0.2,0.1-0.3,0.2s-0.2,0.1-0.3,0.2v6.6H242z"/>
		<path fill="#F7EA84" d="M251.1,198.7c-0.2,0-0.4,0-0.5,0c-0.1,0-0.3,0-0.5,0s-0.4,0-0.6,0c-0.2,0-0.3-0.1-0.5-0.1
			c-0.2,0-0.4-0.1-0.5-0.1c-0.1-0.1-0.3-0.1-0.4-0.2c-0.1-0.1-0.2-0.2-0.3-0.3c-0.1-0.1-0.1-0.3-0.1-0.4c0-0.4,0.1-0.8,0.3-1.1
			c0.2-0.3,0.5-0.6,0.9-0.7c-0.2-0.1-0.4-0.2-0.6-0.3s-0.2-0.3-0.2-0.5c0-0.1,0-0.2,0-0.2c0-0.1,0-0.2,0.1-0.2
			c0-0.1,0.1-0.1,0.1-0.2c0-0.1,0.1-0.2,0.1-0.2s0.1-0.1,0.1-0.2s0.1-0.1,0.1-0.2c0,0,0.1-0.1,0.1-0.2c0.1-0.1,0.1-0.1,0.1-0.1
			c-0.6-0.7-0.8-1.5-0.8-2.5c0-0.6,0.1-1.1,0.3-1.5c0.2-0.5,0.5-0.8,0.9-1.1s0.8-0.4,1.4-0.4c0.3,0,0.6,0,0.8,0.1
			c0.2,0.1,0.4,0.2,0.6,0.3c0.1,0.1,0.3,0.3,0.4,0.5c0.3-0.6,0.8-0.9,1.4-1c0,0,0,0,0,0c0,0,0,0,0,0s0,0,0,0v1.4c0,0-0.1,0-0.1,0
			c-0.2,0-0.3,0-0.4,0c-0.1,0-0.2,0-0.3,0.1c-0.1,0-0.2,0.1-0.3,0.2c0.1,0.2,0.1,0.4,0.2,0.7s0.1,0.5,0.1,0.8c0,0.6-0.1,1.1-0.3,1.5
			s-0.5,0.8-0.8,1.1c-0.4,0.3-0.8,0.4-1.4,0.4l-0.8-0.1c0,0,0,0.1-0.1,0.1c0,0.1-0.1,0.1-0.1,0.1c0,0,0,0.1-0.1,0.1
			c0,0.1,0,0.1,0,0.2c0,0.1,0.1,0.2,0.2,0.3c0.1,0.1,0.3,0.1,0.4,0.2s0.4,0.1,0.6,0.1c0.2,0,0.4,0,0.6,0c0.2,0,0.4,0,0.4,0
			c0.2,0,0.5,0.1,0.7,0.1c0.2,0,0.4,0.1,0.6,0.2c0.2,0.1,0.4,0.2,0.5,0.3c0.1,0.1,0.2,0.3,0.3,0.5c0.1,0.2,0.1,0.4,0.1,0.7
			c0,0.3-0.1,0.6-0.2,0.8c-0.1,0.2-0.2,0.4-0.4,0.6c-0.2,0.2-0.4,0.3-0.6,0.4c-0.3,0.1-0.5,0.2-0.8,0.2
			C251.7,198.7,251.4,198.7,251.1,198.7z M251.1,197.5c0.1,0,0.2,0,0.3,0s0.2,0,0.3,0c0.1,0,0.2,0,0.3-0.1s0.2-0.1,0.3-0.1
			c0.1,0,0.1-0.1,0.2-0.2c0-0.1,0.1-0.2,0.1-0.2c0-0.5-0.4-0.7-1.3-0.9l-1.4-0.2c-0.2,0.1-0.3,0.3-0.4,0.5c-0.1,0.2-0.2,0.5-0.2,0.7
			c0,0.1,0,0.1,0.1,0.2c0,0,0.1,0.1,0.2,0.1c0.1,0,0.2,0,0.3,0.1s0.2,0,0.3,0c0.1,0,0.2,0,0.3,0s0.2,0,0.3,0
			C250.9,197.5,251,197.5,251.1,197.5z M250.7,192.6c0.7,0,1-0.6,1-1.8c0-0.2,0-0.5,0-0.7s-0.1-0.4-0.2-0.6s-0.2-0.3-0.3-0.5
			c-0.1-0.1-0.3-0.2-0.5-0.2c-0.2,0-0.4,0.1-0.5,0.2c-0.1,0.1-0.3,0.3-0.3,0.5c-0.1,0.2-0.1,0.4-0.2,0.6s0,0.4,0,0.7
			C249.6,192,250,192.6,250.7,192.6z"/>
		<path fill="#F7EA84" d="M258.6,196.3c-0.5,0-0.9-0.2-1.2-0.6c-0.3-0.4-0.5-0.9-0.5-1.4c0-0.4,0.1-0.8,0.2-1.1
			c0.1-0.3,0.3-0.6,0.4-0.8c0.2-0.2,0.4-0.4,0.8-0.6c0.4-0.2,0.6-0.4,0.8-0.4s0.5-0.2,1-0.4c0.1,0,0.1-0.1,0.2-0.1v-0.6
			c0-0.4-0.1-0.7-0.2-1c-0.1-0.2-0.3-0.3-0.7-0.3c-0.3,0-0.5,0.1-0.6,0.3c-0.1,0.2-0.2,0.5-0.2,0.8c0,0,0,0.1,0,0.2H257
			c0-0.8,0.2-1.4,0.7-1.9s1-0.7,1.8-0.7c0.8,0,1.4,0.2,1.8,0.7s0.7,1.1,0.7,1.9v3.8c0,0.9,0.1,1.6,0.2,2.1h-1.7l-0.2-1.2
			c-0.1,0.2-0.2,0.3-0.2,0.4c-0.1,0.1-0.1,0.2-0.2,0.4c-0.1,0.1-0.2,0.2-0.3,0.3c-0.1,0.1-0.2,0.1-0.4,0.2
			C259,196.3,258.8,196.3,258.6,196.3z M259.5,194.9c0.1,0,0.2,0,0.3-0.1s0.2-0.1,0.3-0.2s0.1-0.2,0.2-0.3c0,0,0,0,0,0V192
			c-0.1,0-0.2,0.1-0.3,0.2c-0.2,0.1-0.3,0.2-0.4,0.2c-0.1,0.1-0.2,0.1-0.3,0.3c-0.1,0.1-0.2,0.2-0.3,0.3c-0.1,0.1-0.1,0.2-0.2,0.4
			s-0.1,0.3-0.1,0.5C258.6,194.6,258.9,194.9,259.5,194.9z"/>
		<path fill="#F7EA84" d="M263.4,196.2v-8.3h1.7v0.9c0.2-0.2,0.5-0.4,0.6-0.5c0.2-0.1,0.4-0.2,0.6-0.3c0.3-0.1,0.6-0.2,0.9-0.2
			c0.4,0,0.6,0.1,0.9,0.4c0.2,0.3,0.3,0.6,0.3,1v7.1h-1.7v-6.3c0-0.3,0-0.5-0.1-0.6c-0.1-0.1-0.2-0.2-0.5-0.2c-0.1,0-0.3,0-0.4,0.1
			c-0.1,0.1-0.2,0.1-0.3,0.2s-0.2,0.1-0.3,0.2v6.6H263.4z"/>
		<path fill="#F7EA84" d="M269.9,186.6v-1.7h1.7v1.7H269.9z M269.9,196.2v-8.3h1.7v8.3H269.9z"/>
		<path fill="#F7EA84" d="M273.2,196.2v-8.3h1.7v0.9c0.6-0.7,1.3-1.1,2.1-1.1c0.4,0,0.7,0.1,0.9,0.3s0.3,0.5,0.4,0.8
			c0.3-0.4,0.6-0.6,0.9-0.8c0.3-0.2,0.7-0.3,1.2-0.3c0.1,0,0.3,0,0.4,0c0.1,0,0.2,0.1,0.3,0.1c0.1,0,0.2,0.1,0.2,0.2
			c0.1,0.1,0.1,0.2,0.2,0.2c0,0.1,0.1,0.2,0.1,0.3s0,0.2,0.1,0.3c0,0.1,0,0.2,0,0.4c0,0.2,0,0.3,0,0.4s0,0.2,0,0.4c0,0,0,0.1,0,0.1
			v6.1h-1.7v-6.1c0,0,0-0.1,0-0.1c0-0.1,0-0.3,0-0.3c0-0.1,0-0.2,0-0.3c0-0.1-0.1-0.2-0.1-0.2s-0.1-0.1-0.2-0.1
			c-0.2,0-0.3,0-0.5,0.1s-0.3,0.1-0.4,0.2c-0.1,0.1-0.2,0.2-0.3,0.3v6.5h-1.7v-6c0,0,0-0.1,0-0.1c0-0.1,0-0.2,0-0.3
			c0-0.1,0-0.1,0-0.2c0-0.1,0-0.2-0.1-0.2s-0.1-0.1-0.1-0.1c-0.1,0-0.1-0.1-0.2-0.1c-0.4,0-0.8,0.2-1.3,0.5v6.6H273.2z"/>
		<path fill="#F7EA84" d="M284.4,196.3c-0.5,0-0.9-0.2-1.2-0.6s-0.5-0.9-0.5-1.4c0-0.4,0.1-0.8,0.2-1.1s0.3-0.6,0.4-0.8
			c0.2-0.2,0.4-0.4,0.8-0.6c0.4-0.2,0.6-0.4,0.8-0.4s0.5-0.2,1-0.4c0.1,0,0.1-0.1,0.2-0.1v-0.6c0-0.4-0.1-0.7-0.2-1
			c-0.1-0.2-0.3-0.3-0.7-0.3c-0.3,0-0.5,0.1-0.6,0.3c-0.1,0.2-0.2,0.5-0.2,0.8c0,0,0,0.1,0,0.2h-1.7c0-0.8,0.2-1.4,0.7-1.9
			s1-0.7,1.8-0.7c0.8,0,1.4,0.2,1.8,0.7s0.7,1.1,0.7,1.9v3.8c0,0.9,0.1,1.6,0.2,2.1h-1.7l-0.2-1.2c-0.1,0.2-0.2,0.3-0.2,0.4
			c-0.1,0.1-0.1,0.2-0.2,0.4c-0.1,0.1-0.2,0.2-0.3,0.3c-0.1,0.1-0.2,0.1-0.4,0.2C284.8,196.3,284.6,196.3,284.4,196.3z M285.3,194.9
			c0.1,0,0.2,0,0.3-0.1s0.2-0.1,0.3-0.2s0.1-0.2,0.2-0.3c0,0,0,0,0,0V192c-0.1,0-0.2,0.1-0.3,0.2c-0.2,0.1-0.3,0.2-0.4,0.2
			c-0.1,0.1-0.2,0.1-0.3,0.3c-0.1,0.1-0.2,0.2-0.3,0.3c-0.1,0.1-0.1,0.2-0.2,0.4s-0.1,0.3-0.1,0.5
			C284.4,194.6,284.7,194.9,285.3,194.9z"/>
		<path fill="#F7EA84" d="M289.2,196.2v-11.7h1.7v11.7H289.2z"/>
		<path fill="#F7EA84" d="M174.2,201.3v-1.7h1.7v1.7H174.2z M174.2,210.9v-8.3h1.7v8.3H174.2z"/>
		<path fill="#F7EA84" d="M179.6,211c-0.7,0-1.2-0.2-1.7-0.6s-0.7-0.9-0.9-1.6l1.3-0.4c0.3,0.8,0.7,1.3,1.3,1.3
			c0.3,0,0.5-0.1,0.6-0.2s0.2-0.4,0.2-0.6c0-0.4-0.1-0.7-0.4-1l-1.7-1.2c-0.2-0.1-0.3-0.2-0.5-0.4c-0.1-0.1-0.3-0.2-0.4-0.4
			c-0.1-0.2-0.2-0.3-0.3-0.5c-0.1-0.2-0.1-0.4-0.1-0.7c0-0.7,0.2-1.3,0.7-1.6s1.1-0.6,1.8-0.6c0.4,0,0.7,0.1,1,0.2
			c0.3,0.1,0.5,0.3,0.7,0.5c0.2,0.2,0.4,0.4,0.5,0.7s0.2,0.5,0.3,0.8l-1.2,0.4c-0.1-0.2-0.1-0.3-0.2-0.4c-0.1-0.1-0.1-0.2-0.2-0.4
			c-0.1-0.1-0.2-0.2-0.4-0.3c-0.1-0.1-0.3-0.1-0.5-0.1c-0.3,0-0.5,0.1-0.6,0.2s-0.2,0.4-0.2,0.6c0,0.3,0.1,0.5,0.4,0.7l1.7,1.3
			c0.2,0.1,0.3,0.3,0.5,0.4c0.1,0.1,0.3,0.3,0.4,0.5c0.1,0.2,0.2,0.4,0.3,0.6c0.1,0.2,0.1,0.5,0.1,0.7c0,0.7-0.2,1.3-0.7,1.6
			C181,210.8,180.4,211,179.6,211z"/>
		<path fill="#F7EA84" d="M187.3,211c-0.5,0-0.9-0.2-1.2-0.6c-0.3-0.4-0.5-0.9-0.5-1.4c0-0.4,0.1-0.8,0.2-1.1
			c0.1-0.3,0.3-0.6,0.4-0.8c0.2-0.2,0.4-0.4,0.8-0.6c0.4-0.2,0.6-0.4,0.8-0.4c0.2-0.1,0.5-0.2,1-0.4c0.1,0,0.1-0.1,0.2-0.1V205
			c0-0.4-0.1-0.7-0.2-1s-0.3-0.3-0.7-0.3c-0.3,0-0.5,0.1-0.6,0.3c-0.1,0.2-0.2,0.5-0.2,0.8c0,0,0,0.1,0,0.2h-1.7
			c0-0.8,0.2-1.4,0.7-1.9s1-0.7,1.8-0.7c0.8,0,1.4,0.2,1.8,0.7c0.4,0.5,0.7,1.1,0.7,1.9v3.8c0,0.9,0.1,1.6,0.2,2.1h-1.7l-0.2-1.2
			c-0.1,0.2-0.2,0.3-0.2,0.4c-0.1,0.1-0.1,0.2-0.2,0.4c-0.1,0.1-0.2,0.2-0.3,0.3c-0.1,0.1-0.2,0.1-0.4,0.2
			C187.7,211,187.5,211,187.3,211z M188.1,209.6c0.1,0,0.2,0,0.3-0.1s0.2-0.1,0.3-0.2c0.1-0.1,0.1-0.2,0.2-0.3c0,0,0,0,0,0v-2.3
			c-0.1,0-0.2,0.1-0.3,0.2s-0.3,0.2-0.4,0.2c-0.1,0.1-0.2,0.1-0.3,0.3c-0.1,0.1-0.2,0.2-0.3,0.3c-0.1,0.1-0.1,0.2-0.2,0.4
			s-0.1,0.3-0.1,0.5C187.3,209.3,187.6,209.6,188.1,209.6z"/>
		<path fill="#F7EA84" d="M196.9,211c-0.4,0-0.8-0.1-1.1-0.2c-0.3-0.1-0.5-0.3-0.7-0.5c-0.2-0.2-0.3-0.5-0.4-0.8
			c-0.1-0.3-0.2-0.7-0.2-1c0-0.3-0.1-0.7-0.1-1.2c0-0.4,0-0.7,0-1.1c0-0.4,0-0.8,0.1-1.2c0-0.3,0.1-0.7,0.2-1
			c0.1-0.3,0.3-0.6,0.4-0.8s0.4-0.4,0.7-0.5s0.6-0.2,1.1-0.2c0.9,0,1.5,0.2,1.9,0.7c0.4,0.5,0.6,1.2,0.6,2.1v0.2h-1.7v-0.2
			c0-0.2,0-0.4,0-0.5s-0.1-0.3-0.1-0.5s-0.1-0.3-0.3-0.4c-0.1-0.1-0.3-0.1-0.4-0.1s-0.3,0-0.4,0.1s-0.2,0.2-0.3,0.4
			c-0.1,0.2-0.1,0.4-0.1,0.6s0,0.4,0,0.7c0,0.5,0,1.3,0,2.4c0,0.2,0,0.4,0.1,0.6c0,0.2,0.1,0.4,0.1,0.5s0.1,0.3,0.3,0.4
			c0.1,0.1,0.2,0.1,0.4,0.1c0.1,0,0.3,0,0.4-0.1c0.1-0.1,0.2-0.1,0.2-0.2c0.1-0.1,0.1-0.2,0.1-0.3c0-0.1,0.1-0.3,0.1-0.4
			c0-0.1,0-0.3,0-0.5V208h1.7v0.2c0,0.4-0.1,0.8-0.2,1.2c-0.1,0.3-0.2,0.6-0.4,0.9c-0.2,0.3-0.4,0.4-0.8,0.6
			C197.7,210.9,197.3,211,196.9,211z"/>
		<path fill="#F7EA84" d="M200.4,210.9v-11.7h1.7v4.2c0.2-0.2,0.4-0.4,0.6-0.5c0.2-0.1,0.4-0.2,0.6-0.3c0.3-0.1,0.6-0.2,0.9-0.2
			c0.4,0,0.6,0.1,0.9,0.4c0.2,0.3,0.3,0.6,0.3,1v7.1h-1.7v-6.3c0-0.3,0-0.5-0.1-0.6s-0.2-0.2-0.5-0.2c-0.3,0-0.7,0.2-1.1,0.5v6.6
			H200.4z"/>
		<path fill="#F7EA84" d="M209.2,211c-0.4,0-0.8-0.1-1.1-0.2c-0.3-0.1-0.5-0.3-0.7-0.5s-0.3-0.5-0.4-0.9c-0.1-0.3-0.2-0.7-0.2-1
			s-0.1-0.8-0.1-1.2c0-0.4,0-0.7,0-1.1c0-0.4,0-0.8,0.1-1.2c0-0.3,0.1-0.7,0.2-1c0.1-0.3,0.3-0.6,0.4-0.8s0.4-0.4,0.7-0.5
			c0.3-0.1,0.6-0.2,1-0.2c0.4,0,0.7,0,0.9,0.1c0.3,0.1,0.5,0.2,0.7,0.4c0.2,0.2,0.3,0.4,0.4,0.6c0.1,0.2,0.2,0.5,0.3,0.8
			c0.1,0.3,0.1,0.7,0.1,1c0,0.3,0,0.7,0,1.1v0.2h-3.3v0.4c0,0.1,0,0.1,0,0.3c0,0.2,0,0.3,0,0.5c0,0.2,0,0.3,0,0.5s0,0.3,0.1,0.5
			c0,0.1,0.1,0.3,0.1,0.4c0.1,0.1,0.1,0.2,0.2,0.3c0.1,0.1,0.2,0.1,0.4,0.1c0.2,0,0.3,0,0.4-0.1c0.1-0.1,0.2-0.2,0.3-0.3
			s0.1-0.3,0.1-0.4c0-0.1,0-0.3,0-0.5V208h1.7v0.3c0,0.9-0.3,1.6-0.7,2S210,211,209.2,211z M208.4,205.9h1.7v-0.5c0-0.2,0-0.4,0-0.6
			c0-0.2-0.1-0.3-0.1-0.5s-0.1-0.3-0.3-0.4s-0.3-0.1-0.4-0.1c-0.2,0-0.3,0-0.4,0.1c-0.1,0.1-0.2,0.2-0.3,0.4
			c-0.1,0.2-0.1,0.3-0.1,0.5c0,0.2,0,0.4,0,0.6V205.9z"/>
		<path fill="#F7EA84" d="M215.3,211c-0.4,0-0.8-0.1-1.1-0.2c-0.3-0.1-0.5-0.3-0.7-0.5s-0.3-0.5-0.4-0.9c-0.1-0.3-0.2-0.7-0.2-1
			s-0.1-0.8-0.1-1.2c0-0.4,0-0.7,0-1.1c0-0.4,0-0.8,0.1-1.2c0-0.3,0.1-0.7,0.2-1c0.1-0.3,0.3-0.6,0.4-0.8s0.4-0.4,0.7-0.5
			c0.3-0.1,0.6-0.2,1-0.2c0.4,0,0.7,0,0.9,0.1c0.3,0.1,0.5,0.2,0.7,0.4c0.2,0.2,0.3,0.4,0.4,0.6c0.1,0.2,0.2,0.5,0.3,0.8
			c0.1,0.3,0.1,0.7,0.1,1c0,0.3,0,0.7,0,1.1v0.2h-3.3v0.4c0,0.1,0,0.1,0,0.3c0,0.2,0,0.3,0,0.5c0,0.2,0,0.3,0,0.5s0,0.3,0.1,0.5
			c0,0.1,0.1,0.3,0.1,0.4c0.1,0.1,0.1,0.2,0.2,0.3c0.1,0.1,0.2,0.1,0.4,0.1c0.2,0,0.3,0,0.4-0.1c0.1-0.1,0.2-0.2,0.3-0.3
			s0.1-0.3,0.1-0.4c0-0.1,0-0.3,0-0.5V208h1.7v0.3c0,0.9-0.3,1.6-0.7,2S216.1,211,215.3,211z M214.5,205.9h1.7v-0.5
			c0-0.2,0-0.4,0-0.6c0-0.2-0.1-0.3-0.1-0.5s-0.1-0.3-0.3-0.4s-0.3-0.1-0.4-0.1c-0.2,0-0.3,0-0.4,0.1c-0.1,0.1-0.2,0.2-0.3,0.4
			c-0.1,0.2-0.1,0.3-0.1,0.5c0,0.2,0,0.4,0,0.6V205.9z"/>
		<path fill="#F7EA84" d="M221.3,211c-0.7,0-1.1-0.2-1.4-0.5c-0.3-0.3-0.5-0.8-0.5-1.5v-5.2h-0.8v-1.2h0.8v-2.9h1.7v2.9h1.3v1.2
			h-1.3v4.9c0,0.3,0,0.6,0.1,0.7c0.1,0.2,0.3,0.2,0.6,0.2c0.1,0,0.3,0,0.6-0.1v1.4C221.9,211,221.6,211,221.3,211z"/>
		<path fill="#F7EA84" d="M225,211c-0.5,0-0.9-0.2-1.2-0.6c-0.3-0.4-0.5-0.9-0.5-1.4c0-0.4,0.1-0.8,0.2-1.1c0.1-0.3,0.3-0.6,0.4-0.8
			c0.2-0.2,0.4-0.4,0.8-0.6c0.4-0.2,0.6-0.4,0.8-0.4c0.2-0.1,0.5-0.2,1-0.4c0.1,0,0.1-0.1,0.2-0.1V205c0-0.4-0.1-0.7-0.2-1
			s-0.3-0.3-0.7-0.3c-0.3,0-0.5,0.1-0.6,0.3c-0.1,0.2-0.2,0.5-0.2,0.8c0,0,0,0.1,0,0.2h-1.7c0-0.8,0.2-1.4,0.7-1.9s1-0.7,1.8-0.7
			c0.8,0,1.4,0.2,1.8,0.7c0.4,0.5,0.7,1.1,0.7,1.9v3.8c0,0.9,0.1,1.6,0.2,2.1h-1.7l-0.2-1.2c-0.1,0.2-0.2,0.3-0.2,0.4
			c-0.1,0.1-0.1,0.2-0.2,0.4c-0.1,0.1-0.2,0.2-0.3,0.3c-0.1,0.1-0.2,0.1-0.4,0.2C225.4,211,225.2,211,225,211z M225.9,209.6
			c0.1,0,0.2,0,0.3-0.1s0.2-0.1,0.3-0.2c0.1-0.1,0.1-0.2,0.2-0.3c0,0,0,0,0,0v-2.3c-0.1,0-0.2,0.1-0.3,0.2s-0.3,0.2-0.4,0.2
			c-0.1,0.1-0.2,0.1-0.3,0.3c-0.1,0.1-0.2,0.2-0.3,0.3c-0.1,0.1-0.1,0.2-0.2,0.4s-0.1,0.3-0.1,0.5
			C225,209.3,225.3,209.6,225.9,209.6z"/>
		<path fill="#F7EA84" d="M229.8,210.9v-11.7h1.7v4.2c0.2-0.2,0.4-0.4,0.6-0.5c0.2-0.1,0.4-0.2,0.6-0.3c0.3-0.1,0.6-0.2,0.9-0.2
			c0.4,0,0.6,0.1,0.9,0.4c0.2,0.3,0.3,0.6,0.3,1v7.1h-1.7v-6.3c0-0.3,0-0.5-0.1-0.6s-0.2-0.2-0.5-0.2c-0.3,0-0.7,0.2-1.1,0.5v6.6
			H229.8z"/>
	</g>
	<g>
		<rect x="160.5" y="242.6" fill="none" width="138" height="39.6"/>
		<path fill="#F7EA84" d="M161.4,254.3v-11.7h4.6v1.2H163v3.8h2.1v1.3H163v5.4H161.4z"/>
		<path fill="#F7EA84" d="M167.9,254.4c-0.5,0-0.9-0.2-1.2-0.6c-0.3-0.4-0.5-0.9-0.5-1.4c0-0.4,0.1-0.8,0.2-1.1
			c0.1-0.3,0.3-0.6,0.4-0.8c0.2-0.2,0.4-0.4,0.8-0.6c0.4-0.2,0.6-0.4,0.8-0.4c0.2-0.1,0.5-0.2,1-0.4c0.1,0,0.1-0.1,0.2-0.1v-0.6
			c0-0.4-0.1-0.7-0.2-1s-0.3-0.3-0.7-0.3c-0.3,0-0.5,0.1-0.6,0.3c-0.1,0.2-0.2,0.5-0.2,0.8c0,0,0,0.1,0,0.2h-1.7
			c0-0.8,0.2-1.4,0.7-1.9s1-0.7,1.8-0.7c0.8,0,1.4,0.2,1.8,0.7c0.4,0.5,0.7,1.1,0.7,1.9v3.8c0,0.9,0.1,1.6,0.2,2.1h-1.7l-0.2-1.2
			c-0.1,0.2-0.2,0.3-0.2,0.4c-0.1,0.1-0.1,0.2-0.2,0.4c-0.1,0.1-0.2,0.2-0.3,0.3c-0.1,0.1-0.2,0.1-0.4,0.2
			C168.3,254.4,168.1,254.4,167.9,254.4z M168.8,253c0.1,0,0.2,0,0.3-0.1s0.2-0.1,0.3-0.2c0.1-0.1,0.1-0.2,0.2-0.3c0,0,0,0,0,0v-2.3
			c-0.1,0-0.2,0.1-0.3,0.2s-0.3,0.2-0.4,0.2c-0.1,0.1-0.2,0.1-0.3,0.3c-0.1,0.1-0.2,0.2-0.3,0.3c-0.1,0.1-0.1,0.2-0.2,0.4
			s-0.1,0.3-0.1,0.5C167.9,252.7,168.2,253,168.8,253z"/>
		<path fill="#F7EA84" d="M174.9,254.4c-0.7,0-1.2-0.2-1.7-0.6s-0.7-0.9-0.9-1.6l1.3-0.4c0.3,0.8,0.7,1.3,1.3,1.3
			c0.3,0,0.5-0.1,0.6-0.2s0.2-0.4,0.2-0.6c0-0.4-0.1-0.7-0.4-1l-1.7-1.2c-0.2-0.1-0.3-0.2-0.5-0.4c-0.1-0.1-0.3-0.2-0.4-0.4
			c-0.1-0.2-0.2-0.3-0.3-0.5c-0.1-0.2-0.1-0.4-0.1-0.7c0-0.7,0.2-1.3,0.7-1.6s1.1-0.6,1.8-0.6c0.4,0,0.7,0.1,1,0.2
			c0.3,0.1,0.5,0.3,0.7,0.5c0.2,0.2,0.4,0.4,0.5,0.7s0.2,0.5,0.3,0.8l-1.2,0.4c-0.1-0.2-0.1-0.3-0.2-0.4c-0.1-0.1-0.1-0.2-0.2-0.4
			c-0.1-0.1-0.2-0.2-0.4-0.3c-0.1-0.1-0.3-0.1-0.5-0.1c-0.3,0-0.5,0.1-0.6,0.2s-0.2,0.4-0.2,0.6c0,0.3,0.1,0.5,0.4,0.7l1.7,1.3
			c0.2,0.1,0.3,0.3,0.5,0.4c0.1,0.1,0.3,0.3,0.4,0.5c0.1,0.2,0.2,0.4,0.3,0.6c0.1,0.2,0.1,0.5,0.1,0.7c0,0.7-0.2,1.3-0.7,1.6
			C176.3,254.2,175.7,254.4,174.9,254.4z"/>
		<path fill="#F7EA84" d="M180.7,254.4c-0.7,0-1.1-0.2-1.4-0.5c-0.3-0.3-0.5-0.8-0.5-1.5v-5.2H178v-1.2h0.8V243h1.7v2.9h1.3v1.2
			h-1.3v4.9c0,0.3,0,0.6,0.1,0.7c0.1,0.2,0.3,0.2,0.6,0.2c0.1,0,0.3,0,0.6-0.1v1.4C181.3,254.4,181,254.4,180.7,254.4z"/>
		<path fill="#F7EA84" d="M185.3,254.4c-0.4,0-0.8-0.1-1.1-0.2c-0.3-0.1-0.5-0.3-0.7-0.5s-0.3-0.5-0.4-0.9c-0.1-0.3-0.2-0.7-0.2-1
			s-0.1-0.8-0.1-1.2c0-0.4,0-0.7,0-1.1c0-0.4,0-0.8,0.1-1.2c0-0.3,0.1-0.7,0.2-1c0.1-0.3,0.3-0.6,0.4-0.8s0.4-0.4,0.7-0.5
			c0.3-0.1,0.6-0.2,1-0.2c0.4,0,0.7,0,0.9,0.1c0.3,0.1,0.5,0.2,0.7,0.4c0.2,0.2,0.3,0.4,0.4,0.6c0.1,0.2,0.2,0.5,0.3,0.8
			c0.1,0.3,0.1,0.7,0.1,1c0,0.3,0,0.7,0,1.1v0.2h-3.3v0.4c0,0.1,0,0.1,0,0.3c0,0.2,0,0.3,0,0.5c0,0.2,0,0.3,0,0.5s0,0.3,0.1,0.5
			c0,0.1,0.1,0.3,0.1,0.4c0.1,0.1,0.1,0.2,0.2,0.3c0.1,0.1,0.2,0.1,0.4,0.1c0.2,0,0.3,0,0.4-0.1c0.1-0.1,0.2-0.2,0.3-0.3
			s0.1-0.3,0.1-0.4c0-0.1,0-0.3,0-0.5v-0.4h1.7v0.3c0,0.9-0.3,1.6-0.7,2S186.1,254.4,185.3,254.4z M184.5,249.3h1.7v-0.5
			c0-0.2,0-0.4,0-0.6c0-0.2-0.1-0.3-0.1-0.5s-0.1-0.3-0.3-0.4s-0.3-0.1-0.4-0.1c-0.2,0-0.3,0-0.4,0.1c-0.1,0.1-0.2,0.2-0.3,0.4
			c-0.1,0.2-0.1,0.3-0.1,0.5c0,0.2,0,0.4,0,0.6V249.3z"/>
		<path fill="#F7EA84" d="M191.2,254.4c-0.7,0-1.2-0.2-1.7-0.6s-0.7-0.9-0.9-1.6l1.3-0.4c0.3,0.8,0.7,1.3,1.3,1.3
			c0.3,0,0.5-0.1,0.6-0.2s0.2-0.4,0.2-0.6c0-0.4-0.1-0.7-0.4-1l-1.7-1.2c-0.2-0.1-0.3-0.2-0.5-0.4c-0.1-0.1-0.3-0.2-0.4-0.4
			c-0.1-0.2-0.2-0.3-0.3-0.5c-0.1-0.2-0.1-0.4-0.1-0.7c0-0.7,0.2-1.3,0.7-1.6s1.1-0.6,1.8-0.6c0.4,0,0.7,0.1,1,0.2
			c0.3,0.1,0.5,0.3,0.7,0.5c0.2,0.2,0.4,0.4,0.5,0.7s0.2,0.5,0.3,0.8l-1.2,0.4c-0.1-0.2-0.1-0.3-0.2-0.4c-0.1-0.1-0.1-0.2-0.2-0.4
			c-0.1-0.1-0.2-0.2-0.4-0.3c-0.1-0.1-0.3-0.1-0.5-0.1c-0.3,0-0.5,0.1-0.6,0.2s-0.2,0.4-0.2,0.6c0,0.3,0.1,0.5,0.4,0.7l1.7,1.3
			c0.2,0.1,0.3,0.3,0.5,0.4c0.1,0.1,0.3,0.3,0.4,0.5c0.1,0.2,0.2,0.4,0.3,0.6c0.1,0.2,0.1,0.5,0.1,0.7c0,0.7-0.2,1.3-0.7,1.6
			C192.6,254.2,192,254.4,191.2,254.4z"/>
		<path fill="#F7EA84" d="M197,254.4c-0.7,0-1.1-0.2-1.4-0.5c-0.3-0.3-0.5-0.8-0.5-1.5v-5.2h-0.8v-1.2h0.8V243h1.7v2.9h1.3v1.2h-1.3
			v4.9c0,0.3,0,0.6,0.1,0.7c0.1,0.2,0.3,0.2,0.6,0.2c0.1,0,0.3,0,0.6-0.1v1.4C197.6,254.4,197.3,254.4,197,254.4z"/>
		<path fill="#F7EA84" d="M204.2,254.4c-0.7,0-1.2-0.2-1.7-0.6s-0.7-0.9-0.9-1.6l1.3-0.4c0.3,0.8,0.7,1.3,1.3,1.3
			c0.3,0,0.5-0.1,0.6-0.2s0.2-0.4,0.2-0.6c0-0.4-0.1-0.7-0.4-1l-1.7-1.2c-0.2-0.1-0.3-0.2-0.5-0.4c-0.1-0.1-0.3-0.2-0.4-0.4
			c-0.1-0.2-0.2-0.3-0.3-0.5c-0.1-0.2-0.1-0.4-0.1-0.7c0-0.7,0.2-1.3,0.7-1.6s1.1-0.6,1.8-0.6c0.4,0,0.7,0.1,1,0.2
			c0.3,0.1,0.5,0.3,0.7,0.5c0.2,0.2,0.4,0.4,0.5,0.7s0.2,0.5,0.3,0.8l-1.2,0.4c-0.1-0.2-0.1-0.3-0.2-0.4c-0.1-0.1-0.1-0.2-0.2-0.4
			c-0.1-0.1-0.2-0.2-0.4-0.3c-0.1-0.1-0.3-0.1-0.5-0.1c-0.3,0-0.5,0.1-0.6,0.2s-0.2,0.4-0.2,0.6c0,0.3,0.1,0.5,0.4,0.7l1.7,1.3
			c0.2,0.1,0.3,0.3,0.5,0.4c0.1,0.1,0.3,0.3,0.4,0.5c0.1,0.2,0.2,0.4,0.3,0.6c0.1,0.2,0.1,0.5,0.1,0.7c0,0.7-0.2,1.3-0.7,1.6
			C205.5,254.2,204.9,254.4,204.2,254.4z"/>
		<path fill="#F7EA84" d="M208.6,254.3l-1.5-8.3h1.5l0.9,6.3l0.9-6.3h1.5l0.9,6.3l0.9-6.3h1.5l-1.6,8.3H212l-0.9-5.7l-0.9,5.7H208.6
			z"/>
		<path fill="#F7EA84" d="M216.1,244.7V243h1.7v1.7H216.1z M216.1,254.3v-8.3h1.7v8.3H216.1z"/>
		<path fill="#F7EA84" d="M219.4,254.3v-8.3h1.7v0.9c0.6-0.7,1.3-1.1,2.1-1.1c0.4,0,0.7,0.1,0.9,0.3s0.3,0.5,0.4,0.8
			c0.3-0.4,0.6-0.6,0.9-0.8s0.7-0.3,1.2-0.3c0.1,0,0.3,0,0.4,0c0.1,0,0.2,0.1,0.3,0.1s0.2,0.1,0.2,0.2s0.1,0.2,0.2,0.2
			c0,0.1,0.1,0.2,0.1,0.3s0,0.2,0.1,0.3c0,0.1,0,0.2,0,0.4c0,0.2,0,0.3,0,0.4s0,0.2,0,0.4c0,0,0,0.1,0,0.1v6.1H226v-6.1
			c0,0,0-0.1,0-0.1c0-0.1,0-0.3,0-0.3c0-0.1,0-0.2,0-0.3c0-0.1-0.1-0.2-0.1-0.2c-0.1,0-0.1-0.1-0.2-0.1c-0.2,0-0.3,0-0.5,0.1
			s-0.3,0.1-0.4,0.2s-0.2,0.2-0.3,0.3v6.5h-1.7v-6c0,0,0-0.1,0-0.1c0-0.1,0-0.2,0-0.3c0-0.1,0-0.1,0-0.2c0-0.1,0-0.2-0.1-0.2
			c0,0-0.1-0.1-0.1-0.1c-0.1,0-0.1-0.1-0.2-0.1c-0.4,0-0.8,0.2-1.3,0.5v6.6H219.4z"/>
		<path fill="#F7EA84" d="M229.2,254.3v-8.3h1.7v0.9c0.6-0.7,1.3-1.1,2.1-1.1c0.4,0,0.7,0.1,0.9,0.3s0.3,0.5,0.4,0.8
			c0.3-0.4,0.6-0.6,0.9-0.8s0.7-0.3,1.2-0.3c0.1,0,0.3,0,0.4,0c0.1,0,0.2,0.1,0.3,0.1s0.2,0.1,0.2,0.2s0.1,0.2,0.2,0.2
			c0,0.1,0.1,0.2,0.1,0.3s0,0.2,0.1,0.3c0,0.1,0,0.2,0,0.4c0,0.2,0,0.3,0,0.4s0,0.2,0,0.4c0,0,0,0.1,0,0.1v6.1h-1.7v-6.1
			c0,0,0-0.1,0-0.1c0-0.1,0-0.3,0-0.3c0-0.1,0-0.2,0-0.3c0-0.1-0.1-0.2-0.1-0.2c-0.1,0-0.1-0.1-0.2-0.1c-0.2,0-0.3,0-0.5,0.1
			s-0.3,0.1-0.4,0.2s-0.2,0.2-0.3,0.3v6.5h-1.7v-6c0,0,0-0.1,0-0.1c0-0.1,0-0.2,0-0.3c0-0.1,0-0.1,0-0.2c0-0.1,0-0.2-0.1-0.2
			c0,0-0.1-0.1-0.1-0.1c-0.1,0-0.1-0.1-0.2-0.1c-0.4,0-0.8,0.2-1.3,0.5v6.6H229.2z"/>
		<path fill="#F7EA84" d="M239,244.7V243h1.7v1.7H239z M239,254.3v-8.3h1.7v8.3H239z"/>
		<path fill="#F7EA84" d="M242.3,254.3v-8.3h1.7v0.9c0.2-0.2,0.4-0.4,0.6-0.5c0.2-0.1,0.4-0.2,0.6-0.3c0.3-0.1,0.6-0.2,0.9-0.2
			c0.4,0,0.6,0.1,0.9,0.4c0.2,0.3,0.3,0.6,0.3,1v7.1h-1.7V248c0-0.3,0-0.5-0.1-0.6s-0.2-0.2-0.5-0.2c-0.1,0-0.3,0-0.4,0.1
			c-0.1,0.1-0.2,0.1-0.3,0.2s-0.2,0.1-0.3,0.2v6.6H242.3z"/>
		<path fill="#F7EA84" d="M251.4,256.8c-0.2,0-0.4,0-0.5,0c-0.1,0-0.3,0-0.5,0s-0.4,0-0.6,0c-0.2,0-0.3-0.1-0.5-0.1
			c-0.2,0-0.4-0.1-0.5-0.1c-0.1-0.1-0.3-0.1-0.4-0.2c-0.1-0.1-0.2-0.2-0.3-0.3c-0.1-0.1-0.1-0.3-0.1-0.4c0-0.4,0.1-0.8,0.3-1.1
			c0.2-0.3,0.5-0.6,0.9-0.7c-0.2-0.1-0.4-0.2-0.6-0.3s-0.2-0.3-0.2-0.5c0-0.1,0-0.2,0-0.2c0-0.1,0-0.2,0.1-0.2
			c0-0.1,0.1-0.1,0.1-0.2c0-0.1,0.1-0.2,0.1-0.2s0.1-0.1,0.1-0.2s0.1-0.1,0.1-0.2c0,0,0.1-0.1,0.1-0.2c0.1-0.1,0.1-0.1,0.1-0.1
			c-0.6-0.7-0.8-1.5-0.8-2.5c0-0.6,0.1-1.1,0.3-1.5c0.2-0.5,0.5-0.8,0.9-1.1s0.8-0.4,1.4-0.4c0.3,0,0.6,0,0.8,0.1
			c0.2,0.1,0.4,0.2,0.6,0.3c0.1,0.1,0.3,0.3,0.4,0.5c0.3-0.6,0.8-0.9,1.4-1c0,0,0,0,0,0c0,0,0,0,0,0s0,0,0,0v1.4c0,0-0.1,0-0.1,0
			c-0.2,0-0.3,0-0.4,0c-0.1,0-0.2,0-0.3,0.1c-0.1,0-0.2,0.1-0.3,0.2c0.1,0.2,0.1,0.4,0.2,0.7s0.1,0.5,0.1,0.8c0,0.6-0.1,1.1-0.3,1.5
			s-0.5,0.8-0.8,1.1c-0.4,0.3-0.8,0.4-1.4,0.4l-0.8-0.1c0,0,0,0.1-0.1,0.1c0,0.1-0.1,0.1-0.1,0.1c0,0,0,0.1-0.1,0.1
			c0,0.1,0,0.1,0,0.2c0,0.1,0.1,0.2,0.2,0.3c0.1,0.1,0.3,0.1,0.4,0.2s0.4,0.1,0.6,0.1c0.2,0,0.4,0,0.6,0c0.2,0,0.4,0,0.4,0
			c0.2,0,0.5,0.1,0.7,0.1c0.2,0,0.4,0.1,0.6,0.2c0.2,0.1,0.4,0.2,0.5,0.3c0.1,0.1,0.2,0.3,0.3,0.5c0.1,0.2,0.1,0.4,0.1,0.7
			c0,0.3-0.1,0.6-0.2,0.8c-0.1,0.2-0.2,0.4-0.4,0.6c-0.2,0.2-0.4,0.3-0.6,0.4c-0.3,0.1-0.5,0.2-0.8,0.2
			C252,256.7,251.7,256.8,251.4,256.8z M251.4,255.5c0.1,0,0.2,0,0.3,0s0.2,0,0.3,0c0.1,0,0.2,0,0.3-0.1s0.2-0.1,0.3-0.1
			c0.1,0,0.1-0.1,0.2-0.2c0-0.1,0.1-0.2,0.1-0.2c0-0.5-0.4-0.7-1.3-0.9l-1.4-0.2c-0.2,0.1-0.3,0.3-0.4,0.5c-0.1,0.2-0.2,0.5-0.2,0.7
			c0,0.1,0,0.1,0.1,0.2c0,0,0.1,0.1,0.2,0.1c0.1,0,0.2,0,0.3,0.1s0.2,0,0.3,0c0.1,0,0.2,0,0.3,0s0.2,0,0.3,0
			C251.2,255.5,251.3,255.5,251.4,255.5z M251,250.6c0.7,0,1-0.6,1-1.8c0-0.2,0-0.5,0-0.7s-0.1-0.4-0.2-0.6s-0.2-0.3-0.3-0.5
			c-0.1-0.1-0.3-0.2-0.5-0.2c-0.2,0-0.4,0.1-0.5,0.2c-0.1,0.1-0.3,0.3-0.3,0.5c-0.1,0.2-0.1,0.4-0.2,0.6s0,0.4,0,0.7
			C249.9,250,250.3,250.6,251,250.6z"/>
		<path fill="#F7EA84" d="M257.9,254.3v-7.1h-0.8v-1.2h0.8v-0.3c0-0.4,0-0.6,0-0.9c0-0.2,0.1-0.5,0.2-0.7c0.1-0.2,0.2-0.4,0.3-0.5
			s0.3-0.2,0.5-0.3c0.2-0.1,0.5-0.1,0.8-0.1c0.3,0,0.6,0,1,0.1v1.2c0,0-0.1,0-0.3,0s-0.2,0-0.3,0c-0.3,0-0.5,0.1-0.6,0.3
			s-0.1,0.4-0.1,0.8v0.6h1.2v1.2h-1.2v7.1H257.9z"/>
		<path fill="#F7EA84" d="M261.7,244.7V243h1.7v1.7H261.7z M261.7,254.3v-8.3h1.7v8.3H261.7z"/>
		<path fill="#F7EA84" d="M267.1,254.4c-0.7,0-1.2-0.2-1.7-0.6c-0.4-0.4-0.7-0.9-0.8-1.6l1.3-0.4c0.3,0.8,0.7,1.3,1.2,1.3
			c0.3,0,0.5-0.1,0.6-0.2s0.2-0.4,0.2-0.6c0-0.4-0.1-0.7-0.4-1l-1.7-1.2c-0.2-0.1-0.3-0.2-0.5-0.4c-0.1-0.1-0.3-0.2-0.4-0.4
			c-0.1-0.2-0.2-0.3-0.3-0.5c-0.1-0.2-0.1-0.4-0.1-0.7c0-0.7,0.2-1.3,0.7-1.6s1.1-0.6,1.8-0.6c0.4,0,0.7,0.1,1,0.2s0.5,0.3,0.7,0.5
			c0.2,0.2,0.4,0.4,0.5,0.7c0.1,0.3,0.2,0.5,0.3,0.8l-1.3,0.4c-0.1-0.2-0.1-0.3-0.2-0.4c-0.1-0.1-0.1-0.2-0.2-0.4
			c-0.1-0.1-0.2-0.2-0.4-0.3c-0.1-0.1-0.3-0.1-0.5-0.1c-0.3,0-0.5,0.1-0.6,0.2s-0.2,0.4-0.2,0.6c0,0.3,0.1,0.5,0.4,0.7l1.7,1.3
			c0.2,0.1,0.3,0.3,0.5,0.4c0.1,0.1,0.3,0.3,0.4,0.5c0.1,0.2,0.2,0.4,0.3,0.6c0.1,0.2,0.1,0.5,0.1,0.7c0,0.7-0.2,1.3-0.7,1.6
			C268.5,254.2,267.9,254.4,267.1,254.4z"/>
		<path fill="#F7EA84" d="M270.6,254.3v-11.7h1.7v4.2c0.2-0.2,0.5-0.4,0.6-0.5c0.2-0.1,0.4-0.2,0.6-0.3c0.3-0.1,0.6-0.2,0.9-0.2
			c0.4,0,0.6,0.1,0.9,0.4c0.2,0.3,0.3,0.6,0.3,1v7.1H274V248c0-0.3,0-0.5-0.1-0.6c-0.1-0.1-0.2-0.2-0.5-0.2c-0.3,0-0.7,0.2-1.1,0.5
			v6.6H270.6z"/>
		<path fill="#F7EA84" d="M279.9,244.7V243h1.7v1.7H279.9z M279.9,254.3v-8.3h1.7v8.3H279.9z"/>
		<path fill="#F7EA84" d="M285.3,254.4c-0.7,0-1.2-0.2-1.7-0.6c-0.4-0.4-0.7-0.9-0.8-1.6l1.3-0.4c0.3,0.8,0.7,1.3,1.2,1.3
			c0.3,0,0.5-0.1,0.6-0.2s0.2-0.4,0.2-0.6c0-0.4-0.1-0.7-0.4-1l-1.7-1.2c-0.2-0.1-0.3-0.2-0.5-0.4c-0.1-0.1-0.3-0.2-0.4-0.4
			c-0.1-0.2-0.2-0.3-0.3-0.5c-0.1-0.2-0.1-0.4-0.1-0.7c0-0.7,0.2-1.3,0.7-1.6s1.1-0.6,1.8-0.6c0.4,0,0.7,0.1,1,0.2s0.5,0.3,0.7,0.5
			c0.2,0.2,0.4,0.4,0.5,0.7c0.1,0.3,0.2,0.5,0.3,0.8l-1.3,0.4c-0.1-0.2-0.1-0.3-0.2-0.4c-0.1-0.1-0.1-0.2-0.2-0.4
			c-0.1-0.1-0.2-0.2-0.4-0.3c-0.1-0.1-0.3-0.1-0.5-0.1c-0.3,0-0.5,0.1-0.6,0.2s-0.2,0.4-0.2,0.6c0,0.3,0.1,0.5,0.4,0.7l1.7,1.3
			c0.2,0.1,0.3,0.3,0.5,0.4c0.1,0.1,0.3,0.3,0.4,0.5c0.1,0.2,0.2,0.4,0.3,0.6c0.1,0.2,0.1,0.5,0.1,0.7c0,0.7-0.2,1.3-0.7,1.6
			C286.7,254.2,286.1,254.4,285.3,254.4z"/>
		<path fill="#F7EA84" d="M163.6,269.1c-0.7,0-1.1-0.2-1.4-0.5c-0.3-0.3-0.5-0.8-0.5-1.5v-5.2h-0.8v-1.2h0.8v-2.9h1.7v2.9h1.3v1.2
			h-1.3v4.9c0,0.3,0,0.6,0.1,0.7c0.1,0.2,0.3,0.2,0.6,0.2c0.1,0,0.3,0,0.6-0.1v1.4C164.2,269,163.9,269.1,163.6,269.1z"/>
		<path fill="#F7EA84" d="M165.9,268.9v-11.7h1.7v4.2c0.2-0.2,0.4-0.4,0.6-0.5c0.2-0.1,0.4-0.2,0.6-0.3c0.3-0.1,0.6-0.2,0.9-0.2
			c0.4,0,0.6,0.1,0.9,0.4c0.2,0.3,0.3,0.6,0.3,1v7.1h-1.7v-6.3c0-0.3,0-0.5-0.1-0.6s-0.2-0.2-0.5-0.2c-0.3,0-0.7,0.2-1.1,0.5v6.6
			H165.9z"/>
		<path fill="#F7EA84" d="M174.7,269.1c-0.4,0-0.8-0.1-1.1-0.2c-0.3-0.1-0.5-0.3-0.7-0.5s-0.3-0.5-0.4-0.9c-0.1-0.3-0.2-0.7-0.2-1
			s-0.1-0.8-0.1-1.2c0-0.4,0-0.7,0-1.1c0-0.4,0-0.8,0.1-1.2c0-0.3,0.1-0.7,0.2-1c0.1-0.3,0.3-0.6,0.4-0.8s0.4-0.4,0.7-0.5
			c0.3-0.1,0.6-0.2,1-0.2c0.4,0,0.7,0,0.9,0.1c0.3,0.1,0.5,0.2,0.7,0.4c0.2,0.2,0.3,0.4,0.4,0.6c0.1,0.2,0.2,0.5,0.3,0.8
			c0.1,0.3,0.1,0.7,0.1,1c0,0.3,0,0.7,0,1.1v0.2h-3.3v0.4c0,0.1,0,0.1,0,0.3c0,0.2,0,0.3,0,0.5c0,0.2,0,0.3,0,0.5s0,0.3,0.1,0.5
			c0,0.1,0.1,0.3,0.1,0.4c0.1,0.1,0.1,0.2,0.2,0.3c0.1,0.1,0.2,0.1,0.4,0.1c0.2,0,0.3,0,0.4-0.1c0.1-0.1,0.2-0.2,0.3-0.3
			s0.1-0.3,0.1-0.4c0-0.1,0-0.3,0-0.5V266h1.7v0.3c0,0.9-0.3,1.6-0.7,2S175.5,269.1,174.7,269.1z M173.8,263.9h1.7v-0.5
			c0-0.2,0-0.4,0-0.6c0-0.2-0.1-0.3-0.1-0.5s-0.1-0.3-0.3-0.4s-0.3-0.1-0.4-0.1c-0.2,0-0.3,0-0.4,0.1c-0.1,0.1-0.2,0.2-0.3,0.4
			c-0.1,0.2-0.1,0.3-0.1,0.5c0,0.2,0,0.4,0,0.6V263.9z"/>
		<path fill="#F7EA84" d="M183.3,269.1c-0.7,0-1.2-0.2-1.7-0.6s-0.7-0.9-0.9-1.6l1.3-0.4c0.3,0.8,0.7,1.3,1.3,1.3
			c0.3,0,0.5-0.1,0.6-0.2s0.2-0.4,0.2-0.6c0-0.4-0.1-0.7-0.4-1l-1.7-1.2c-0.2-0.1-0.3-0.2-0.5-0.4c-0.1-0.1-0.3-0.2-0.4-0.4
			c-0.1-0.2-0.2-0.3-0.3-0.5c-0.1-0.2-0.1-0.4-0.1-0.7c0-0.7,0.2-1.3,0.7-1.6s1.1-0.6,1.8-0.6c0.4,0,0.7,0.1,1,0.2
			c0.3,0.1,0.5,0.3,0.7,0.5c0.2,0.2,0.4,0.4,0.5,0.7s0.2,0.5,0.3,0.8l-1.2,0.4c-0.1-0.2-0.1-0.3-0.2-0.4c-0.1-0.1-0.1-0.2-0.2-0.4
			c-0.1-0.1-0.2-0.2-0.4-0.3c-0.1-0.1-0.3-0.1-0.5-0.1c-0.3,0-0.5,0.1-0.6,0.2s-0.2,0.4-0.2,0.6c0,0.3,0.1,0.5,0.4,0.7l1.7,1.3
			c0.2,0.1,0.3,0.3,0.5,0.4c0.1,0.1,0.3,0.3,0.4,0.5c0.1,0.2,0.2,0.4,0.3,0.6c0.1,0.2,0.1,0.5,0.1,0.7c0,0.7-0.2,1.3-0.7,1.6
			C184.7,268.9,184,269.1,183.3,269.1z"/>
		<path fill="#F7EA84" d="M186.8,268.9v-11.7h1.7v4.2c0.2-0.2,0.4-0.4,0.6-0.5c0.2-0.1,0.4-0.2,0.6-0.3c0.3-0.1,0.6-0.2,0.9-0.2
			c0.4,0,0.6,0.1,0.9,0.4c0.2,0.3,0.3,0.6,0.3,1v7.1h-1.7v-6.3c0-0.3,0-0.5-0.1-0.6s-0.2-0.2-0.5-0.2c-0.3,0-0.7,0.2-1.1,0.5v6.6
			H186.8z"/>
		<path fill="#F7EA84" d="M197.5,268.3c-0.4,0.5-1,0.8-1.9,0.8s-1.5-0.3-1.9-0.8c-0.4-0.5-0.6-1.3-0.6-2.3v-2.5c0-1,0.2-1.7,0.6-2.3
			c0.4-0.5,1-0.8,1.9-0.8s1.5,0.3,1.9,0.8c0.4,0.5,0.6,1.3,0.6,2.3v2.5C198.1,267,197.9,267.7,197.5,268.3z M195.3,267.6
			c0.1,0,0.2,0.1,0.3,0.1s0.2,0,0.3-0.1c0.1,0,0.2-0.1,0.2-0.1s0.1-0.1,0.1-0.2c0-0.1,0.1-0.2,0.1-0.3c0-0.1,0-0.2,0-0.3
			c0-0.1,0-0.2,0-0.3c0-0.1,0-0.2,0-0.4v-2.5c0-0.2,0-0.3,0-0.4c0-0.1,0-0.2,0-0.3s0-0.2,0-0.3c0-0.1-0.1-0.2-0.1-0.3
			s-0.1-0.2-0.1-0.2s-0.1-0.1-0.2-0.1c-0.1,0-0.2-0.1-0.3-0.1s-0.2,0-0.3,0.1c-0.1,0-0.2,0.1-0.2,0.1s-0.1,0.1-0.1,0.2
			s-0.1,0.2-0.1,0.3c0,0.1,0,0.2,0,0.3c0,0.1,0,0.2,0,0.3c0,0.1,0,0.2,0,0.4v2.5c0,0.2,0,0.3,0,0.4c0,0.1,0,0.2,0,0.3
			c0,0.1,0,0.2,0,0.3c0,0.1,0.1,0.2,0.1,0.3c0,0.1,0.1,0.2,0.1,0.2S195.2,267.6,195.3,267.6z"/>
		<path fill="#F7EA84" d="M199.5,268.9v-8.3h1.7v1.1c0.2-0.3,0.4-0.6,0.7-0.9c0.3-0.2,0.7-0.4,1.1-0.4c0,0,0.1,0,0.3,0v1.8
			c-0.3-0.1-0.6-0.2-0.9-0.2c-0.3,0-0.6,0.1-0.8,0.3c-0.2,0.2-0.3,0.5-0.3,0.8v5.6H199.5z"/>
		<path fill="#F7EA84" d="M206.3,269.1c-0.7,0-1.1-0.2-1.4-0.5c-0.3-0.3-0.5-0.8-0.5-1.5v-5.2h-0.8v-1.2h0.8v-2.9h1.7v2.9h1.3v1.2
			h-1.3v4.9c0,0.3,0,0.6,0.1,0.7c0.1,0.2,0.3,0.2,0.6,0.2c0.1,0,0.3,0,0.6-0.1v1.4C206.9,269,206.6,269.1,206.3,269.1z"/>
		<path fill="#F7EA84" d="M210.9,269.1c-0.7,0-1.1-0.2-1.4-0.5c-0.3-0.3-0.5-0.8-0.5-1.5v-5.2h-0.8v-1.2h0.8v-2.9h1.7v2.9h1.3v1.2
			h-1.3v4.9c0,0.3,0,0.6,0.1,0.7c0.1,0.2,0.3,0.2,0.6,0.2c0.1,0,0.3,0,0.6-0.1v1.4C211.5,269,211.1,269.1,210.9,269.1z"/>
		<path fill="#F7EA84" d="M214.6,269.1c-0.5,0-0.9-0.2-1.2-0.6c-0.3-0.4-0.5-0.9-0.5-1.4c0-0.4,0.1-0.8,0.2-1.1
			c0.1-0.3,0.3-0.6,0.4-0.8c0.2-0.2,0.4-0.4,0.8-0.6c0.4-0.2,0.6-0.4,0.8-0.4c0.2-0.1,0.5-0.2,1-0.4c0.1,0,0.1-0.1,0.2-0.1v-0.6
			c0-0.4-0.1-0.7-0.2-1s-0.3-0.3-0.7-0.3c-0.3,0-0.5,0.1-0.6,0.3c-0.1,0.2-0.2,0.5-0.2,0.8c0,0,0,0.1,0,0.2h-1.7
			c0-0.8,0.2-1.4,0.7-1.9s1-0.7,1.8-0.7c0.8,0,1.4,0.2,1.8,0.7c0.4,0.5,0.7,1.1,0.7,1.9v3.8c0,0.9,0.1,1.6,0.2,2.1h-1.7l-0.2-1.2
			c-0.1,0.2-0.2,0.3-0.2,0.4c-0.1,0.1-0.1,0.2-0.2,0.4c-0.1,0.1-0.2,0.2-0.3,0.3c-0.1,0.1-0.2,0.1-0.4,0.2
			C214.9,269,214.7,269.1,214.6,269.1z M215.4,267.7c0.1,0,0.2,0,0.3-0.1s0.2-0.1,0.3-0.2c0.1-0.1,0.1-0.2,0.2-0.3c0,0,0,0,0,0v-2.3
			c-0.1,0-0.2,0.1-0.3,0.2s-0.3,0.2-0.4,0.2c-0.1,0.1-0.2,0.1-0.3,0.3c-0.1,0.1-0.2,0.2-0.3,0.3c-0.1,0.1-0.1,0.2-0.2,0.4
			s-0.1,0.3-0.1,0.5C214.6,267.3,214.8,267.7,215.4,267.7z"/>
		<path fill="#F7EA84" d="M219.4,259.3v-1.7h1.7v1.7H219.4z M219.4,268.9v-8.3h1.7v8.3H219.4z"/>
		<path fill="#F7EA84" d="M222.7,268.9v-11.7h1.7v11.7H222.7z"/>
		<path fill="#F7EA84" d="M228.5,268.9v-8.3h1.7v0.9c0.6-0.7,1.3-1.1,2.1-1.1c0.4,0,0.7,0.1,0.9,0.3s0.3,0.5,0.4,0.8
			c0.3-0.4,0.6-0.6,0.9-0.8s0.7-0.3,1.2-0.3c0.1,0,0.3,0,0.4,0c0.1,0,0.2,0.1,0.3,0.1s0.2,0.1,0.2,0.2s0.1,0.2,0.2,0.2
			c0,0.1,0.1,0.2,0.1,0.3s0,0.2,0.1,0.3c0,0.1,0,0.2,0,0.4c0,0.2,0,0.3,0,0.4s0,0.2,0,0.4c0,0,0,0.1,0,0.1v6.1h-1.7v-6.1
			c0,0,0-0.1,0-0.1c0-0.1,0-0.3,0-0.3c0-0.1,0-0.2,0-0.3c0-0.1-0.1-0.2-0.1-0.2c-0.1,0-0.1-0.1-0.2-0.1c-0.2,0-0.3,0-0.5,0.1
			s-0.3,0.1-0.4,0.2s-0.2,0.2-0.3,0.3v6.5h-1.7v-6c0,0,0-0.1,0-0.1c0-0.1,0-0.2,0-0.3c0-0.1,0-0.1,0-0.2c0-0.1,0-0.2-0.1-0.2
			c0,0-0.1-0.1-0.1-0.1c-0.1,0-0.1-0.1-0.2-0.1c-0.4,0-0.8,0.2-1.3,0.5v6.6H228.5z"/>
		<path fill="#F7EA84" d="M239.8,269.1c-0.5,0-0.9-0.2-1.2-0.6c-0.3-0.4-0.5-0.9-0.5-1.4c0-0.4,0.1-0.8,0.2-1.1
			c0.1-0.3,0.3-0.6,0.4-0.8c0.2-0.2,0.4-0.4,0.8-0.6c0.4-0.2,0.6-0.4,0.8-0.4c0.2-0.1,0.5-0.2,1-0.4c0.1,0,0.1-0.1,0.2-0.1v-0.6
			c0-0.4-0.1-0.7-0.2-1s-0.3-0.3-0.7-0.3c-0.3,0-0.5,0.1-0.6,0.3c-0.1,0.2-0.2,0.5-0.2,0.8c0,0,0,0.1,0,0.2h-1.7
			c0-0.8,0.2-1.4,0.7-1.9s1-0.7,1.8-0.7c0.8,0,1.4,0.2,1.8,0.7c0.4,0.5,0.7,1.1,0.7,1.9v3.8c0,0.9,0.1,1.6,0.2,2.1h-1.7l-0.2-1.2
			c-0.1,0.2-0.2,0.3-0.2,0.4c-0.1,0.1-0.1,0.2-0.2,0.4c-0.1,0.1-0.2,0.2-0.3,0.3c-0.1,0.1-0.2,0.1-0.4,0.2
			C240.1,269,240,269.1,239.8,269.1z M240.6,267.7c0.1,0,0.2,0,0.3-0.1s0.2-0.1,0.3-0.2c0.1-0.1,0.1-0.2,0.2-0.3c0,0,0,0,0,0v-2.3
			c-0.1,0-0.2,0.1-0.3,0.2s-0.3,0.2-0.4,0.2c-0.1,0.1-0.2,0.1-0.3,0.3c-0.1,0.1-0.2,0.2-0.3,0.3c-0.1,0.1-0.1,0.2-0.2,0.4
			s-0.1,0.3-0.1,0.5C239.8,267.3,240.1,267.7,240.6,267.7z"/>
		<path fill="#F7EA84" d="M244.5,268.9v-11.7h1.7v6.4l2.1-3.1h1.7l-1.9,2.9l1.9,5.4h-1.7l-1.3-4l-0.8,1.1v2.9H244.5z"/>
		<path fill="#F7EA84" d="M255,268.3c-0.4,0.5-1,0.8-1.9,0.8s-1.5-0.3-1.9-0.8c-0.4-0.5-0.6-1.3-0.6-2.3v-2.5c0-1,0.2-1.7,0.6-2.3
			c0.4-0.5,1-0.8,1.9-0.8s1.5,0.3,1.9,0.8c0.4,0.5,0.6,1.3,0.6,2.3v2.5C255.5,267,255.3,267.7,255,268.3z M252.7,267.6
			c0.1,0,0.2,0.1,0.3,0.1s0.2,0,0.3-0.1c0.1,0,0.2-0.1,0.2-0.1s0.1-0.1,0.1-0.2c0-0.1,0.1-0.2,0.1-0.3c0-0.1,0-0.2,0-0.3
			c0-0.1,0-0.2,0-0.3c0-0.1,0-0.2,0-0.4v-2.5c0-0.2,0-0.3,0-0.4c0-0.1,0-0.2,0-0.3s0-0.2,0-0.3c0-0.1-0.1-0.2-0.1-0.3
			s-0.1-0.2-0.1-0.2s-0.1-0.1-0.2-0.1c-0.1,0-0.2-0.1-0.3-0.1s-0.2,0-0.3,0.1c-0.1,0-0.2,0.1-0.2,0.1s-0.1,0.1-0.1,0.2
			s-0.1,0.2-0.1,0.3c0,0.1,0,0.2,0,0.3c0,0.1,0,0.2,0,0.3c0,0.1,0,0.2,0,0.4v2.5c0,0.2,0,0.3,0,0.4c0,0.1,0,0.2,0,0.3
			c0,0.1,0,0.2,0,0.3c0,0.1,0.1,0.2,0.1,0.3c0,0.1,0.1,0.2,0.1,0.2S252.6,267.6,252.7,267.6z"/>
		<path fill="#F7EA84" d="M261.8,269.1c-0.7,0-1.2-0.2-1.7-0.6c-0.4-0.4-0.7-0.9-0.8-1.6l1.3-0.4c0.3,0.8,0.7,1.3,1.2,1.3
			c0.3,0,0.5-0.1,0.6-0.2s0.2-0.4,0.2-0.6c0-0.4-0.1-0.7-0.4-1l-1.7-1.2c-0.2-0.1-0.3-0.2-0.5-0.4c-0.1-0.1-0.3-0.2-0.4-0.4
			c-0.1-0.2-0.2-0.3-0.3-0.5c-0.1-0.2-0.1-0.4-0.1-0.7c0-0.7,0.2-1.3,0.7-1.6s1.1-0.6,1.8-0.6c0.4,0,0.7,0.1,1,0.2s0.5,0.3,0.7,0.5
			c0.2,0.2,0.4,0.4,0.5,0.7c0.1,0.3,0.2,0.5,0.3,0.8l-1.3,0.4c-0.1-0.2-0.1-0.3-0.2-0.4c-0.1-0.1-0.1-0.2-0.2-0.4
			c-0.1-0.1-0.2-0.2-0.4-0.3c-0.1-0.1-0.3-0.1-0.5-0.1c-0.3,0-0.5,0.1-0.6,0.2s-0.2,0.4-0.2,0.6c0,0.3,0.1,0.5,0.4,0.7l1.7,1.3
			c0.2,0.1,0.3,0.3,0.5,0.4c0.1,0.1,0.3,0.3,0.4,0.5c0.1,0.2,0.2,0.4,0.3,0.6c0.1,0.2,0.1,0.5,0.1,0.7c0,0.7-0.2,1.3-0.7,1.6
			C263.2,268.9,262.6,269.1,261.8,269.1z"/>
		<path fill="#F7EA84" d="M265.3,268.9v-11.7h1.7v4.2c0.2-0.2,0.5-0.4,0.6-0.5c0.2-0.1,0.4-0.2,0.6-0.3c0.3-0.1,0.6-0.2,0.9-0.2
			c0.4,0,0.6,0.1,0.9,0.4c0.2,0.3,0.3,0.6,0.3,1v7.1h-1.7v-6.3c0-0.3,0-0.5-0.1-0.6c-0.1-0.1-0.2-0.2-0.5-0.2
			c-0.3,0-0.7,0.2-1.1,0.5v6.6H265.3z"/>
		<path fill="#F7EA84" d="M273.2,269.1c-0.5,0-0.9-0.2-1.2-0.6s-0.5-0.9-0.5-1.4c0-0.4,0.1-0.8,0.2-1.1s0.3-0.6,0.4-0.8
			c0.2-0.2,0.4-0.4,0.8-0.6c0.4-0.2,0.6-0.4,0.8-0.4s0.5-0.2,1-0.4c0.1,0,0.1-0.1,0.2-0.1v-0.6c0-0.4-0.1-0.7-0.2-1
			c-0.1-0.2-0.3-0.3-0.7-0.3c-0.3,0-0.5,0.1-0.6,0.3c-0.1,0.2-0.2,0.5-0.2,0.8c0,0,0,0.1,0,0.2h-1.7c0-0.8,0.2-1.4,0.7-1.9
			s1-0.7,1.8-0.7c0.8,0,1.4,0.2,1.8,0.7s0.7,1.1,0.7,1.9v3.8c0,0.9,0.1,1.6,0.2,2.1h-1.7l-0.2-1.2c-0.1,0.2-0.2,0.3-0.2,0.4
			c-0.1,0.1-0.1,0.2-0.2,0.4c-0.1,0.1-0.2,0.2-0.3,0.3c-0.1,0.1-0.2,0.1-0.4,0.2C273.6,269,273.4,269.1,273.2,269.1z M274.1,267.7
			c0.1,0,0.2,0,0.3-0.1s0.2-0.1,0.3-0.2s0.1-0.2,0.2-0.3c0,0,0,0,0,0v-2.3c-0.1,0-0.2,0.1-0.3,0.2c-0.2,0.1-0.3,0.2-0.4,0.2
			c-0.1,0.1-0.2,0.1-0.3,0.3c-0.1,0.1-0.2,0.2-0.3,0.3c-0.1,0.1-0.1,0.2-0.2,0.4s-0.1,0.3-0.1,0.5
			C273.2,267.3,273.5,267.7,274.1,267.7z"/>
		<path fill="#F7EA84" d="M278,268.9v-8.3h1.7v1.1c0.2-0.3,0.4-0.6,0.7-0.9s0.7-0.4,1.1-0.4c0,0,0.1,0,0.3,0v1.8
			c-0.3-0.1-0.6-0.2-0.9-0.2c-0.3,0-0.6,0.1-0.8,0.3c-0.2,0.2-0.3,0.5-0.3,0.8v5.6H278z"/>
		<path fill="#F7EA84" d="M282.5,268.9v-11.7h1.7v6.4l2.1-3.1h1.7l-1.9,2.9l1.9,5.4h-1.7l-1.2-4l-0.8,1.1v2.9H282.5z"/>
	</g>
</g>
<g id="shark">
	<g>
		<path fill="#282B73" d="M168.4,280c0.1,1-2,0.9-6.4,1.2c-4.4,0.2-11.4-2.4-11.6-2.5l0.7,0.9l0.8-0.3l0.2,1.3l0.4-0.6l0.5,1
			l0.4-0.7c0,0,0.2,0.5-0.1,1.9c-2.2,1.9-11.3-1.3-13.2-2.1c-6.5-0.1-15.6-5.5-24.5-9.7c-12.7,1.8-32.8,0-33.5-0.7
			c-0.7-0.7,0.6-1.8,5.4-1.6c4.8,0.2,13.3-1.7,13.3-1.7c-6.1-2.1-12.6-4.7-17.1-7.1c0,0-2.7,1.1-5,0.9c-2.3-0.2,1.5-0.4,1.9-2.6
			c-5.1-3.1-9.1-5.4-12.4-7.1c0,0-1.5,1.3-2.5,1.1c-1-0.2,0.1-2.3,0.1-2.3c-9.4-4.7-10.6-3.7-10.6-3.7s-0.9,1.1-5.7,6.4
			c-4.7,5.4-11.9,9.6-11.4,8.6c9.9-17.2,7.5-21.5,4-31.7c-3.4-10.3-8.6-11.6-3.9-10.3S57.2,242,57.2,242s4.4-0.2,11-0.3c0,0,0,0,0,0
			l0.6,0c-0.2,0-0.4,0-0.6,0c0,0-0.5-1.3,0-1.3c0.6,0,2.1,1.2,2.2,1.2c8.1-0.1,18.7-0.1,28.4,0.4l0,0c3.7,0.1,3.9-2.5,4.7-3.2
			c0.8-0.8,1.5-11.6,1.6-13.3s1.5-1.2,4.9,3c3.5,4.2,4.9,13.9,4.9,13.9l2.7,1.8c17.2,4,38.3,23.2,41.4,26.3
			C162.1,273.4,168.4,279,168.4,280z"/>
	</g>
</g>
<g id="cheetah">
	<path fill="#282B73" d="M68.2,189.1c0,0,24.9,1.5,43-3.6s15.6-5,19.6-5c4,0,10.3,1.5,10.3,1.5l8.2,0.6c0,0,1.7-2.3,5,1.3
		c0,0,1.4,0.1,4,1c2.6,0.8,3.9,0.5,3.9,0.5s3.1-1.7,3.8-1.7s0,2.5,0,2.5l-0.6,2.2c0,0,1.7,3.6,1.5,5.5c-0.2,1.9-1.9,5.4-1.9,5.4
		s0.9,2.5,0.4,3.7c-0.5,1.2-1.7,2.8-3.3,2.6c0,0-0.3,1.5-2.9,1.5s-4.4-2-4.4-2s-5-0.6-7-3c0,0-0.3,3.5-4.6,5c0,0-3,3.4-5.2,4.2
		c0,0,4.5,2.9,7,4.2s2.4,1.1,3.5,2.7c1.1,1.5,5.2,3.7,6.2,5.6c1,1.9,2.9,7.3,1.4,8s-4.2,0.6-5.8-0.9c-1.6-1.4-2.6-5.6-3.4-6.5
		c-0.9-0.9-2.8-2.1-4.3-3.5c-1.5-1.4-8.3-4-8.3-4s2.6,3.7,3,5.3c0.4,1.6-1,3.3-3,3.9c-2,0.6-4.8-0.3-8.4,0c0,0-3.1-1.3-5.1-4.1
		c-2-2.8-0.7-3.8,0.8-3.6c1.4,0.2,1-0.8,3.2,0.7s3,1.9,3,1.9l3.2-0.2c0,0-0.8-1.9-3-3.7s-3.7-3-3.7-3s-4.4,2.1-11.5,2.8
		c-7.1,0.7-17.7-3.5-21.4-5.4c-3.7-1.9-9-2.7-18.3-1.1c-9.2,1.5-17.3,9.1-19.9,12c-2.6,2.9-3.4,3.2-6.7,3.7
		c-3.2,0.5-9.9,0.4-13.6,0.9c-3.7,0.5-7.6,3.8-8.7,5.9s-0.9,4.8-3.9,5c-3,0.2-3.7-2.6-3.7-2.6s-2.2,0.9-2.7-1c-0.5-1.9,1-6.1,1-6.1
		s6-5.9,6.5-8c0,0,3,0.3,7.6-2.6c4.7-2.9,11.1-4.3,12.8-6.5c1.6-2.2,0.9-6.7,0.9-6.7s3-5.7,7.5-10.2c0,0-2.6-0.4-6.4-0.4
		s-7.9-2.1-14.5-4.1c-6.6-2-6.9-1.1-11.2-3.1c-4.3-2-9.9-5.2-13.8-9.3s-5-5.5-4.1-7.3s1.9-1.7,5.2,1c3.3,2.8,8.9,7.7,13.7,9.3
		c4.8,1.6,14.4,3,18,5c3.6,2,15.4,1.2,19.7,1.9C61.2,187.6,68.2,189.1,68.2,189.1z"/>
</g>
<g id="bird-2">
	<path fill="#282B73" d="M70.3,81c0,0,4.6,2.5,10.3,9.7c5.7,7.2,17.5,28,17.5,28s4,9.9,4.2,12.6c0.2,2.7-1.5,7.4,0,8.2
		c1.5,0.8,5.3,0.6,7.8,2.7c2.5,2.1,2.5,2.1,2.5,2.1s-3.4,2.9-4,3.2c-0.6,0.4-6.3,3-6.3,3s1.7,5.7,1.7,7s-2.9,11-3.6,12.9
		s-7.2,11.6-8.9,16.2c-1.7,4.6-14.5,23-16.8,23s5.7-20.6,6.9-26.3s6.1-16.2,6.1-16.2s0.8-5.7,1.3-6.7c0.6-1-2.1-8.9-2.1-8.9
		s-5.3,0.4-10.5-1.7c-6.3-0.8-7.6-0.8-7.6-0.8s-6.1,0.6-6.1-0.8c0-1.3-1.7-5,0-5s5,0.2,7.4-0.6c2.5-0.8,9.3-4.6,15.4-5
		c2.3-4.6,0.6-13.3,0.6-13.3s-6.9-15.6-6.9-17.3c0-1.7-2.9-7.2-3-9.3C75.1,95.9,67.3,80.7,70.3,81z"/>
</g>
<g id="bird-1">
	<path fill="#282B73" d="M101.1,80.3c0,0-2.1-2.5-2.4-5.3s0.7-5.3,0-6.3s-5.8-6.5-10.8-9.7c-5-3.2-15-12.9-16.2-13.4
		c-1.1-0.6,2.1,4.2,2.1,4.2L69,46.4c0,0-1.8,0.1,2.8,4.1c-3.5-1.2-4.9-2-3.9-0.7c1,1.3,2.9,2.4,2.9,2.4s-0.9,1.4,1.6,3
		c-1.3-0.6-1.1,0.8,0.6,2c0,0-3.5-0.5,1.6,3.2c-1.7-0.5-1.3,0.9,4,4.1c0,0-3.7,1.1,0.6,3c0,0-1.3,1-0.8,1.8c0.6,0.9-0.9,1.8,0,2
		c0,0-0.3,2.2,0.9,2.2c0,0-1,2.6,1.1,2.6c0,0-0.1,2.1,1,2.1c0,0-1,1.9,0.5,2.1c0,0-1,1.1-0.7,2.8c-3.5,0.8-7,2.6-7,2.6
		S61.9,87,62.7,88c0.8,1,0.8,1,0.8,1s-2.9,1-0.2,1.1c0,0-1.9,0.7,3.4,1.1s7.8-0.8,7.8-0.8s4.2,1,7.8,0.2c1.7-0.5,3.9,0.8,6.8,1.2
		c0,0.7,2.1,1.6,2.1,1.6s-1.8,1.3,1.5,1.7c-0.6,0.8-0.6,1,1.8,1.2c-1.5,1.6,1.8,2.4,1.8,2.4s-1.7,1.5,1.4,1.4
		c0.2,1.5-0.2,2.6,1.9,1.7c0,1.9,1.5,1,1.5,1s-1.6,1.7,1.3,1.7c0,0-1.4,6.1,1.1,3.9c1,3.5,1.4,4.2,2.5,2.5c-0.4,1.7-0.4,3.4,1.2,3
		c0,0,0.3,4.4,1.9,1.9c0,0,0.3,7.4,2.5,0.8c0.5,3.2,1.1,3.8,2.1,1c1.1,0.2,2.7-0.3,2.8-4.4c0.1-4.1-1-18.7-2.1-19.8
		s-7.4-3.7-7.2-4.5c0.2-0.8,2.4-1.1,3.2-2.7c1,0.6,1,1.2,1,1.2s0.9-1.7-0.2-2.6c0.3-1.5-0.3-2.8-1.8-3.2
		C107.9,81.2,103.2,80.4,101.1,80.3z"/>
	<g>
	</g>
	<g>
	</g>
	<g>
	</g>
	<g>
	</g>
	<g>
	</g>
	<g>
	</g>
</g>
</svg>
