<?xml version="1.0" encoding="utf-8"?>
<!-- Generator: Adobe Illustrator 19.2.1, SVG Export Plug-In . SVG Version: 6.00 Build 0)  -->
<svg version="1.1" id="records" xmlns="http://www.w3.org/2000/svg" xmlns:xlink="http://www.w3.org/1999/xlink" x="0px" y="0px"
	 width="144px" height="144px" viewBox="0 0 144 144" enable-background="new 0 0 144 144" xml:space="preserve">
<g>
	<rect x="14.2" y="56.9" fill="none" width="70.6" height="33.4"/>
	<path fill="#F9C53D" d="M14.8,71.8v-2.1l3.7-5.3c0-0.1,0.1-0.2,0.3-0.4c0.1-0.2,0.2-0.3,0.3-0.4c0-0.1,0.1-0.2,0.3-0.4
		c0.1-0.2,0.2-0.3,0.3-0.4c0-0.1,0.1-0.2,0.2-0.4c0.1-0.2,0.1-0.4,0.2-0.5s0.1-0.3,0.1-0.5s0-0.4,0-0.6c0-0.6-0.1-1.1-0.4-1.5
		c-0.3-0.4-0.7-0.6-1.2-0.6c-0.3,0-0.6,0.1-0.8,0.2c-0.2,0.1-0.4,0.4-0.5,0.6c-0.1,0.3-0.2,0.5-0.2,0.8s-0.1,0.6-0.1,1v0.5h-2.1
		v-0.5c0-1.4,0.3-2.5,0.9-3.2c0.6-0.8,1.5-1.2,2.8-1.2c1.2,0,2.1,0.3,2.8,1s1,1.6,1,2.9c0,0.5,0,0.9-0.1,1.3
		c-0.1,0.4-0.2,0.8-0.4,1.1c-0.2,0.4-0.3,0.7-0.5,0.9c-0.1,0.2-0.4,0.5-0.6,0.9l-3.7,4.8h5.3v2.1H14.8z"/>
	<path fill="#F9C53D" d="M27.6,71.8V68h-4.2v-2.4l3.7-8.7h2.7V66h1.6v2h-1.6v3.8H27.6z M25.5,66h2.1v-6.4L25.5,66z"/>
	<path fill="#F9C53D" d="M36.2,71.8V56.9h2.1v6.4H42v-6.4h2.1v14.9H42v-6.9h-3.7v6.9H36.2z"/>
	<path fill="#F9C53D" d="M50.1,71.9c-0.7,0-1.4-0.1-1.9-0.3c-0.5-0.2-1-0.6-1.3-1c-0.3-0.4-0.5-1-0.7-1.5C46.1,68.5,46,67.8,46,67
		v-5.4c0-0.8,0.1-1.5,0.2-2s0.4-1.1,0.7-1.5s0.7-0.8,1.3-1c0.5-0.2,1.2-0.3,1.9-0.3c1.4,0,2.5,0.4,3.1,1.2s1,2,1,3.6V67
		c0,0.8-0.1,1.4-0.2,2c-0.1,0.6-0.4,1.1-0.7,1.5c-0.3,0.4-0.7,0.8-1.3,1C51.5,71.8,50.9,71.9,50.1,71.9z M48.6,69.5
		c0.3,0.4,0.8,0.7,1.5,0.7s1.3-0.2,1.5-0.7c0.3-0.4,0.4-1.1,0.4-2v-6.5c0-0.9-0.1-1.5-0.4-1.9c-0.3-0.4-0.8-0.6-1.6-0.6
		s-1.3,0.2-1.6,0.6c-0.3,0.4-0.4,1.1-0.4,1.9v6.5C48.1,68.4,48.3,69.1,48.6,69.5z"/>
	<path fill="#F9C53D" d="M61.9,71.7c-0.5,0.2-1.1,0.3-1.7,0.3s-1.2-0.1-1.7-0.3s-0.9-0.4-1.2-0.7c-0.3-0.3-0.6-0.7-0.8-1.2
		s-0.3-1-0.4-1.5C56,67.8,56,67.2,56,66.5v-9.6h2.1v9.6c0,0.5,0,0.8,0,1.2c0,0.3,0.1,0.6,0.2,1s0.2,0.6,0.3,0.8
		c0.1,0.2,0.4,0.4,0.6,0.5c0.3,0.1,0.6,0.2,1,0.2s0.7-0.1,1-0.2c0.3-0.1,0.5-0.3,0.6-0.5c0.1-0.2,0.3-0.5,0.3-0.8s0.1-0.7,0.2-1
		c0-0.3,0-0.7,0-1.2v-9.6h2.1v9.6c0,0.7,0,1.3-0.1,1.8c-0.1,0.5-0.2,1-0.4,1.5s-0.5,0.9-0.8,1.2C62.8,71.3,62.4,71.5,61.9,71.7z"/>
	<path fill="#F9C53D" d="M66.5,71.8V56.9h2.7c1.6,0,2.8,0.3,3.6,0.9c0.8,0.6,1.2,1.6,1.2,3.1c0,0.9-0.2,1.6-0.5,2.2s-0.8,1-1.4,1.2
		l2.4,7.4h-2.1l-2.1-6.9h-1.6v6.9H66.5z M68.6,63.3h0.5c0.9,0,1.5-0.2,2-0.6c0.4-0.4,0.7-1,0.7-1.8s-0.2-1.5-0.7-1.8
		c-0.4-0.4-1.1-0.6-2-0.6h-0.5V63.3z"/>
	<path fill="#F9C53D" d="M75.7,64.9v-2.1h2.1v2.1H75.7z M75.7,69.7v-2.1h2.1v2.1H75.7z"/>
	<path fill="#FFFFFF" d="M14.7,85.8V84l3.1-4.4c0,0,0.1-0.2,0.2-0.3c0.1-0.2,0.2-0.3,0.2-0.3c0-0.1,0.1-0.2,0.2-0.3
		c0.1-0.2,0.2-0.3,0.2-0.4c0-0.1,0.1-0.2,0.2-0.4s0.1-0.3,0.1-0.4c0-0.1,0.1-0.3,0.1-0.4c0-0.2,0-0.3,0-0.5c0-0.5-0.1-0.9-0.3-1.2
		c-0.2-0.3-0.6-0.5-1-0.5c-0.3,0-0.5,0.1-0.6,0.2s-0.3,0.3-0.4,0.5s-0.2,0.5-0.2,0.7c0,0.2-0.1,0.5-0.1,0.8v0.4h-1.8V77
		c0-1.1,0.2-2,0.7-2.7s1.3-1,2.3-1c1,0,1.8,0.3,2.3,0.8c0.5,0.6,0.8,1.3,0.8,2.3c0,0.4,0,0.7-0.1,1.1s-0.2,0.6-0.3,0.9
		s-0.3,0.5-0.4,0.7s-0.3,0.4-0.5,0.8L16.4,84h4.4v1.8H14.7z"/>
	<path fill="#FFFFFF" d="M24.7,85.9c-1.1,0-1.9-0.3-2.3-0.9c-0.5-0.6-0.7-1.5-0.7-2.7c0-0.8,0.1-1.4,0.3-1.8c0.2-0.5,0.5-0.8,1-1.1
		c-0.4-0.3-0.7-0.7-0.9-1.1s-0.3-1-0.3-1.6c0-1,0.2-1.8,0.7-2.4s1.2-0.8,2.2-0.8c1,0,1.7,0.3,2.2,0.8c0.5,0.6,0.7,1.3,0.7,2.3
		c0,0.7-0.1,1.2-0.3,1.6c-0.2,0.4-0.5,0.8-0.9,1.1c0.5,0.3,0.8,0.7,1,1.1s0.3,1.1,0.3,1.8c0,1.2-0.2,2.1-0.7,2.7
		C26.5,85.6,25.7,85.9,24.7,85.9z M24.1,84.4c0.2,0.1,0.4,0.1,0.6,0.1s0.4,0,0.6-0.1s0.3-0.2,0.4-0.3s0.2-0.3,0.2-0.5
		c0.1-0.2,0.1-0.4,0.1-0.6s0-0.4,0-0.7c0-0.3,0-0.6-0.1-0.8c0-0.2-0.1-0.5-0.2-0.7s-0.2-0.4-0.4-0.5s-0.4-0.2-0.7-0.2
		s-0.5,0.1-0.7,0.2s-0.3,0.3-0.4,0.5c-0.1,0.2-0.2,0.4-0.2,0.7c0,0.2-0.1,0.5-0.1,0.8c0,0.3,0,0.5,0,0.7c0,0.2,0.1,0.4,0.1,0.6
		c0.1,0.2,0.1,0.4,0.2,0.5S23.9,84.3,24.1,84.4z M24.7,78.5c0.2,0,0.4-0.1,0.6-0.2s0.3-0.3,0.3-0.5c0.1-0.2,0.1-0.4,0.1-0.6
		s0-0.4,0-0.7c0-1.2-0.4-1.8-1.1-1.8c-0.7,0-1.1,0.6-1.1,1.8c0,0.3,0,0.5,0,0.7c0,0.2,0.1,0.4,0.2,0.6s0.2,0.3,0.3,0.5
		S24.4,78.5,24.7,78.5z"/>
	<path fill="#FFFFFF" d="M32,85.9c-0.4,0-0.8-0.1-1.1-0.2s-0.6-0.3-0.9-0.6s-0.4-0.5-0.6-0.9c-0.2-0.3-0.3-0.7-0.4-1.1
		c-0.1-0.4-0.1-0.8-0.1-1.3v-3.9c0-0.5,0-1,0.1-1.4c0.1-0.4,0.2-0.8,0.3-1.2c0.1-0.4,0.3-0.7,0.6-1s0.5-0.5,0.9-0.6s0.8-0.2,1.2-0.2
		c1,0,1.7,0.3,2.3,0.8c0.5,0.6,0.8,1.3,0.8,2.3h-1.8c0-0.6-0.1-1-0.3-1.3s-0.5-0.4-1-0.4c-0.9,0-1.3,0.9-1.3,2.6v1.8
		c0.3-0.6,0.9-0.9,1.8-0.9c0.5,0,0.9,0.1,1.3,0.3c0.3,0.2,0.6,0.4,0.8,0.7c0.2,0.3,0.3,0.7,0.4,1.1s0.1,0.9,0.1,1.4
		c0,0.6-0.1,1.1-0.2,1.6c-0.1,0.5-0.3,0.9-0.5,1.3s-0.6,0.7-1,0.9C33,85.8,32.5,85.9,32,85.9z M31.3,84.3c0.2,0.1,0.4,0.2,0.6,0.2
		c0.3,0,0.5-0.1,0.6-0.2s0.3-0.3,0.4-0.5s0.2-0.5,0.2-0.7c0-0.2,0.1-0.5,0.1-0.8c0-0.2,0-0.3,0-0.4c0-0.1,0-0.2,0-0.4s0-0.3,0-0.4
		c0-0.1,0-0.2,0-0.3s0-0.2-0.1-0.3c0-0.1-0.1-0.2-0.1-0.3c0-0.1-0.1-0.2-0.2-0.2s-0.1-0.1-0.2-0.2s-0.2-0.1-0.3-0.1s-0.2,0-0.4,0
		c-0.6,0-1,0.3-1.3,0.9v1.8c0,0.3,0,0.6,0.1,0.8s0.1,0.5,0.2,0.7S31.2,84.2,31.3,84.3z"/>
	<path fill="#FFFFFF" d="M36,85.8V84h1.8v1.8H36z"/>
	<path fill="#FFFFFF" d="M42.2,85.8v-3.1h-3.5v-1.9l3.1-7.2H44V81h1.4v1.7H44v3.1H42.2z M40.5,81h1.8v-5.3L40.5,81z"/>
	<path fill="#FFFFFF" d="M49.4,85.9c-0.4,0-0.8-0.1-1.1-0.2s-0.6-0.3-0.9-0.6s-0.4-0.5-0.6-0.9c-0.2-0.3-0.3-0.7-0.4-1.1
		c-0.1-0.4-0.1-0.8-0.1-1.3v-3.9c0-0.5,0-1,0.1-1.4c0.1-0.4,0.2-0.8,0.3-1.2c0.1-0.4,0.3-0.7,0.6-1s0.5-0.5,0.9-0.6s0.8-0.2,1.2-0.2
		c1,0,1.7,0.3,2.3,0.8c0.5,0.6,0.8,1.3,0.8,2.3h-1.8c0-0.6-0.1-1-0.3-1.3s-0.5-0.4-1-0.4c-0.9,0-1.3,0.9-1.3,2.6v1.8
		c0.3-0.6,0.9-0.9,1.8-0.9c0.5,0,0.9,0.1,1.3,0.3c0.3,0.2,0.6,0.4,0.8,0.7c0.2,0.3,0.3,0.7,0.4,1.1s0.1,0.9,0.1,1.4
		c0,0.6-0.1,1.1-0.2,1.6c-0.1,0.5-0.3,0.9-0.5,1.3s-0.6,0.7-1,0.9C50.4,85.8,50,85.9,49.4,85.9z M48.8,84.3c0.2,0.1,0.4,0.2,0.6,0.2
		s0.5-0.1,0.6-0.2s0.3-0.3,0.4-0.5s0.2-0.5,0.2-0.7c0-0.2,0.1-0.5,0.1-0.8c0-0.2,0-0.3,0-0.4c0-0.1,0-0.2,0-0.4s0-0.3,0-0.4
		c0-0.1,0-0.2,0-0.3s0-0.2-0.1-0.3c0-0.1-0.1-0.2-0.1-0.3c0-0.1-0.1-0.2-0.2-0.2s-0.1-0.1-0.2-0.2s-0.2-0.1-0.3-0.1s-0.2,0-0.4,0
		c-0.6,0-1,0.3-1.3,0.9v1.8c0,0.3,0,0.6,0.1,0.8s0.1,0.5,0.2,0.7S48.6,84.2,48.8,84.3z"/>
	<path fill="#FFFFFF" d="M56.6,85.9c-1,0-1.8-0.3-2.3-0.8c-0.5-0.6-0.8-1.3-0.8-2.3v-0.4h1.8c0,0.3,0,0.5,0,0.7
		c0,0.2,0.1,0.4,0.1,0.6s0.1,0.4,0.2,0.5c0.1,0.1,0.2,0.2,0.4,0.3s0.4,0.1,0.6,0.1s0.4,0,0.6-0.1s0.3-0.2,0.4-0.3
		c0.1-0.1,0.2-0.3,0.2-0.5s0.1-0.4,0.1-0.6c0-0.2,0-0.4,0-0.7c0-0.7-0.1-1.2-0.4-1.6s-0.7-0.6-1.3-0.6v-1.8c0.6,0,1.1-0.1,1.4-0.4
		c0.3-0.3,0.4-0.7,0.4-1.4c0-0.6-0.1-1-0.3-1.3c-0.2-0.3-0.5-0.4-1-0.4c-0.2,0-0.4,0-0.6,0.1s-0.3,0.2-0.4,0.3
		c-0.1,0.1-0.2,0.3-0.2,0.5s-0.1,0.4-0.1,0.6c0,0.2,0,0.4,0,0.7h-1.8v-0.4c0-1,0.3-1.8,0.8-2.3s1.3-0.8,2.3-0.8c1,0,1.8,0.3,2.3,0.8
		c0.5,0.6,0.8,1.3,0.8,2.3c0,0.7-0.2,1.3-0.5,1.7c-0.3,0.4-0.7,0.8-1.3,0.9c0.6,0.2,1,0.5,1.3,1.1s0.4,1.2,0.4,2
		c0,1.1-0.2,2-0.7,2.7S57.7,85.9,56.6,85.9z"/>
	<path fill="#FFFFFF" d="M60.8,85.8V73.5h1.8v6.7l2.2-3.2h1.8l-2,3.1l2,5.7h-1.8l-1.3-4.2l-0.9,1.2v3.1H60.8z"/>
	<path fill="#FFFFFF" d="M67.4,85.8V77h1.8v1c0.6-0.7,1.4-1.1,2.2-1.1c0.4,0,0.7,0.1,0.9,0.3c0.2,0.2,0.3,0.5,0.4,0.9
		c0.3-0.4,0.6-0.7,0.9-0.9s0.8-0.3,1.3-0.3c0.1,0,0.3,0,0.4,0c0.1,0,0.2,0.1,0.3,0.1s0.2,0.1,0.2,0.2c0.1,0.1,0.1,0.2,0.2,0.2
		c0,0.1,0.1,0.2,0.1,0.3s0.1,0.2,0.1,0.3s0,0.2,0,0.4s0,0.3,0,0.4s0,0.2,0,0.4c0,0,0,0.1,0,0.1v6.4h-1.8v-6.4c0,0,0-0.1,0-0.1
		c0-0.2,0-0.3,0-0.3s0-0.2,0-0.3c0-0.1-0.1-0.2-0.1-0.2s-0.1-0.1-0.3-0.1c-0.2,0-0.4,0-0.5,0.1c-0.2,0.1-0.3,0.1-0.4,0.2
		c-0.1,0.1-0.2,0.2-0.4,0.3v6.8h-1.8v-6.4c0,0,0-0.1,0-0.1c0-0.1,0-0.2,0-0.3s0-0.1,0-0.2c0-0.1,0-0.2-0.1-0.2s-0.1-0.1-0.1-0.1
		s-0.1-0.1-0.2-0.1c-0.4,0-0.9,0.2-1.3,0.6v6.9H67.4z"/>
</g>
<g>
	<rect x="14.2" y="92.3" fill="none" width="72.9" height="39.2"/>
	<path fill="#F9C53D" d="M19.1,107.1v-3.8h-4.2V101l3.7-8.7h2.7v9.1h1.6v2h-1.6v3.8H19.1z M17,101.3h2.1v-6.4L17,101.3z"/>
	<path fill="#F9C53D" d="M27.5,107.3c-1.3,0-2.3-0.4-2.8-1.1c-0.6-0.8-0.9-1.8-0.9-3.3c0-0.9,0.1-1.7,0.4-2.2s0.7-1,1.2-1.4
		c-0.5-0.4-0.8-0.8-1.1-1.3s-0.3-1.2-0.3-2c0-1.2,0.3-2.2,0.9-2.9s1.5-1,2.6-1c1.2,0,2,0.3,2.6,1c0.6,0.7,0.9,1.6,0.9,2.9
		c0,0.8-0.1,1.5-0.3,2c-0.2,0.5-0.6,1-1.1,1.3c0.6,0.4,1,0.8,1.2,1.4s0.4,1.3,0.4,2.2c0,1.4-0.3,2.5-0.9,3.3
		C29.7,106.9,28.8,107.3,27.5,107.3z M26.7,105.4c0.2,0.1,0.4,0.1,0.7,0.1s0.5,0,0.7-0.1s0.4-0.2,0.5-0.4c0.1-0.1,0.2-0.3,0.3-0.6
		c0.1-0.2,0.1-0.5,0.1-0.7s0-0.5,0-0.8c0-0.4,0-0.7-0.1-1s-0.1-0.5-0.2-0.8s-0.3-0.5-0.5-0.6c-0.2-0.1-0.5-0.2-0.8-0.2
		s-0.6,0.1-0.8,0.2c-0.2,0.1-0.4,0.3-0.5,0.6c-0.1,0.3-0.2,0.5-0.2,0.8s-0.1,0.6-0.1,1c0,0.3,0,0.6,0,0.8c0,0.2,0.1,0.5,0.1,0.7
		c0.1,0.2,0.2,0.4,0.3,0.6C26.4,105.2,26.5,105.3,26.7,105.4z M27.5,98.3c0.3,0,0.5-0.1,0.7-0.2c0.2-0.1,0.3-0.3,0.4-0.6
		c0.1-0.2,0.1-0.5,0.2-0.7c0-0.2,0-0.5,0-0.9c0-1.4-0.4-2.1-1.3-2.1c-0.9,0-1.3,0.7-1.3,2.1c0,0.3,0,0.6,0,0.9s0.1,0.5,0.2,0.7
		s0.2,0.4,0.4,0.5C26.9,98.3,27.2,98.3,27.5,98.3z"/>
	<path fill="#F9C53D" d="M36.2,107.1V92.3h2.1v6.4h3.7v-6.4h2.1v14.9h-2.1v-6.9h-3.7v6.9H36.2z"/>
	<path fill="#F9C53D" d="M50.1,107.3c-0.7,0-1.4-0.1-1.9-0.3c-0.5-0.2-1-0.6-1.3-1c-0.3-0.4-0.5-1-0.7-1.5c-0.1-0.6-0.2-1.3-0.2-2.1
		V97c0-0.8,0.1-1.5,0.2-2s0.4-1.1,0.7-1.5s0.7-0.8,1.3-1c0.5-0.2,1.2-0.3,1.9-0.3c1.4,0,2.5,0.4,3.1,1.2s1,2,1,3.6v5.4
		c0,0.8-0.1,1.4-0.2,2c-0.1,0.6-0.4,1.1-0.7,1.5c-0.3,0.4-0.7,0.8-1.3,1C51.5,107.2,50.9,107.3,50.1,107.3z M48.6,104.9
		c0.3,0.4,0.8,0.7,1.5,0.7s1.3-0.2,1.5-0.7c0.3-0.4,0.4-1.1,0.4-2v-6.5c0-0.9-0.1-1.5-0.4-1.9c-0.3-0.4-0.8-0.6-1.6-0.6
		s-1.3,0.2-1.6,0.6c-0.3,0.4-0.4,1.1-0.4,1.9v6.5C48.2,103.8,48.3,104.4,48.6,104.9z"/>
	<path fill="#F9C53D" d="M61.9,107c-0.5,0.2-1.1,0.3-1.7,0.3s-1.2-0.1-1.7-0.3s-0.9-0.4-1.2-0.7c-0.3-0.3-0.6-0.7-0.8-1.2
		s-0.3-1-0.4-1.5c-0.1-0.5-0.1-1.1-0.1-1.8v-9.6h2.1v9.6c0,0.5,0,0.8,0,1.2c0,0.3,0.1,0.6,0.2,1s0.2,0.6,0.3,0.8
		c0.1,0.2,0.4,0.4,0.6,0.5c0.3,0.1,0.6,0.2,1,0.2s0.7-0.1,1-0.2c0.3-0.1,0.5-0.3,0.6-0.5c0.1-0.2,0.3-0.5,0.3-0.8s0.1-0.7,0.2-1
		c0-0.3,0-0.7,0-1.2v-9.6h2.1v9.6c0,0.7,0,1.3-0.1,1.8c-0.1,0.5-0.2,1-0.4,1.5s-0.5,0.9-0.8,1.2C62.8,106.6,62.4,106.9,61.9,107z"/>
	<path fill="#F9C53D" d="M66.5,107.1V92.3h2.7c1.6,0,2.8,0.3,3.6,0.9c0.8,0.6,1.2,1.6,1.2,3.1c0,0.9-0.2,1.6-0.5,2.2s-0.8,1-1.4,1.2
		l2.4,7.4h-2.1l-2.1-6.9h-1.6v6.9H66.5z M68.6,98.6h0.5c0.9,0,1.5-0.2,2-0.6c0.4-0.4,0.7-1,0.7-1.8s-0.2-1.5-0.7-1.8
		c-0.4-0.4-1.1-0.6-2-0.6h-0.5V98.6z"/>
	<path fill="#F9C53D" d="M75.7,100.2v-2.1h2.1v2.1H75.7z M75.7,105v-2.1h2.1v2.1H75.7z"/>
	<path fill="#FFFFFF" d="M18.2,121.1V118h-3.5v-1.9l3.1-7.2H20v7.5h1.4v1.7H20v3.1H18.2z M16.5,116.3h1.8v-5.3L16.5,116.3z"/>
	<path fill="#FFFFFF" d="M22.1,121.1v-1.8l3.1-4.4c0,0,0.1-0.2,0.2-0.3c0.1-0.2,0.2-0.3,0.2-0.3c0-0.1,0.1-0.2,0.2-0.3
		c0.1-0.2,0.2-0.3,0.2-0.4c0-0.1,0.1-0.2,0.2-0.4s0.1-0.3,0.1-0.4c0-0.1,0.1-0.3,0.1-0.4c0-0.2,0-0.3,0-0.5c0-0.5-0.1-0.9-0.3-1.2
		c-0.2-0.3-0.6-0.5-1-0.5c-0.3,0-0.5,0.1-0.6,0.2s-0.3,0.3-0.4,0.5s-0.2,0.5-0.2,0.7c0,0.2-0.1,0.5-0.1,0.8v0.4h-1.8v-0.4
		c0-1.1,0.2-2,0.7-2.7s1.3-1,2.3-1c1,0,1.8,0.3,2.3,0.8c0.5,0.6,0.8,1.3,0.8,2.3c0,0.4,0,0.7-0.1,1.1s-0.2,0.6-0.3,0.9
		s-0.3,0.5-0.4,0.7s-0.3,0.4-0.5,0.8l-3.1,3.9h4.4v1.8H22.1z"/>
	<path fill="#FFFFFF" d="M32.1,121.3c-1.1,0-1.9-0.3-2.3-0.9c-0.5-0.6-0.7-1.5-0.7-2.7c0-0.8,0.1-1.4,0.3-1.8c0.2-0.5,0.5-0.8,1-1.1
		c-0.4-0.3-0.7-0.7-0.9-1.1s-0.3-1-0.3-1.6c0-1,0.2-1.8,0.7-2.4s1.2-0.8,2.2-0.8c1,0,1.7,0.3,2.2,0.8c0.5,0.6,0.7,1.3,0.7,2.3
		c0,0.7-0.1,1.2-0.3,1.6c-0.2,0.4-0.5,0.8-0.9,1.1c0.5,0.3,0.8,0.7,1,1.1s0.3,1.1,0.3,1.8c0,1.2-0.2,2.1-0.7,2.7
		C33.9,121,33.2,121.3,32.1,121.3z M31.5,119.7c0.2,0.1,0.4,0.1,0.6,0.1c0.2,0,0.4,0,0.6-0.1s0.3-0.2,0.4-0.3s0.2-0.3,0.2-0.5
		c0.1-0.2,0.1-0.4,0.1-0.6s0-0.4,0-0.7c0-0.3,0-0.6-0.1-0.8c0-0.2-0.1-0.5-0.2-0.7s-0.2-0.4-0.4-0.5s-0.4-0.2-0.7-0.2
		c-0.3,0-0.5,0.1-0.7,0.2s-0.3,0.3-0.4,0.5c-0.1,0.2-0.2,0.4-0.2,0.7c0,0.2-0.1,0.5-0.1,0.8c0,0.3,0,0.5,0,0.7
		c0,0.2,0.1,0.4,0.1,0.6c0.1,0.2,0.1,0.4,0.2,0.5S31.3,119.6,31.5,119.7z M32.1,113.9c0.2,0,0.4-0.1,0.6-0.2s0.3-0.3,0.3-0.5
		c0.1-0.2,0.1-0.4,0.1-0.6s0-0.4,0-0.7c0-1.2-0.4-1.8-1.1-1.8c-0.7,0-1.1,0.6-1.1,1.8c0,0.3,0,0.5,0,0.7c0,0.2,0.1,0.4,0.2,0.6
		s0.2,0.3,0.3,0.5S31.9,113.9,32.1,113.9z"/>
	<path fill="#FFFFFF" d="M36,121.1v-1.8h1.8v1.8H36z"/>
	<path fill="#FFFFFF" d="M41.7,121.3c-1.1,0-1.9-0.3-2.3-0.9c-0.5-0.6-0.7-1.5-0.7-2.7c0-0.8,0.1-1.4,0.3-1.8c0.2-0.5,0.5-0.8,1-1.1
		c-0.4-0.3-0.7-0.7-0.9-1.1s-0.3-1-0.3-1.6c0-1,0.2-1.8,0.7-2.4s1.2-0.8,2.2-0.8c1,0,1.7,0.3,2.2,0.8c0.5,0.6,0.7,1.3,0.7,2.3
		c0,0.7-0.1,1.2-0.3,1.6c-0.2,0.4-0.5,0.8-0.9,1.1c0.5,0.3,0.8,0.7,1,1.1s0.3,1.1,0.3,1.8c0,1.2-0.2,2.1-0.7,2.7
		C43.6,121,42.8,121.3,41.7,121.3z M41.1,119.7c0.2,0.1,0.4,0.1,0.6,0.1s0.4,0,0.6-0.1s0.3-0.2,0.4-0.3s0.2-0.3,0.2-0.5
		c0.1-0.2,0.1-0.4,0.1-0.6s0-0.4,0-0.7c0-0.3,0-0.6-0.1-0.8c0-0.2-0.1-0.5-0.2-0.7s-0.2-0.4-0.4-0.5s-0.4-0.2-0.7-0.2
		s-0.5,0.1-0.7,0.2s-0.3,0.3-0.4,0.5c-0.1,0.2-0.2,0.4-0.2,0.7c0,0.2-0.1,0.5-0.1,0.8c0,0.3,0,0.5,0,0.7c0,0.2,0.1,0.4,0.1,0.6
		c0.1,0.2,0.1,0.4,0.2,0.5S41,119.6,41.1,119.7z M41.7,113.9c0.2,0,0.4-0.1,0.6-0.2s0.3-0.3,0.3-0.5c0.1-0.2,0.1-0.4,0.1-0.6
		s0-0.4,0-0.7c0-1.2-0.4-1.8-1.1-1.8c-0.7,0-1.1,0.6-1.1,1.8c0,0.3,0,0.5,0,0.7c0,0.2,0.1,0.4,0.2,0.6s0.2,0.3,0.3,0.5
		S41.5,113.9,41.7,113.9z"/>
	<path fill="#FFFFFF" d="M48.9,121.3c-1,0-1.7-0.3-2.3-0.8c-0.5-0.6-0.8-1.3-0.8-2.3h1.8c0,0.6,0.1,1,0.3,1.3s0.5,0.4,1,0.4
		c0.9,0,1.3-0.9,1.3-2.6v-1.8c-0.3,0.6-0.9,0.9-1.8,0.9c-0.5,0-0.9-0.1-1.3-0.3c-0.3-0.2-0.6-0.4-0.8-0.7c-0.2-0.3-0.3-0.7-0.4-1.1
		s-0.1-0.9-0.1-1.4c0-0.6,0.1-1.1,0.2-1.6c0.1-0.5,0.3-0.9,0.5-1.3s0.6-0.7,1-0.9c0.4-0.2,0.9-0.3,1.4-0.3c0.4,0,0.8,0.1,1.1,0.2
		s0.6,0.3,0.9,0.6s0.4,0.5,0.6,0.9c0.2,0.3,0.3,0.7,0.4,1.1c0.1,0.4,0.1,0.8,0.1,1.3v3.9c0,0.5,0,1-0.1,1.4
		c-0.1,0.4-0.2,0.8-0.3,1.2c-0.1,0.4-0.3,0.7-0.6,1s-0.5,0.5-0.9,0.6S49.4,121.3,48.9,121.3z M48.9,115c0.6,0,1-0.3,1.3-0.9v-1.8
		c0-0.3,0-0.6-0.1-0.8s-0.1-0.5-0.2-0.7s-0.2-0.4-0.4-0.5s-0.4-0.2-0.6-0.2s-0.5,0.1-0.6,0.2s-0.3,0.3-0.4,0.5s-0.2,0.5-0.2,0.7
		c0,0.2-0.1,0.5-0.1,0.8c0,0.2,0,0.3,0,0.4c0,0.1,0,0.2,0,0.4s0,0.3,0,0.4c0,0.1,0,0.2,0,0.3s0,0.2,0.1,0.3c0,0.1,0.1,0.2,0.1,0.3
		c0,0.1,0.1,0.2,0.2,0.2s0.1,0.1,0.2,0.2s0.2,0.1,0.3,0.1S48.8,115,48.9,115z"/>
	<path fill="#FFFFFF" d="M56.3,121.3c-0.7,0-1.2-0.2-1.7-0.5s-0.8-0.7-1-1.3c-0.2-0.5-0.3-1.2-0.3-1.9v-5.2c0-1.1,0.3-2,0.8-2.7
		c0.5-0.6,1.3-1,2.3-1c1,0,1.8,0.3,2.3,1s0.8,1.5,0.8,2.7v5.2c0,1.1-0.3,2-0.8,2.6C58.1,120.9,57.3,121.3,56.3,121.3z M56.3,119.8
		c0.9,0,1.3-0.7,1.3-2.2v-5.2c0-0.2,0-0.5,0-0.7c0-0.2-0.1-0.4-0.1-0.6c-0.1-0.2-0.1-0.4-0.2-0.5s-0.2-0.2-0.4-0.3s-0.3-0.1-0.6-0.1
		s-0.4,0-0.6,0.1s-0.3,0.2-0.4,0.3s-0.2,0.3-0.2,0.5c-0.1,0.2-0.1,0.4-0.1,0.6c0,0.2,0,0.4,0,0.7v5.2c0,0.3,0,0.6,0.1,0.8
		s0.1,0.5,0.2,0.7s0.2,0.4,0.4,0.5C55.9,119.8,56.1,119.8,56.3,119.8z"/>
	<path fill="#FFFFFF" d="M60.8,121.1v-12.2h1.8v6.7l2.2-3.2h1.8l-2,3.1l2,5.7h-1.8l-1.3-4.2l-0.9,1.2v3.1H60.8z"/>
	<path fill="#FFFFFF" d="M67.4,121.1v-8.8h1.8v1c0.6-0.7,1.4-1.1,2.2-1.1c0.4,0,0.7,0.1,0.9,0.3c0.2,0.2,0.3,0.5,0.4,0.9
		c0.3-0.4,0.6-0.7,0.9-0.9s0.8-0.3,1.3-0.3c0.1,0,0.3,0,0.4,0c0.1,0,0.2,0.1,0.3,0.1s0.2,0.1,0.2,0.2c0.1,0.1,0.1,0.2,0.2,0.2
		c0,0.1,0.1,0.2,0.1,0.3s0.1,0.2,0.1,0.3s0,0.2,0,0.4s0,0.3,0,0.4s0,0.2,0,0.4c0,0,0,0.1,0,0.1v6.4h-1.8v-6.4c0,0,0-0.1,0-0.1
		c0-0.2,0-0.3,0-0.3s0-0.2,0-0.3c0-0.1-0.1-0.2-0.1-0.2s-0.1-0.1-0.3-0.1c-0.2,0-0.4,0-0.5,0.1c-0.2,0.1-0.3,0.1-0.4,0.2
		c-0.1,0.1-0.2,0.2-0.4,0.3v6.8h-1.8v-6.4c0,0,0-0.1,0-0.1c0-0.1,0-0.2,0-0.3s0-0.1,0-0.2c0-0.1,0-0.2-0.1-0.2s-0.1-0.1-0.1-0.1
		s-0.1-0.1-0.2-0.1c-0.4,0-0.9,0.2-1.3,0.6v6.9H67.4z"/>
</g>
<g>
	<g>
		<path fill="#553278" d="M15.1,24.1V13.7h3.4V24c0,0.6,0,1,0,1.3c0,0.3,0,0.6,0,1c0,0.4,0.1,0.7,0.1,0.8c0.1,0.2,0.1,0.3,0.3,0.5
			c0.1,0.2,0.2,0.3,0.4,0.4c0.2,0.1,0.4,0.1,0.6,0.1c0.2,0,0.5,0,0.6-0.1c0.2-0.1,0.3-0.2,0.4-0.3c0.1-0.2,0.2-0.3,0.3-0.5
			c0.1-0.2,0.1-0.4,0.1-0.8c0-0.4,0-0.7,0-1c0-0.3,0-0.7,0-1.3c0,0,0,0,0-0.1V13.7h3.4v10.5c0,0.5,0,1,0,1.4c0,0.4-0.1,0.9-0.2,1.3
			c-0.1,0.5-0.2,0.9-0.4,1.2s-0.3,0.7-0.6,1c-0.2,0.3-0.5,0.6-0.9,0.8c-0.3,0.2-0.7,0.4-1.2,0.5c-0.5,0.1-1,0.2-1.6,0.2
			s-1.1-0.1-1.6-0.2c-0.5-0.1-0.9-0.3-1.2-0.5c-0.3-0.2-0.6-0.5-0.9-0.8c-0.2-0.3-0.4-0.7-0.6-1s-0.3-0.8-0.4-1.2
			c-0.1-0.5-0.1-0.9-0.2-1.3C15.1,25.2,15.1,24.7,15.1,24.1z"/>
		<path fill="#553278" d="M26.6,30.4V13.7h3.1v16.7H26.6z"/>
		<path fill="#553278" d="M31.7,26.2v-5.9h-0.9v-2.1h0.9v-4h3.1v4h1.5v2.1h-1.5V27c0,0.3,0.1,0.6,0.2,0.7c0.1,0.2,0.3,0.2,0.7,0.2
			c0.4,0,0.7,0,0.9-0.1v2.4c-0.4,0.1-1.1,0.2-2,0.2c-0.4,0-0.7,0-1-0.1c-0.3-0.1-0.5-0.2-0.7-0.3c-0.2-0.1-0.4-0.3-0.5-0.6
			c-0.1-0.2-0.3-0.5-0.3-0.7c-0.1-0.2-0.1-0.5-0.2-0.8c0-0.3-0.1-0.6-0.1-0.9C31.8,26.8,31.7,26.5,31.7,26.2z"/>
		<path fill="#553278" d="M37.7,30.4V18.2h3.1v1c0.5-0.8,1-1.2,1.7-1.2c0.2,0,0.5,0,0.8,0.1v2.6c-0.6-0.1-1-0.1-1.2-0.1
			c-0.4,0-0.8,0.1-1,0.4c-0.2,0.3-0.3,0.6-0.3,1.1v8.1H37.7z"/>
		<path fill="#553278" d="M49,30.4l-0.3-1.3c-0.2,0.6-0.5,1-0.9,1.2s-0.9,0.3-1.5,0.3c-0.4,0-0.8-0.1-1.2-0.3
			c-0.3-0.2-0.6-0.4-0.8-0.7c-0.2-0.3-0.3-0.6-0.4-0.9c-0.1-0.3-0.1-0.7-0.1-1.1c0-0.4,0-0.8,0.1-1.2c0.1-0.4,0.2-0.7,0.3-1
			c0.1-0.3,0.3-0.5,0.6-0.8c0.2-0.3,0.5-0.5,0.7-0.6c0.2-0.2,0.5-0.4,0.9-0.5s0.7-0.3,0.9-0.5c0.3-0.1,0.6-0.3,1-0.5v-1
			c0-0.4-0.1-0.7-0.2-1c-0.1-0.2-0.3-0.3-0.5-0.3c-0.2,0-0.3,0-0.4,0.1c-0.1,0.1-0.2,0.2-0.2,0.3c0,0.1-0.1,0.3-0.1,0.4
			c0,0.1,0,0.3,0,0.5v0.7h-3c0-1.4,0.3-2.5,1-3.2c0.7-0.7,1.7-1.1,3-1.1c0.9,0,1.7,0.3,2.4,1c0.7,0.7,1,1.5,1,2.4v5.8
			c0,1,0.1,2.1,0.4,3.2H49z M48.4,27.6v-3c-1,0.8-1.5,1.7-1.5,2.7c0,0.2,0,0.5,0.1,0.6c0.1,0.2,0.3,0.3,0.5,0.3c0.1,0,0.3,0,0.4-0.1
			c0.1-0.1,0.2-0.2,0.3-0.2S48.3,27.8,48.4,27.6z"/>
		<path fill="#553278" d="M53.2,30.4V18.2h3.1v0.9c0.3-0.3,0.6-0.6,1-0.8c0.4-0.2,0.8-0.3,1.2-0.3c0.4,0,0.8,0.1,1.1,0.4
			c0.3,0.3,0.6,0.6,0.8,1c0.3-0.4,0.7-0.7,1.1-1C62,18.1,62.5,18,63,18c0.4,0,0.8,0.1,1.2,0.4c0.3,0.3,0.6,0.6,0.8,1
			c0.2,0.4,0.3,0.8,0.3,1.2v9.8H62v-9.1c0-0.1,0-0.2,0-0.3c0-0.1,0-0.2,0-0.3c0-0.1-0.1-0.2-0.1-0.3c-0.1-0.1-0.2-0.1-0.3-0.1
			c-0.2,0-0.5,0.2-0.9,0.7v9.3h-3.1v-9.1c0-0.6-0.1-0.9-0.4-0.9c-0.2,0-0.5,0.2-0.9,0.7v9.3H53.2z"/>
		<path fill="#553278" d="M71.7,30.4l-0.3-1.3c-0.2,0.6-0.5,1-0.9,1.2s-0.9,0.3-1.5,0.3c-0.4,0-0.8-0.1-1.2-0.3
			c-0.3-0.2-0.6-0.4-0.8-0.7c-0.2-0.3-0.3-0.6-0.4-0.9c-0.1-0.3-0.1-0.7-0.1-1.1c0-0.4,0-0.8,0.1-1.2c0.1-0.4,0.2-0.7,0.3-1
			c0.1-0.3,0.3-0.5,0.6-0.8c0.2-0.3,0.5-0.5,0.7-0.6c0.2-0.2,0.5-0.4,0.9-0.5s0.7-0.3,0.9-0.5c0.3-0.1,0.6-0.3,1-0.5v-1
			c0-0.4-0.1-0.7-0.2-1c-0.1-0.2-0.3-0.3-0.5-0.3c-0.2,0-0.3,0-0.4,0.1c-0.1,0.1-0.2,0.2-0.2,0.3c0,0.1-0.1,0.3-0.1,0.4
			c0,0.1,0,0.3,0,0.5v0.7h-3c0-1.4,0.3-2.5,1-3.2c0.7-0.7,1.7-1.1,3-1.1c0.9,0,1.7,0.3,2.4,1c0.7,0.7,1,1.5,1,2.4v5.8
			c0,1,0.1,2.1,0.4,3.2H71.7z M71.1,27.6v-3c-1,0.8-1.5,1.7-1.5,2.7c0,0.2,0,0.5,0.1,0.6c0.1,0.2,0.3,0.3,0.5,0.3
			c0.1,0,0.3,0,0.4-0.1c0.1-0.1,0.2-0.2,0.3-0.2S71,27.8,71.1,27.6z"/>
		<path fill="#553278" d="M75.9,30.4V18.2H79v1c0.5-0.8,1-1.2,1.7-1.2c0.2,0,0.5,0,0.8,0.1v2.6c-0.6-0.1-1-0.1-1.2-0.1
			c-0.4,0-0.8,0.1-1,0.4c-0.2,0.3-0.3,0.6-0.3,1.1v8.1H75.9z"/>
		<path fill="#553278" d="M87.2,30.4l-0.3-1.3c-0.2,0.6-0.5,1-0.9,1.2s-0.9,0.3-1.5,0.3c-0.4,0-0.8-0.1-1.2-0.3
			c-0.3-0.2-0.6-0.4-0.8-0.7c-0.2-0.3-0.3-0.6-0.4-0.9C82,28.4,82,28,82,27.7c0-0.4,0-0.8,0.1-1.2c0.1-0.4,0.2-0.7,0.3-1
			s0.3-0.5,0.6-0.8c0.2-0.3,0.5-0.5,0.7-0.6c0.2-0.2,0.5-0.4,0.9-0.5s0.7-0.3,0.9-0.5c0.3-0.1,0.6-0.3,1-0.5v-1c0-0.4-0.1-0.7-0.2-1
			s-0.3-0.3-0.5-0.3c-0.2,0-0.3,0-0.4,0.1c-0.1,0.1-0.2,0.2-0.2,0.3s-0.1,0.3-0.1,0.4c0,0.1,0,0.3,0,0.5v0.7h-3c0-1.4,0.3-2.5,1-3.2
			c0.7-0.7,1.7-1.1,3-1.1c0.9,0,1.7,0.3,2.4,1s1,1.5,1,2.4v5.8c0,1,0.1,2.1,0.4,3.2H87.2z M86.5,27.6v-3c-1,0.8-1.5,1.7-1.5,2.7
			c0,0.2,0,0.5,0.1,0.6c0.1,0.2,0.3,0.3,0.5,0.3c0.1,0,0.3,0,0.4-0.1c0.1-0.1,0.2-0.2,0.3-0.2C86.3,27.9,86.4,27.8,86.5,27.6z"/>
		<path fill="#553278" d="M91.6,26.2v-5.9h-0.9v-2.1h0.9v-4h3.1v4h1.5v2.1h-1.5V27c0,0.3,0.1,0.6,0.2,0.7c0.1,0.2,0.3,0.2,0.7,0.2
			c0.4,0,0.7,0,0.9-0.1v2.4c-0.4,0.1-1.1,0.2-2,0.2c-0.4,0-0.7,0-1-0.1c-0.3-0.1-0.5-0.2-0.7-0.3c-0.2-0.1-0.4-0.3-0.5-0.6
			S92,29,91.9,28.8c-0.1-0.2-0.1-0.5-0.2-0.8c0-0.3-0.1-0.6-0.1-0.9S91.6,26.5,91.6,26.2z"/>
		<path fill="#553278" d="M97.5,30.4V13.7h3.1v5.5c0.3-0.3,0.7-0.6,1.1-0.8c0.4-0.2,0.8-0.3,1.3-0.3c0.4,0,0.8,0.1,1.1,0.4
			c0.3,0.3,0.6,0.6,0.8,1c0.2,0.4,0.2,0.8,0.2,1.2v9.8h-3.1v-8.9c0,0,0-0.1,0-0.2c0-0.1,0-0.2,0-0.2c0-0.1,0-0.1,0-0.2
			c0-0.1,0-0.1,0-0.2c0,0,0-0.1-0.1-0.2c0-0.1-0.1-0.1-0.1-0.1s-0.1,0-0.2,0c-0.1,0-0.3,0-0.4,0.1s-0.2,0.2-0.3,0.2
			c-0.1,0.1-0.1,0.2-0.3,0.3v9.3H97.5z"/>
		<path fill="#553278" d="M106.7,27.2v-5.1c0-1.3,0.3-2.3,0.9-3c0.6-0.7,1.6-1.1,2.9-1.1s2.3,0.4,2.9,1.1c0.6,0.7,0.9,1.7,0.9,3v5.1
			c0,1-0.4,1.8-1.1,2.5s-1.6,1-2.7,1c-0.7,0-1.3-0.1-1.9-0.4c-0.6-0.3-1-0.7-1.4-1.2C106.9,28.5,106.7,27.9,106.7,27.2z M111.2,27.2
			v-6c0-0.6-0.2-0.9-0.7-0.9c-0.4,0-0.6,0.3-0.6,0.9v6c0,0.1,0,0.2,0,0.3c0,0.1,0,0.2,0.1,0.3c0,0.1,0.1,0.2,0.2,0.3
			c0.1,0.1,0.2,0.1,0.4,0.1C111,28.3,111.2,27.9,111.2,27.2z"/>
		<path fill="#553278" d="M115.9,30.4V18.2h3.1v0.9c0.3-0.3,0.7-0.6,1.1-0.8c0.4-0.2,0.9-0.3,1.3-0.3c0.4,0,0.8,0.1,1.1,0.4
			c0.3,0.3,0.6,0.6,0.8,1s0.2,0.8,0.2,1.2v9.8h-3.1v-9.2c0-0.5-0.2-0.8-0.5-0.8c0,0-0.1,0-0.1,0c0,0-0.1,0-0.1,0s-0.1,0-0.1,0.1
			s-0.1,0-0.1,0.1s-0.1,0.1-0.1,0.1s-0.1,0.1-0.1,0.1c0,0-0.1,0.1-0.1,0.1s0,0-0.1,0.1L119,21v9.4H115.9z"/>
		<path fill="#553278" d="M15.1,48.4V36.2h3.1v1c0.5-0.8,1-1.2,1.7-1.2c0.2,0,0.5,0,0.8,0.1v2.6c-0.6-0.1-1-0.1-1.2-0.1
			c-0.4,0-0.8,0.1-1,0.4c-0.2,0.3-0.3,0.6-0.3,1.1v8.1H15.1z"/>
		<path fill="#553278" d="M21.2,45.2v-5.1c0-1.3,0.3-2.3,0.9-3c0.6-0.7,1.5-1.1,2.8-1.1c1.3,0,2.2,0.4,2.8,1.1
			c0.6,0.7,0.9,1.7,0.9,3v2.5h-4.3v2.7c0,0.7,0.2,1,0.6,1c0.4,0,0.6-0.4,0.6-1.1v-1.3h3.1v1.4c0,1-0.4,1.8-1.1,2.5
			c-0.7,0.6-1.6,1-2.6,1s-1.9-0.3-2.6-1C21.5,47,21.2,46.2,21.2,45.2z M24.3,40.9h1.2v-1.7c0-0.6-0.2-0.9-0.6-0.9
			c-0.4,0-0.6,0.3-0.6,0.9V40.9z"/>
		<path fill="#553278" d="M29.9,45.3v-5.2c0-1.3,0.3-2.3,0.9-3c0.6-0.7,1.5-1.1,2.8-1.1c1.3,0,2.2,0.4,2.8,1.1
			c0.6,0.7,0.9,1.7,0.9,3v1.1h-3.1v-1.4c0-0.5,0-0.8-0.1-1.1c-0.1-0.2-0.3-0.3-0.5-0.3c-0.4,0-0.6,0.3-0.6,0.9v6c0,0.7,0.2,1,0.6,1
			c0.1,0,0.3,0,0.4-0.1c0.1-0.1,0.2-0.2,0.2-0.3c0-0.1,0.1-0.3,0.1-0.5c0-0.2,0-0.4,0-0.7v-1.3h3.1v1.8c0,0.7-0.2,1.3-0.5,1.8
			c-0.3,0.5-0.8,0.9-1.4,1.2c-0.6,0.3-1.2,0.4-1.8,0.4c-1,0-1.9-0.3-2.6-0.9C30.3,47.1,29.9,46.3,29.9,45.3z"/>
		<path fill="#553278" d="M38.5,45.2v-5.1c0-1.3,0.3-2.3,0.9-3C40,36.3,41,36,42.3,36c1.3,0,2.3,0.4,2.9,1.1c0.6,0.7,0.9,1.7,0.9,3
			v5.1c0,1-0.4,1.8-1.1,2.5c-0.7,0.6-1.6,1-2.7,1c-0.7,0-1.3-0.1-1.9-0.4c-0.6-0.3-1-0.7-1.4-1.2C38.7,46.5,38.5,45.9,38.5,45.2z
			 M43,45.2v-6c0-0.6-0.2-0.9-0.7-0.9c-0.4,0-0.6,0.3-0.6,0.9v6c0,0.1,0,0.2,0,0.3c0,0.1,0,0.2,0.1,0.3c0,0.1,0.1,0.2,0.2,0.3
			c0.1,0.1,0.2,0.1,0.4,0.1C42.7,46.3,43,45.9,43,45.2z"/>
		<path fill="#553278" d="M47.7,48.4V36.2h3.1v1c0.5-0.8,1-1.2,1.7-1.2c0.2,0,0.5,0,0.8,0.1v2.6c-0.6-0.1-1-0.1-1.2-0.1
			c-0.4,0-0.8,0.1-1,0.4c-0.2,0.3-0.3,0.6-0.3,1.1v8.1H47.7z"/>
		<path fill="#553278" d="M53.9,46v-7.2c0-0.8,0.2-1.4,0.7-2s1.1-0.9,1.8-0.9c0.4,0,0.8,0.1,1.1,0.3c0.3,0.2,0.7,0.5,0.9,0.8v-5.4
			h3.1v16.7h-3.1v-0.9c-0.2,0.4-0.6,0.7-0.9,0.9c-0.4,0.2-0.8,0.3-1.2,0.3c-0.7,0-1.3-0.3-1.7-0.8C54.2,47.3,53.9,46.7,53.9,46z
			 M58.5,45.6V39c-0.4-0.5-0.6-0.7-0.9-0.7c-0.3,0-0.5,0.3-0.5,0.8v6.3c0,0.2,0,0.3,0,0.4c0,0.1,0.1,0.2,0.1,0.3
			c0.1,0.1,0.2,0.1,0.3,0.1C57.9,46.3,58.1,46,58.5,45.6z"/>
		<path fill="#553278" d="M62.8,45.4l2.4-0.9c0.1,0.2,0.1,0.3,0.1,0.4c0,0.1,0.1,0.3,0.2,0.4c0.1,0.2,0.2,0.3,0.3,0.5
			c0.1,0.1,0.2,0.2,0.3,0.3c0.1,0.1,0.3,0.1,0.4,0.1c0.4,0,0.6-0.2,0.6-0.7c0-0.2,0-0.3-0.1-0.5c-0.1-0.2-0.2-0.3-0.2-0.5
			c-0.1-0.1-0.2-0.3-0.4-0.5c-0.2-0.2-0.4-0.4-0.5-0.5c-0.1-0.1-0.3-0.3-0.6-0.5l-0.5-0.4c-0.7-0.6-1.2-1.1-1.6-1.7
			c-0.4-0.6-0.6-1.2-0.6-1.9c0-0.5,0.1-1,0.3-1.4c0.2-0.4,0.5-0.8,0.9-1s0.8-0.5,1.2-0.6c0.5-0.1,0.9-0.2,1.5-0.2
			c0.5,0,0.9,0.1,1.3,0.3c0.4,0.2,0.8,0.4,1.1,0.8c0.3,0.3,0.6,0.7,0.8,1.1c0.2,0.4,0.4,0.8,0.5,1.3l-2.2,0.8
			c-0.1-0.2-0.1-0.3-0.2-0.5c0-0.1-0.1-0.3-0.2-0.5c-0.1-0.2-0.2-0.4-0.3-0.5c-0.1-0.1-0.2-0.2-0.4-0.3c-0.1-0.1-0.3-0.1-0.5-0.1
			c-0.2,0-0.4,0.1-0.5,0.2c-0.1,0.2-0.2,0.3-0.2,0.5c0,0.3,0.1,0.6,0.5,0.9c0.3,0.3,0.7,0.7,1.2,1.2l0.6,0.5
			c0.3,0.3,0.6,0.5,0.8,0.8c0.2,0.2,0.5,0.5,0.7,0.8c0.2,0.3,0.4,0.6,0.5,1c0.1,0.3,0.2,0.7,0.2,1c0,1-0.3,1.8-1,2.4
			c-0.7,0.6-1.5,1-2.5,1c-0.9,0-1.8-0.3-2.4-0.9S63.1,46.4,62.8,45.4z"/>
		<path fill="#553278" d="M71.4,40v-2.9h3V40H71.4z M71.4,47V44h3V47H71.4z"/>
	</g>
</g>
<g>
</g>
<g>
</g>
<g>
</g>
<g>
</g>
<g>
</g>
<g>
</g>
</svg>
