<?xml version="1.0" encoding="utf-8"?>
<!-- Generator: Adobe Illustrator 19.2.1, SVG Export Plug-In . SVG Version: 6.00 Build 0)  -->
<svg version="1.1" xmlns="http://www.w3.org/2000/svg" xmlns:xlink="http://www.w3.org/1999/xlink" x="0px" y="0px" width="307.3px"
	 height="260.4px" viewBox="0 0 307.3 260.4" enable-background="new 0 0 307.3 260.4" xml:space="preserve">
<g id="scale">
	<path fill="#C7C8CA" d="M169.3,97.5v4.9c-3.9,0-7.8,0-11.7,0v-4.9H169.3z"/>
	<path fill="#C7C8CA" d="M157.6,103.9c3.8,0,7.8,0,11.7,0v33.9h-11.7V103.9z"/>
	<path fill="#C7C8CA" d="M212.1,200c-0.1,1-0.2,1.8-0.4,2.3c-1.8,5.7-114.9,1.7-141-8.3c-3.4-1.3-5.3-2.7-5.3-4.2
		c0-0.7,0.4-1.4,1.2-2.1c0,0,45.1-40.5,56.9-45.5c11.8-5.1,77.3-0.3,81.3,2C208.6,146.1,213.1,188.2,212.1,200z"/>
	<path fill="#8C8E90" d="M211.7,212.2c-2,6.4-145.8,0.5-146.3-12.5v-0.2l0-9.8c0,1.5,1.9,2.9,5.3,4.2c26.1,10,139.2,14,141,8.3
		c0.2-0.5,0.3-1.3,0.4-2.3C212.4,205.9,212.3,210.5,211.7,212.2z"/>
	<path fill="#553278" d="M197.4,194.4c-0.1,0.8-0.2,1.4-0.3,1.8c-1.4,4.5-91.9,1.4-112.8-6.6c-2.7-1-4.3-2.2-4.3-3.4
		c0-0.5,0.3-1.1,1-1.7c0,0,36.1-32.4,45.5-36.4c9.4-4,61.8-0.2,65.1,1.6C194.6,151.4,198.2,185,197.4,194.4z"/>
	<path fill="#C7C8CA" d="M206.6,90.3c-0.1,6.2-1.2,11.6-4.6,12c-3.2,0.3-17.5,0.3-32.7,0.3c-3.9,0-7.8,0-11.7,0
		c-15.3-0.1-28.7-0.2-28.7-0.2c-1.6,0-2.3-4.1-2.4-9.3c0-0.1,0-0.3,0-0.4c-0.1-9.2,1.9-21.8,5.4-22.6c5.7-1.3,72-2.7,73,2.7
		C205.5,75.4,206.7,83.3,206.6,90.3z"/>
	<path fill="#8C8E90" d="M169.3,102.5v1.5c-3.9,0-7.8,0-11.7,0v-1.5C161.5,102.5,165.4,102.5,169.3,102.5z"/>
	<path fill="#8C8E90" d="M199.9,95.6c0.8-4.5-1.2-14.8-1.7-17.8c-0.7-4-61-3.7-64-1.3c0,0-1.4,14.1-0.7,19.4c-1.9-1.6,0-21.3,0-21.3
		c3-2.3,64.7-2.7,65.3,1.3C199.6,79.5,202.4,93.3,199.9,95.6z"/>
	<path fill="#FFFFFF" d="M199.9,95.6c-0.2,0.2-0.6,0.3-0.9,0.3c-4-0.3-63.3,1.3-65.3,0c0,0,0,0,0,0c-0.7-5.3,0.7-19.4,0.7-19.4
		c2.9-2.3,63.3-2.7,64,1.3C198.7,80.8,200.7,91,199.9,95.6z"/>
	<g>
		<path fill="#81B441" d="M141.1,77.7c0,0,0.2,0.1,0.4,0.3c0.1,0.1,0.3,0.2,0.4,0.4c0.1,0.1,0.1,0.1,0.2,0.2c0.1,0.1,0,0.2,0,0.3
			c0,0.7,0,1.7,0.1,2.6c0,1,0,1.9,0.1,2.6c0,0.1,0.1,0.2,0,0.3c-0.1,0.1-0.1,0.2-0.2,0.2c-0.1,0.1-0.3,0.3-0.4,0.4
			c-0.2,0.2-0.4,0.3-0.4,0.3s-0.2-0.1-0.4-0.3c-0.1-0.1-0.3-0.2-0.4-0.4c-0.1-0.1-0.1-0.1-0.2-0.2c-0.1-0.1,0-0.2,0-0.3
			c0-0.7,0-1.7-0.1-2.6c0-1,0-1.9-0.1-2.6c0-0.1-0.1-0.2,0-0.3c0.1-0.1,0.1-0.2,0.2-0.2c0.1-0.1,0.3-0.3,0.4-0.4
			C140.9,77.8,141.1,77.7,141.1,77.7z"/>
	</g>
	<g>
		<path fill="#81B441" d="M141.2,85.9c0,0,0.2,0.1,0.4,0.3c0.1,0.1,0.3,0.2,0.4,0.4c0.1,0.1,0.1,0.1,0.2,0.2c0.1,0.1,0,0.2,0,0.3
			c0,0.7,0,1.7,0.1,2.6c0,1,0,1.9,0.1,2.6c0,0.1,0.1,0.2,0,0.3c-0.1,0.1-0.1,0.2-0.2,0.2c-0.1,0.1-0.3,0.3-0.4,0.4
			c-0.2,0.2-0.4,0.3-0.4,0.3s-0.2-0.1-0.4-0.3c-0.1-0.1-0.3-0.2-0.4-0.4c-0.1-0.1-0.1-0.1-0.2-0.2c-0.1-0.1,0-0.2,0-0.3
			c0-0.7,0-1.7-0.1-2.6c0-1,0-1.9-0.1-2.6c0-0.1-0.1-0.2,0-0.3c0.1-0.1,0.1-0.2,0.2-0.2c0.1-0.1,0.3-0.3,0.4-0.4
			C141.1,86.1,141.2,85.9,141.2,85.9z"/>
	</g>
	<g>
		<path fill="#81B441" d="M153.3,77.7c0,0,0.2,0.1,0.4,0.3c0.1,0.1,0.3,0.2,0.4,0.4c0.1,0.1,0.1,0.1,0.2,0.2c0.1,0.1,0,0.2,0,0.3
			c0,0.7,0,1.7,0.1,2.6c0,1,0,1.9,0.1,2.6c0,0.1,0.1,0.2,0,0.3c-0.1,0.1-0.1,0.2-0.2,0.2c-0.1,0.1-0.3,0.3-0.4,0.4
			c-0.2,0.2-0.4,0.3-0.4,0.3s-0.2-0.1-0.4-0.3c-0.1-0.1-0.3-0.2-0.4-0.4c-0.1-0.1-0.1-0.1-0.2-0.2c-0.1-0.1,0-0.2,0-0.3
			c0-0.7,0-1.7-0.1-2.6c0-1,0-1.9-0.1-2.6c0-0.1-0.1-0.2,0-0.3c0.1-0.1,0.1-0.2,0.2-0.2c0.1-0.1,0.3-0.3,0.4-0.4
			C153.1,77.8,153.3,77.7,153.3,77.7z"/>
	</g>
	<g>
		<path fill="#81B441" d="M145.8,77.9c0,0,0.2,0.1,0.4,0.3c0.1,0.1,0.3,0.2,0.4,0.4c0.1,0.1,0.1,0.1,0.2,0.2c0.1,0.1,0,0.2,0,0.3
			c0,0.7,0,1.7,0.1,2.6c0,1,0,1.9,0.1,2.6c0,0.1,0.1,0.2,0,0.3c-0.1,0.1-0.1,0.2-0.2,0.2c-0.1,0.1-0.3,0.3-0.4,0.4
			c-0.2,0.2-0.4,0.3-0.4,0.3s-0.2-0.1-0.4-0.3c-0.1-0.1-0.3-0.2-0.4-0.4c-0.1-0.1-0.1-0.1-0.2-0.2c-0.1-0.1,0-0.2,0-0.3
			c0-0.7,0-1.7-0.1-2.6s0-1.9-0.1-2.6c0-0.1-0.1-0.2,0-0.3c0.1-0.1,0.1-0.2,0.2-0.2c0.1-0.1,0.3-0.3,0.4-0.4
			C145.6,78,145.8,77.9,145.8,77.9z"/>
	</g>
	<g>
		<path fill="#81B441" d="M153.5,85.9c0,0,0.2,0.1,0.4,0.3c0.1,0.1,0.3,0.2,0.4,0.4c0.1,0.1,0.1,0.1,0.2,0.2c0.1,0.1,0,0.2,0,0.3
			c0,0.7,0,1.7,0.1,2.6c0,1,0,1.9,0.1,2.6c0,0.1,0.1,0.2,0,0.3c-0.1,0.1-0.1,0.2-0.2,0.2c-0.1,0.1-0.3,0.3-0.4,0.4
			c-0.2,0.2-0.4,0.3-0.4,0.3s-0.2-0.1-0.4-0.3c-0.1-0.1-0.3-0.2-0.4-0.4c-0.1-0.1-0.1-0.1-0.2-0.2c-0.1-0.1,0-0.2,0-0.3
			c0-0.7,0-1.7-0.1-2.6c0-1,0-1.9-0.1-2.6c0-0.1-0.1-0.2,0-0.3c0.1-0.1,0.1-0.2,0.2-0.2c0.1-0.1,0.3-0.3,0.4-0.4
			C153.3,86,153.5,85.9,153.5,85.9z"/>
	</g>
	<g>
		<path fill="#81B441" d="M146.4,77.7c0,0,0.1-0.2,0.3-0.4c0.1-0.1,0.2-0.3,0.3-0.4c0.1-0.1,0.1-0.1,0.2-0.2c0.1-0.1,0.1,0,0.2,0
			c0.6,0,1.4,0,2.2,0s1.6,0,2.2,0c0.1,0,0.1-0.1,0.2,0c0.1,0.1,0.1,0.2,0.2,0.2c0.1,0.1,0.2,0.3,0.3,0.4c0.2,0.2,0.3,0.4,0.3,0.4
			s-0.1,0.2-0.3,0.4c-0.1,0.1-0.2,0.3-0.3,0.4c-0.1,0.1-0.1,0.1-0.2,0.2c-0.1,0.1-0.1,0-0.2,0c-0.6,0-1.4,0-2.2,0
			c-0.8,0-1.6,0-2.2,0c-0.1,0-0.1,0.1-0.2,0c-0.1-0.1-0.1-0.2-0.2-0.2c-0.1-0.1-0.2-0.3-0.3-0.4C146.5,77.9,146.4,77.7,146.4,77.7z"
			/>
	</g>
	<g>
		<path fill="#81B441" d="M146.4,85.9c0,0,0.1-0.2,0.3-0.4c0.1-0.1,0.2-0.3,0.3-0.4c0.1-0.1,0.1-0.1,0.2-0.2c0.1-0.1,0.1,0,0.2,0
			c0.6,0,1.4,0,2.2,0c0.8,0,1.6,0,2.2,0c0.1,0,0.1-0.1,0.2,0c0.1,0.1,0.1,0.2,0.2,0.2c0.1,0.1,0.2,0.3,0.3,0.4
			c0.2,0.2,0.3,0.4,0.3,0.4s-0.1,0.2-0.3,0.4c-0.1,0.1-0.2,0.3-0.3,0.4c-0.1,0.1-0.1,0.1-0.2,0.2c-0.1,0.1-0.1,0-0.2,0
			c-0.6,0-1.4,0-2.2,0c-0.8,0-1.6,0-2.2,0c-0.1,0-0.1,0.1-0.2,0c-0.1-0.1-0.1-0.2-0.2-0.2c-0.1-0.1-0.2-0.3-0.3-0.4
			C146.5,86,146.4,85.9,146.4,85.9z"/>
	</g>
	<g>
		<path fill="#81B441" d="M165.7,77.4c0,0,0.2,0.1,0.4,0.3c0.1,0.1,0.3,0.2,0.4,0.4c0.1,0.1,0.1,0.1,0.2,0.2c0.1,0.1,0,0.2,0,0.3
			c0,0.7,0,1.7,0.1,2.6s0,1.9,0.1,2.6c0,0.1,0.1,0.2,0,0.3c-0.1,0.1-0.1,0.2-0.2,0.2c-0.1,0.1-0.3,0.3-0.4,0.4
			c-0.2,0.2-0.4,0.3-0.4,0.3s-0.2-0.1-0.4-0.3c-0.1-0.1-0.3-0.2-0.4-0.4c-0.1-0.1-0.1-0.1-0.2-0.2c-0.1-0.1,0-0.2,0-0.3
			c0-0.7,0-1.7-0.1-2.6c0-1,0-1.9-0.1-2.6c0-0.1-0.1-0.2,0-0.3c0.1-0.1,0.1-0.2,0.2-0.2c0.1-0.1,0.3-0.3,0.4-0.4
			C165.5,77.5,165.7,77.4,165.7,77.4z"/>
	</g>
	<g>
		<path fill="#81B441" d="M158.2,78c0,0,0.2,0.1,0.4,0.3c0.1,0.1,0.3,0.2,0.4,0.4c0.1,0.1,0.1,0.1,0.2,0.2c0.1,0.1,0,0.2,0,0.3
			c0,0.7,0,1.7,0.1,2.6c0,1,0,1.9,0.1,2.6c0,0.1,0.1,0.2,0,0.3c-0.1,0.1-0.1,0.2-0.2,0.2c-0.1,0.1-0.3,0.3-0.4,0.4
			c-0.2,0.2-0.4,0.3-0.4,0.3s-0.2-0.1-0.4-0.3c-0.1-0.1-0.3-0.2-0.4-0.4c-0.1-0.1-0.1-0.1-0.2-0.2c-0.1-0.1,0-0.2,0-0.3
			c0-0.7,0-1.7-0.1-2.6c0-1,0-1.9-0.1-2.6c0-0.1-0.1-0.2,0-0.3c0.1-0.1,0.1-0.2,0.2-0.2c0.1-0.1,0.3-0.3,0.4-0.4
			C158.1,78.1,158.2,78,158.2,78z"/>
	</g>
	<g>
		<path fill="#81B441" d="M165.8,85.6c0,0,0.2,0.1,0.4,0.3c0.1,0.1,0.3,0.2,0.4,0.4c0.1,0.1,0.1,0.1,0.2,0.2c0.1,0.1,0,0.2,0,0.3
			c0,0.7,0,1.7,0.1,2.6c0,1,0,1.9,0.1,2.6c0,0.1,0.1,0.2,0,0.3c-0.1,0.1-0.1,0.2-0.2,0.2c-0.1,0.1-0.3,0.3-0.4,0.4
			c-0.2,0.2-0.4,0.3-0.4,0.3s-0.2-0.1-0.4-0.3c-0.1-0.1-0.3-0.2-0.4-0.4c-0.1-0.1-0.1-0.1-0.2-0.2c-0.1-0.1,0-0.2,0-0.3
			c0-0.7,0-1.7-0.1-2.6c0-1,0-1.9-0.1-2.6c0-0.1-0.1-0.2,0-0.3c0.1-0.1,0.1-0.2,0.2-0.2c0.1-0.1,0.3-0.3,0.4-0.4
			C165.7,85.7,165.8,85.6,165.8,85.6z"/>
	</g>
	<g>
		<path fill="#81B441" d="M158.2,85.9c0,0,0.2,0.1,0.4,0.3c0.1,0.1,0.3,0.2,0.4,0.4c0.1,0.1,0.1,0.1,0.2,0.2c0.1,0.1,0,0.2,0,0.3
			c0,0.7,0,1.7,0.1,2.6s0,1.9,0.1,2.6c0,0.1,0.1,0.2,0,0.3c-0.1,0.1-0.1,0.2-0.2,0.2c-0.1,0.1-0.3,0.3-0.4,0.4
			c-0.2,0.2-0.4,0.3-0.4,0.3s-0.2-0.1-0.4-0.3c-0.1-0.1-0.3-0.2-0.4-0.4c-0.1-0.1-0.1-0.1-0.2-0.2c-0.1-0.1,0-0.2,0-0.3
			c0-0.7,0-1.7-0.1-2.6c0-1,0-1.9-0.1-2.6c0-0.1-0.1-0.2,0-0.3c0.1-0.1,0.1-0.2,0.2-0.2c0.1-0.1,0.3-0.3,0.4-0.4
			C158.1,86,158.2,85.9,158.2,85.9z"/>
	</g>
	<g>
		<path fill="#81B441" d="M158.7,77.4c0,0,0.1-0.2,0.3-0.4c0.1-0.1,0.2-0.3,0.3-0.4c0.1-0.1,0.1-0.1,0.2-0.2c0.1-0.1,0.1,0,0.2,0
			c0.6,0,1.4,0,2.2,0c0.8,0,1.6,0,2.2,0c0.1,0,0.1-0.1,0.2,0c0.1,0.1,0.1,0.2,0.2,0.2c0.1,0.1,0.2,0.3,0.3,0.4
			c0.2,0.2,0.3,0.4,0.3,0.4s-0.1,0.2-0.3,0.4c-0.1,0.1-0.2,0.3-0.3,0.4c-0.1,0.1-0.1,0.1-0.2,0.2c-0.1,0.1-0.1,0-0.2,0
			c-0.6,0-1.4,0-2.2,0s-1.6,0-2.2,0c-0.1,0-0.1,0.1-0.2,0c-0.1-0.1-0.1-0.2-0.2-0.2c-0.1-0.1-0.2-0.3-0.3-0.4
			C158.8,77.6,158.7,77.4,158.7,77.4z"/>
	</g>
	<g>
		<path fill="#81B441" d="M159.1,93.6c0,0,0.1-0.2,0.3-0.4c0.1-0.1,0.2-0.3,0.3-0.4c0.1-0.1,0.1-0.1,0.2-0.2c0.1-0.1,0.1,0,0.2,0
			c0.6,0,1.4,0,2.2,0c0.8,0,1.6,0,2.2,0c0.1,0,0.1-0.1,0.2,0c0.1,0.1,0.1,0.2,0.2,0.2c0.1,0.1,0.2,0.3,0.3,0.4
			c0.2,0.2,0.3,0.4,0.3,0.4s-0.1,0.2-0.3,0.4c-0.1,0.1-0.2,0.3-0.3,0.4c-0.1,0.1-0.1,0.1-0.2,0.2c-0.1,0.1-0.1,0-0.2,0
			c-0.6,0-1.4,0-2.2,0s-1.6,0-2.2,0c-0.1,0-0.1,0.1-0.2,0c-0.1-0.1-0.1-0.2-0.2-0.2c-0.1-0.1-0.2-0.3-0.3-0.4
			C159.2,93.7,159.1,93.6,159.1,93.6z"/>
	</g>
	<g>
		<path fill="#81B441" d="M188.4,77.9c0,0,0.2,0.1,0.4,0.3c0.1,0.1,0.3,0.2,0.4,0.4c0.1,0.1,0.1,0.1,0.2,0.2c0.1,0.1,0,0.2,0,0.3
			c0,0.7,0,1.7,0.1,2.6c0,1,0,1.9,0.1,2.6c0,0.1,0.1,0.2,0,0.3c-0.1,0.1-0.1,0.2-0.2,0.2c-0.1,0.1-0.3,0.3-0.4,0.4
			c-0.2,0.2-0.4,0.3-0.4,0.3s-0.2-0.1-0.4-0.3c-0.1-0.1-0.3-0.2-0.4-0.4c-0.1-0.1-0.1-0.1-0.2-0.2c-0.1-0.1,0-0.2,0-0.3
			c0-0.7,0-1.7-0.1-2.6s0-1.9-0.1-2.6c0-0.1-0.1-0.2,0-0.3c0.1-0.1,0.1-0.2,0.2-0.2c0.1-0.1,0.3-0.3,0.4-0.4
			C188.3,78,188.4,77.9,188.4,77.9z"/>
	</g>
	<g>
		<path fill="#81B441" d="M188.4,85.8c0,0,0.2,0.1,0.4,0.3c0.1,0.1,0.3,0.2,0.4,0.4c0.1,0.1,0.1,0.1,0.2,0.2c0.1,0.1,0,0.2,0,0.3
			c0,0.7,0,1.7,0.1,2.6c0,1,0,1.9,0.1,2.6c0,0.1,0.1,0.2,0,0.3c-0.1,0.1-0.1,0.2-0.2,0.2c-0.1,0.1-0.3,0.3-0.4,0.4
			c-0.2,0.2-0.4,0.3-0.4,0.3s-0.2-0.1-0.4-0.3c-0.1-0.1-0.3-0.2-0.4-0.4c-0.1-0.1-0.1-0.1-0.2-0.2c-0.1-0.1,0-0.2,0-0.3
			c0-0.7,0-1.7-0.1-2.6s0-1.9-0.1-2.6c0-0.1-0.1-0.2,0-0.3c0.1-0.1,0.1-0.2,0.2-0.2c0.1-0.1,0.3-0.3,0.4-0.4
			C188.3,85.9,188.4,85.8,188.4,85.8z"/>
	</g>
	<g>
		<path fill="#81B441" d="M189.5,85.7c0,0,0.1-0.2,0.3-0.4c0.1-0.1,0.2-0.3,0.3-0.4c0.1-0.1,0.1-0.1,0.2-0.2c0.1-0.1,0.1,0,0.2,0
			c0.6,0,1.4,0,2.2,0c0.8,0,1.6,0,2.2,0c0.1,0,0.1-0.1,0.2,0c0.1,0.1,0.1,0.2,0.2,0.2c0.1,0.1,0.2,0.3,0.3,0.4
			c0.2,0.2,0.3,0.4,0.3,0.4s-0.1,0.2-0.3,0.4c-0.1,0.1-0.2,0.3-0.3,0.4c-0.1,0.1-0.1,0.1-0.2,0.2c-0.1,0.1-0.1,0-0.2,0
			c-0.6,0-1.4,0-2.2,0c-0.8,0-1.6,0-2.2,0c-0.1,0-0.1,0.1-0.2,0c-0.1-0.1-0.1-0.2-0.2-0.2c-0.1-0.1-0.2-0.3-0.3-0.4
			C189.6,85.9,189.5,85.7,189.5,85.7z"/>
	</g>
	<g>
		<path fill="#81B441" d="M189.3,93.8c0,0,0.1-0.2,0.3-0.4c0.1-0.1,0.2-0.3,0.3-0.4c0.1-0.1,0.1-0.1,0.2-0.2c0.1-0.1,0.1,0,0.2,0
			c0.6,0,1.4,0,2.2,0c0.8,0,1.6,0,2.2,0c0.1,0,0.1-0.1,0.2,0c0.1,0.1,0.1,0.2,0.2,0.2c0.1,0.1,0.2,0.3,0.3,0.4
			c0.2,0.2,0.3,0.4,0.3,0.4s-0.1,0.2-0.3,0.4c-0.1,0.1-0.2,0.3-0.3,0.4c-0.1,0.1-0.1,0.1-0.2,0.2c-0.1,0.1-0.1,0-0.2,0
			c-0.6,0-1.4,0-2.2,0c-0.8,0-1.6,0-2.2,0c-0.1,0-0.1,0.1-0.2,0c-0.1-0.1-0.1-0.2-0.2-0.2c-0.1-0.1-0.2-0.3-0.3-0.4
			C189.4,93.9,189.3,93.8,189.3,93.8z"/>
	</g>
	<path fill="#33134D" d="M111.8,173.2c0,0-6.6,4.5,0.5,9.7s14.5,8,33.9,1.6s21.5-8,34.9-7.6s16.9-8.1,13-11.7
		S111.8,173.2,111.8,173.2z"/>
</g>
<g id="whale-text">
	<g>
		<rect x="32.2" y="77.6" fill="none" width="108.8" height="68.8"/>
		<path fill="#553278" d="M32.6,89.5l3.4-0.7c0,0.3,0,0.6,0,0.9c0,0.3,0,0.5,0.1,0.8c0.1,0.3,0.1,0.6,0.2,0.8
			c0.1,0.2,0.2,0.4,0.4,0.5c0.2,0.1,0.4,0.2,0.6,0.2c0.7,0,1-0.4,1-1.3c0-1.2-0.7-2.3-2-3.5l-1-0.9c-0.3-0.3-0.6-0.5-0.8-0.7
			c-0.2-0.2-0.4-0.4-0.7-0.8c-0.3-0.3-0.5-0.6-0.6-0.9c-0.2-0.3-0.3-0.6-0.4-1.1c-0.1-0.4-0.2-0.9-0.2-1.3c0-1.4,0.4-2.4,1.3-3.2
			c0.9-0.8,2-1.2,3.4-1.2c1.2,0,2.2,0.4,3,1.3c0.8,0.8,1.2,1.9,1.2,3l0,0.1c0,0.1,0,0.2,0,0.3l-3.5,0.5c0-0.1,0-0.2,0-0.3
			c0-0.1,0-0.3,0-0.4c0-0.2,0-0.4,0-0.6c0-0.2-0.1-0.4-0.2-0.6c-0.1-0.2-0.2-0.4-0.3-0.5c-0.1-0.1-0.3-0.2-0.5-0.2
			c-0.4,0-0.6,0.1-0.8,0.4c-0.2,0.3-0.3,0.6-0.3,1c0,0.3,0.1,0.7,0.2,1c0.1,0.3,0.3,0.6,0.5,0.8c0.2,0.3,0.4,0.5,0.6,0.7
			c0.2,0.2,0.4,0.4,0.7,0.6c0.3,0.3,0.5,0.4,0.7,0.6c0.5,0.4,0.9,0.8,1.2,1.2c0.3,0.4,0.6,0.8,0.9,1.2c0.3,0.5,0.5,1,0.7,1.5
			c0.1,0.5,0.2,1.1,0.2,1.7c0,1.2-0.4,2.1-1.3,2.9c-0.8,0.7-1.8,1.1-3,1.1c-0.8,0-1.5-0.1-2.1-0.4c-0.6-0.3-1.1-0.7-1.5-1.2
			c-0.4-0.5-0.7-1-0.8-1.6C32.8,90.8,32.7,90.2,32.6,89.5z"/>
		<path fill="#553278" d="M42.9,81.1v-2.9H46v2.9H42.9z M42.9,94.3V82.2H46v12.1H42.9z"/>
		<path fill="#553278" d="M47.4,94.3v-2.1l3.3-7.7h-2.8v-2.3h6v2.1L50.6,92H54v2.3H47.4z"/>
		<path fill="#553278" d="M55.2,91.1V86c0-1.3,0.3-2.3,0.9-3c0.6-0.7,1.5-1.1,2.8-1.1c1.3,0,2.2,0.4,2.8,1.1c0.6,0.7,0.9,1.7,0.9,3
			v2.5h-4.3v2.7c0,0.7,0.2,1,0.6,1c0.4,0,0.6-0.4,0.6-1.1v-1.3h3.1v1.4c0,1-0.4,1.8-1.1,2.5c-0.7,0.6-1.6,1-2.6,1s-1.9-0.3-2.6-1
			C55.5,93,55.2,92.1,55.2,91.1z M58.3,86.8h1.2v-1.7c0-0.6-0.2-0.9-0.6-0.9c-0.4,0-0.6,0.3-0.6,0.9V86.8z"/>
		<path fill="#FFFFFF" d="M33.8,106.3v-7.6h-1.6v-1.1h4.4v1.1H35v7.6H33.8z"/>
		<path fill="#FFFFFF" d="M37.2,106.3v-8.8h1.2v3.2c0.2-0.2,0.3-0.3,0.5-0.4s0.3-0.2,0.5-0.3s0.4-0.1,0.7-0.1c0.3,0,0.5,0.1,0.6,0.3
			s0.2,0.4,0.2,0.7v5.3h-1.2v-4.7c0-0.2,0-0.4-0.1-0.5s-0.2-0.2-0.3-0.2c-0.3,0-0.5,0.1-0.8,0.4v4.9H37.2z"/>
		<path fill="#FFFFFF" d="M43.8,106.4c-0.3,0-0.6-0.1-0.8-0.2s-0.4-0.2-0.5-0.4s-0.2-0.4-0.3-0.6s-0.1-0.5-0.2-0.8s0-0.6-0.1-0.9
			c0-0.3,0-0.5,0-0.8c0-0.3,0-0.6,0.1-0.9s0.1-0.5,0.2-0.7s0.2-0.4,0.3-0.6s0.3-0.3,0.5-0.4s0.5-0.1,0.8-0.1c0.3,0,0.5,0,0.7,0.1
			s0.4,0.2,0.5,0.3s0.2,0.3,0.3,0.5s0.2,0.4,0.2,0.6s0.1,0.5,0.1,0.7s0,0.5,0,0.8v0.1h-2.5v0.3c0,0,0,0.1,0,0.2c0,0.1,0,0.2,0,0.4
			s0,0.3,0,0.4s0,0.2,0.1,0.4s0.1,0.2,0.1,0.3s0.1,0.2,0.2,0.2s0.2,0.1,0.3,0.1c0.1,0,0.2,0,0.3-0.1s0.1-0.1,0.2-0.2
			s0.1-0.2,0.1-0.3s0-0.2,0-0.4v-0.3h1.2v0.2c0,0.7-0.2,1.2-0.5,1.5S44.4,106.4,43.8,106.4z M43.1,102.5h1.2v-0.4c0-0.2,0-0.3,0-0.4
			s0-0.2-0.1-0.4s-0.1-0.2-0.2-0.3s-0.2-0.1-0.3-0.1c-0.1,0-0.2,0-0.3,0.1s-0.1,0.2-0.2,0.3s-0.1,0.3-0.1,0.4s0,0.3,0,0.4V102.5z"/>
		<path fill="#FFFFFF" d="M51.1,106.4c-0.3,0-0.5-0.1-0.7-0.2s-0.4-0.3-0.6-0.5v0.6h-1.2v-8.7h1.2v3.1c0.1-0.1,0.2-0.2,0.3-0.3
			s0.1-0.1,0.3-0.2s0.2-0.1,0.3-0.2s0.3-0.1,0.4-0.1c0.2,0,0.4,0,0.6,0.1s0.3,0.2,0.4,0.3s0.2,0.3,0.3,0.5s0.1,0.4,0.2,0.5
			s0.1,0.4,0.1,0.7s0,0.5,0,0.7s0,0.4,0,0.7v0.1c0,0.3,0,0.5,0,0.8s-0.1,0.5-0.2,0.8s-0.2,0.5-0.3,0.7s-0.3,0.3-0.4,0.5
			S51.3,106.4,51.1,106.4z M50.8,105.3c0.1,0,0.2,0,0.3-0.1s0.2-0.2,0.2-0.4s0.1-0.4,0.1-0.5s0-0.4,0-0.6c0-0.2,0-0.4,0-0.7
			s0-0.5,0-0.7s0-0.3,0-0.4s0-0.2,0-0.3s-0.1-0.2-0.1-0.3s-0.1-0.1-0.2-0.2s-0.2-0.1-0.3-0.1c-0.3,0-0.7,0.1-0.9,0.2v3.9
			C50.2,105.3,50.5,105.3,50.8,105.3z"/>
		<path fill="#FFFFFF" d="M53.7,99.1v-1.2H55v1.2H53.7z M53.7,106.3V100H55v6.2H53.7z"/>
		<path fill="#FFFFFF" d="M58.1,108.1c-0.2,0-0.3,0-0.4,0s-0.2,0-0.4,0s-0.3,0-0.4,0s-0.2,0-0.4-0.1s-0.3-0.1-0.4-0.1
			s-0.2-0.1-0.3-0.2s-0.2-0.1-0.2-0.2s-0.1-0.2-0.1-0.3c0-0.3,0.1-0.6,0.3-0.8s0.4-0.4,0.7-0.6c-0.2,0-0.3-0.1-0.4-0.2
			s-0.2-0.2-0.2-0.3c0-0.1,0-0.1,0-0.2s0-0.1,0-0.2s0-0.1,0.1-0.2s0.1-0.1,0.1-0.2s0.1-0.1,0.1-0.2s0.1-0.1,0.1-0.1s0.1-0.1,0.1-0.1
			s0.1-0.1,0.1-0.1c-0.4-0.5-0.6-1.1-0.6-1.9c0-0.4,0.1-0.8,0.2-1.2s0.3-0.6,0.6-0.8s0.6-0.3,1-0.3c0.2,0,0.4,0,0.6,0.1
			s0.3,0.1,0.4,0.2s0.2,0.2,0.3,0.4c0.2-0.5,0.6-0.7,1.1-0.7c0,0,0,0,0,0s0,0,0,0s0,0,0,0v1c0,0,0,0-0.1,0c-0.1,0-0.2,0-0.3,0
			s-0.2,0-0.2,0s-0.2,0.1-0.2,0.1c0.1,0.1,0.1,0.3,0.2,0.5s0.1,0.4,0.1,0.6c0,0.4-0.1,0.8-0.2,1.2s-0.3,0.6-0.6,0.8s-0.6,0.3-1,0.3
			l-0.6-0.1c0,0,0,0,0,0.1s0,0.1-0.1,0.1s0,0.1,0,0.1s0,0.1,0,0.1c0,0.1,0,0.2,0.1,0.2s0.2,0.1,0.3,0.1s0.3,0,0.4,0.1s0.3,0,0.4,0
			s0.3,0,0.3,0c0.2,0,0.4,0.1,0.5,0.1s0.3,0.1,0.4,0.1s0.3,0.1,0.4,0.2s0.2,0.2,0.2,0.4s0.1,0.3,0.1,0.5c0,0.2,0,0.4-0.1,0.6
			s-0.2,0.3-0.3,0.4s-0.3,0.2-0.5,0.3s-0.4,0.1-0.6,0.2S58.4,108.1,58.1,108.1z M58.1,107.2c0.1,0,0.2,0,0.2,0s0.2,0,0.2,0
			s0.2,0,0.2,0s0.1,0,0.2-0.1s0.1-0.1,0.1-0.1s0-0.1,0-0.2c0-0.3-0.3-0.6-1-0.6l-1-0.1c-0.1,0.1-0.2,0.2-0.3,0.4s-0.1,0.4-0.1,0.5
			c0,0.1,0,0.1,0.1,0.1s0.1,0.1,0.2,0.1s0.1,0,0.2,0s0.2,0,0.3,0s0.2,0,0.3,0s0.2,0,0.3,0S58.1,107.2,58.1,107.2z M57.8,103.5
			c0.5,0,0.8-0.4,0.8-1.3c0-0.2,0-0.3,0-0.5s-0.1-0.3-0.1-0.4s-0.1-0.3-0.2-0.3s-0.2-0.1-0.4-0.1c-0.2,0-0.3,0-0.4,0.1
			s-0.2,0.2-0.2,0.3s-0.1,0.3-0.1,0.4s0,0.3,0,0.5C57.1,103.1,57.3,103.5,57.8,103.5z"/>
		<path fill="#FFFFFF" d="M62.6,108.1c-0.2,0-0.3,0-0.4,0s-0.2,0-0.4,0s-0.3,0-0.4,0s-0.2,0-0.4-0.1s-0.3-0.1-0.4-0.1
			s-0.2-0.1-0.3-0.2s-0.2-0.1-0.2-0.2s-0.1-0.2-0.1-0.3c0-0.3,0.1-0.6,0.3-0.8s0.4-0.4,0.7-0.6c-0.2,0-0.3-0.1-0.4-0.2
			s-0.2-0.2-0.2-0.3c0-0.1,0-0.1,0-0.2s0-0.1,0-0.2s0-0.1,0.1-0.2s0.1-0.1,0.1-0.2s0.1-0.1,0.1-0.2s0.1-0.1,0.1-0.1s0.1-0.1,0.1-0.1
			s0.1-0.1,0.1-0.1c-0.4-0.5-0.6-1.1-0.6-1.9c0-0.4,0.1-0.8,0.2-1.2s0.3-0.6,0.6-0.8s0.6-0.3,1-0.3c0.2,0,0.4,0,0.6,0.1
			s0.3,0.1,0.4,0.2s0.2,0.2,0.3,0.4c0.2-0.5,0.6-0.7,1.1-0.7c0,0,0,0,0,0s0,0,0,0s0,0,0,0v1c0,0,0,0-0.1,0c-0.1,0-0.2,0-0.3,0
			s-0.2,0-0.2,0s-0.2,0.1-0.2,0.1c0.1,0.1,0.1,0.3,0.2,0.5s0.1,0.4,0.1,0.6c0,0.4-0.1,0.8-0.2,1.2s-0.3,0.6-0.6,0.8s-0.6,0.3-1,0.3
			l-0.6-0.1c0,0,0,0,0,0.1s0,0.1-0.1,0.1s0,0.1,0,0.1s0,0.1,0,0.1c0,0.1,0,0.2,0.1,0.2s0.2,0.1,0.3,0.1s0.3,0,0.4,0.1s0.3,0,0.4,0
			s0.3,0,0.3,0c0.2,0,0.4,0.1,0.5,0.1s0.3,0.1,0.4,0.1s0.3,0.1,0.4,0.2s0.2,0.2,0.2,0.4s0.1,0.3,0.1,0.5c0,0.2,0,0.4-0.1,0.6
			s-0.2,0.3-0.3,0.4s-0.3,0.2-0.5,0.3s-0.4,0.1-0.6,0.2S62.8,108.1,62.6,108.1z M62.6,107.2c0.1,0,0.2,0,0.2,0s0.2,0,0.2,0
			s0.2,0,0.2,0s0.1,0,0.2-0.1s0.1-0.1,0.1-0.1s0-0.1,0-0.2c0-0.3-0.3-0.6-1-0.6l-1-0.1c-0.1,0.1-0.2,0.2-0.3,0.4s-0.1,0.4-0.1,0.5
			c0,0.1,0,0.1,0.1,0.1s0.1,0.1,0.2,0.1s0.1,0,0.2,0s0.2,0,0.3,0s0.2,0,0.3,0s0.2,0,0.3,0S62.6,107.2,62.6,107.2z M62.3,103.5
			c0.5,0,0.8-0.4,0.8-1.3c0-0.2,0-0.3,0-0.5s-0.1-0.3-0.1-0.4s-0.1-0.3-0.2-0.3s-0.2-0.1-0.4-0.1c-0.2,0-0.3,0-0.4,0.1
			s-0.2,0.2-0.2,0.3s-0.1,0.3-0.1,0.4s0,0.3,0,0.5C61.5,103.1,61.8,103.5,62.3,103.5z"/>
		<path fill="#FFFFFF" d="M66.9,106.4c-0.3,0-0.6-0.1-0.8-0.2s-0.4-0.2-0.5-0.4s-0.2-0.4-0.3-0.6s-0.1-0.5-0.2-0.8s0-0.6-0.1-0.9
			c0-0.3,0-0.5,0-0.8c0-0.3,0-0.6,0.1-0.9s0.1-0.5,0.2-0.7s0.2-0.4,0.3-0.6s0.3-0.3,0.5-0.4s0.5-0.1,0.8-0.1c0.3,0,0.5,0,0.7,0.1
			s0.4,0.2,0.5,0.3s0.2,0.3,0.3,0.5s0.2,0.4,0.2,0.6s0.1,0.5,0.1,0.7s0,0.5,0,0.8v0.1h-2.5v0.3c0,0,0,0.1,0,0.2c0,0.1,0,0.2,0,0.4
			s0,0.3,0,0.4s0,0.2,0.1,0.4s0.1,0.2,0.1,0.3s0.1,0.2,0.2,0.2s0.2,0.1,0.3,0.1c0.1,0,0.2,0,0.3-0.1s0.1-0.1,0.2-0.2
			s0.1-0.2,0.1-0.3s0-0.2,0-0.4v-0.3h1.2v0.2c0,0.7-0.2,1.2-0.5,1.5S67.5,106.4,66.9,106.4z M66.3,102.5h1.2v-0.4c0-0.2,0-0.3,0-0.4
			s0-0.2-0.1-0.4s-0.1-0.2-0.2-0.3S67,101,66.9,101c-0.1,0-0.2,0-0.3,0.1s-0.1,0.2-0.2,0.3s-0.1,0.3-0.1,0.4s0,0.3,0,0.4V102.5z"/>
		<path fill="#FFFFFF" d="M71.3,106.4c-0.5,0-0.9-0.2-1.2-0.5s-0.5-0.7-0.6-1.2l0.9-0.3c0.2,0.6,0.5,0.9,0.9,0.9
			c0.2,0,0.4-0.1,0.5-0.2s0.2-0.3,0.2-0.5c0-0.3-0.1-0.5-0.3-0.7l-1.2-0.9c-0.1-0.1-0.3-0.2-0.4-0.3s-0.2-0.2-0.3-0.3
			s-0.2-0.3-0.2-0.4s-0.1-0.3-0.1-0.5c0-0.5,0.2-0.9,0.5-1.2s0.8-0.4,1.4-0.4c0.3,0,0.5,0,0.7,0.1s0.4,0.2,0.5,0.4s0.3,0.3,0.4,0.5
			s0.2,0.4,0.2,0.6l-0.9,0.3c0-0.1-0.1-0.2-0.1-0.3s-0.1-0.2-0.2-0.3s-0.2-0.2-0.3-0.2s-0.2-0.1-0.3-0.1c-0.2,0-0.4,0.1-0.5,0.2
			s-0.2,0.3-0.2,0.5c0,0.2,0.1,0.4,0.3,0.5l1.2,0.9c0.1,0.1,0.3,0.2,0.4,0.3s0.2,0.2,0.3,0.4s0.2,0.3,0.2,0.5s0.1,0.3,0.1,0.5
			c0,0.5-0.2,0.9-0.5,1.2S71.9,106.4,71.3,106.4z"/>
		<path fill="#FFFFFF" d="M75.7,106.4c-0.5,0-0.8-0.1-1.1-0.4s-0.3-0.6-0.3-1.1V101h-0.6V100h0.6v-2.2h1.2v2.2h0.9v0.9h-0.9v3.6
			c0,0.3,0,0.4,0.1,0.6s0.2,0.2,0.4,0.2c0.1,0,0.2,0,0.4,0v1C76.2,106.3,75.9,106.4,75.7,106.4z"/>
		<path fill="#FFFFFF" d="M80.5,106.4c-0.3,0-0.6-0.2-0.9-0.5s-0.4-0.6-0.4-1c0-0.3,0.1-0.6,0.2-0.8s0.2-0.4,0.3-0.6
			s0.3-0.3,0.6-0.5s0.5-0.3,0.6-0.3s0.4-0.2,0.7-0.3c0.1,0,0.1,0,0.1-0.1v-0.4c0-0.3,0-0.6-0.1-0.7s-0.3-0.3-0.5-0.3
			c-0.2,0-0.4,0.1-0.5,0.2s-0.1,0.4-0.2,0.6c0,0,0,0.1,0,0.2h-1.2c0-0.6,0.2-1.1,0.5-1.4s0.8-0.5,1.4-0.5c0.6,0,1,0.2,1.4,0.5
			s0.5,0.8,0.5,1.4v2.8c0,0.7,0.1,1.2,0.2,1.6h-1.2l-0.2-0.9c-0.1,0.1-0.1,0.2-0.2,0.3s-0.1,0.2-0.2,0.3s-0.2,0.2-0.2,0.2
			s-0.2,0.1-0.3,0.1S80.6,106.4,80.5,106.4z M81.1,105.3c0.1,0,0.2,0,0.3-0.1s0.1-0.1,0.2-0.2s0.1-0.1,0.2-0.2c0,0,0,0,0,0v-1.7
			c-0.1,0-0.1,0.1-0.3,0.2s-0.2,0.1-0.3,0.2s-0.2,0.1-0.3,0.2s-0.2,0.2-0.2,0.2s-0.1,0.2-0.1,0.3s-0.1,0.2-0.1,0.3
			C80.5,105.1,80.7,105.3,81.1,105.3z"/>
		<path fill="#FFFFFF" d="M84.1,106.3V100h1.2v0.7c0.2-0.2,0.3-0.3,0.5-0.4s0.3-0.2,0.5-0.3s0.4-0.1,0.7-0.1c0.3,0,0.5,0.1,0.6,0.3
			s0.2,0.4,0.2,0.7v5.3h-1.2v-4.7c0-0.2,0-0.4-0.1-0.5s-0.2-0.1-0.4-0.1c-0.1,0-0.2,0-0.3,0.1s-0.2,0.1-0.2,0.1s-0.1,0.1-0.2,0.2
			v4.9H84.1z"/>
		<path fill="#FFFFFF" d="M89,99.1v-1.2h1.2v1.2H89z M89,106.3V100h1.2v6.2H89z"/>
		<path fill="#FFFFFF" d="M91.4,106.3V100h1.2v0.7c0.4-0.5,1-0.8,1.6-0.8c0.3,0,0.5,0.1,0.7,0.2s0.2,0.3,0.3,0.6
			c0.2-0.3,0.4-0.5,0.7-0.6s0.5-0.2,0.9-0.2c0.1,0,0.2,0,0.3,0s0.2,0,0.2,0.1s0.1,0.1,0.2,0.1s0.1,0.1,0.1,0.2s0.1,0.1,0.1,0.2
			s0,0.2,0,0.2s0,0.2,0,0.3s0,0.2,0,0.3s0,0.2,0,0.3c0,0,0,0.1,0,0.1v4.5h-1.2v-4.6c0,0,0,0,0-0.1c0-0.1,0-0.2,0-0.2s0-0.1,0-0.2
			s0-0.1-0.1-0.2s-0.1-0.1-0.2-0.1c-0.1,0-0.3,0-0.4,0.1s-0.2,0.1-0.3,0.1s-0.2,0.1-0.3,0.2v4.9h-1.2v-4.5c0,0,0,0,0-0.1
			c0-0.1,0-0.2,0-0.2s0-0.1,0-0.2s0-0.1,0-0.2s-0.1-0.1-0.1-0.1s-0.1,0-0.2,0c-0.3,0-0.6,0.1-0.9,0.4v4.9H91.4z"/>
		<path fill="#FFFFFF" d="M99.9,106.4c-0.3,0-0.6-0.2-0.9-0.5s-0.4-0.6-0.4-1c0-0.3,0.1-0.6,0.2-0.8s0.2-0.4,0.3-0.6
			s0.3-0.3,0.6-0.5s0.5-0.3,0.6-0.3s0.4-0.2,0.7-0.3c0.1,0,0.1,0,0.1-0.1v-0.4c0-0.3,0-0.6-0.1-0.7s-0.3-0.3-0.5-0.3
			c-0.2,0-0.4,0.1-0.5,0.2s-0.1,0.4-0.2,0.6c0,0,0,0.1,0,0.2h-1.2c0-0.6,0.2-1.1,0.5-1.4s0.8-0.5,1.4-0.5c0.6,0,1,0.2,1.4,0.5
			s0.5,0.8,0.5,1.4v2.8c0,0.7,0.1,1.2,0.2,1.6h-1.2l-0.2-0.9c-0.1,0.1-0.1,0.2-0.2,0.3s-0.1,0.2-0.2,0.3s-0.2,0.2-0.2,0.2
			s-0.2,0.1-0.3,0.1S100,106.4,99.9,106.4z M100.5,105.3c0.1,0,0.2,0,0.3-0.1s0.1-0.1,0.2-0.2s0.1-0.1,0.2-0.2c0,0,0,0,0,0v-1.7
			c-0.1,0-0.1,0.1-0.3,0.2s-0.2,0.1-0.3,0.2s-0.2,0.1-0.3,0.2s-0.2,0.2-0.2,0.2s-0.1,0.2-0.1,0.3s-0.1,0.2-0.1,0.3
			C99.9,105.1,100.1,105.3,100.5,105.3z"/>
		<path fill="#FFFFFF" d="M103.4,106.3v-8.8h1.2v8.8H103.4z"/>
		<path fill="#FFFFFF" d="M107.4,106.4c-0.5,0-0.9-0.2-1.2-0.5s-0.5-0.7-0.6-1.2l0.9-0.3c0.2,0.6,0.5,0.9,0.9,0.9
			c0.2,0,0.4-0.1,0.5-0.2s0.2-0.3,0.2-0.5c0-0.3-0.1-0.5-0.3-0.7l-1.2-0.9c-0.1-0.1-0.3-0.2-0.4-0.3s-0.2-0.2-0.3-0.3
			s-0.2-0.3-0.2-0.4s-0.1-0.3-0.1-0.5c0-0.5,0.2-0.9,0.5-1.2s0.8-0.4,1.4-0.4c0.3,0,0.5,0,0.7,0.1s0.4,0.2,0.5,0.4s0.3,0.3,0.4,0.5
			s0.2,0.4,0.2,0.6l-0.9,0.3c0-0.1-0.1-0.2-0.1-0.3s-0.1-0.2-0.2-0.3s-0.2-0.2-0.3-0.2s-0.2-0.1-0.3-0.1c-0.2,0-0.4,0.1-0.5,0.2
			s-0.2,0.3-0.2,0.5c0,0.2,0.1,0.4,0.3,0.5l1.2,0.9c0.1,0.1,0.3,0.2,0.4,0.3s0.2,0.2,0.3,0.4s0.2,0.3,0.2,0.5s0.1,0.3,0.1,0.5
			c0,0.5-0.2,0.9-0.5,1.2S108,106.4,107.4,106.4z"/>
		<path fill="#FFFFFF" d="M113.2,106.4c-0.3,0-0.6-0.2-0.9-0.5s-0.4-0.6-0.4-1c0-0.3,0.1-0.6,0.2-0.8s0.2-0.4,0.3-0.6
			s0.3-0.3,0.6-0.5s0.5-0.3,0.6-0.3s0.4-0.2,0.7-0.3c0.1,0,0.1,0,0.1-0.1v-0.4c0-0.3,0-0.6-0.1-0.7s-0.3-0.3-0.5-0.3
			c-0.2,0-0.4,0.1-0.5,0.2s-0.1,0.4-0.2,0.6c0,0,0,0.1,0,0.2h-1.2c0-0.6,0.2-1.1,0.5-1.4s0.8-0.5,1.4-0.5c0.6,0,1,0.2,1.4,0.5
			s0.5,0.8,0.5,1.4v2.8c0,0.7,0.1,1.2,0.2,1.6h-1.2l-0.2-0.9c-0.1,0.1-0.1,0.2-0.2,0.3s-0.1,0.2-0.2,0.3s-0.2,0.2-0.2,0.2
			s-0.2,0.1-0.3,0.1S113.3,106.4,113.2,106.4z M113.8,105.3c0.1,0,0.2,0,0.3-0.1s0.1-0.1,0.2-0.2s0.1-0.1,0.2-0.2c0,0,0,0,0,0v-1.7
			c-0.1,0-0.1,0.1-0.3,0.2s-0.2,0.1-0.3,0.2s-0.2,0.1-0.3,0.2s-0.2,0.2-0.2,0.2s-0.1,0.2-0.1,0.3s-0.1,0.2-0.1,0.3
			C113.2,105.1,113.4,105.3,113.8,105.3z"/>
		<path fill="#FFFFFF" d="M116.8,106.3V100h1.2v0.8c0.1-0.2,0.3-0.5,0.6-0.6s0.5-0.3,0.8-0.3c0,0,0.1,0,0.2,0v1.4
			c-0.2-0.1-0.5-0.1-0.7-0.1c-0.3,0-0.5,0.1-0.6,0.2s-0.2,0.4-0.2,0.6v4.2H116.8z"/>
		<path fill="#FFFFFF" d="M121.9,106.4c-0.3,0-0.6-0.1-0.8-0.2s-0.4-0.2-0.5-0.4s-0.2-0.4-0.3-0.6s-0.1-0.5-0.2-0.8s0-0.6-0.1-0.9
			c0-0.3,0-0.5,0-0.8c0-0.3,0-0.6,0.1-0.9s0.1-0.5,0.2-0.7s0.2-0.4,0.3-0.6s0.3-0.3,0.5-0.4s0.5-0.1,0.8-0.1c0.3,0,0.5,0,0.7,0.1
			s0.4,0.2,0.5,0.3s0.2,0.3,0.3,0.5s0.2,0.4,0.2,0.6s0.1,0.5,0.1,0.7s0,0.5,0,0.8v0.1h-2.5v0.3c0,0,0,0.1,0,0.2c0,0.1,0,0.2,0,0.4
			s0,0.3,0,0.4s0,0.2,0.1,0.4s0.1,0.2,0.1,0.3s0.1,0.2,0.2,0.2s0.2,0.1,0.3,0.1c0.1,0,0.2,0,0.3-0.1s0.1-0.1,0.2-0.2
			s0.1-0.2,0.1-0.3s0-0.2,0-0.4v-0.3h1.2v0.2c0,0.7-0.2,1.2-0.5,1.5S122.5,106.4,121.9,106.4z M121.3,102.5h1.2v-0.4
			c0-0.2,0-0.3,0-0.4s0-0.2-0.1-0.4s-0.1-0.2-0.2-0.3s-0.2-0.1-0.3-0.1c-0.1,0-0.2,0-0.3,0.1s-0.1,0.2-0.2,0.3s-0.1,0.3-0.1,0.4
			s0,0.3,0,0.4V102.5z"/>
		<path fill="#FFFFFF" d="M35.3,118.4c-0.3,0-0.5-0.1-0.7-0.2s-0.4-0.3-0.6-0.5v0.6h-1.2v-8.7H34v3.1c0.1-0.1,0.2-0.2,0.3-0.3
			s0.1-0.1,0.3-0.2s0.2-0.1,0.3-0.2s0.3-0.1,0.4-0.1c0.2,0,0.4,0,0.6,0.1s0.3,0.2,0.4,0.3s0.2,0.3,0.3,0.5s0.1,0.4,0.2,0.5
			s0.1,0.4,0.1,0.7s0,0.5,0,0.7s0,0.4,0,0.7v0.1c0,0.3,0,0.5,0,0.8s-0.1,0.5-0.2,0.8s-0.2,0.5-0.3,0.7s-0.3,0.3-0.4,0.5
			S35.5,118.4,35.3,118.4z M35,117.3c0.1,0,0.2,0,0.3-0.1s0.2-0.2,0.2-0.4s0.1-0.4,0.1-0.5s0-0.4,0-0.6c0-0.2,0-0.4,0-0.7
			s0-0.5,0-0.7s0-0.3,0-0.4s0-0.2,0-0.3s-0.1-0.2-0.1-0.3s-0.1-0.1-0.2-0.2S35.1,113,35,113c-0.3,0-0.7,0.1-0.9,0.2v3.9
			C34.4,117.3,34.7,117.3,35,117.3z"/>
		<path fill="#FFFFFF" d="M37.9,118.3v-8.8h1.2v8.8H37.9z"/>
		<path fill="#FFFFFF" d="M41.1,118.4c-0.3,0-0.5-0.1-0.7-0.3s-0.2-0.4-0.2-0.7V112h1.2v4.9c0,0.1,0,0.2,0.1,0.3s0.2,0.1,0.3,0.1
			c0.1,0,0.1,0,0.2,0s0.1,0,0.2-0.1s0.1-0.1,0.1-0.1s0.1-0.1,0.2-0.1s0.1-0.1,0.1-0.1V112H44v6.2h-1.2v-0.7
			c-0.1,0.1-0.2,0.2-0.3,0.2s-0.1,0.1-0.3,0.2s-0.2,0.1-0.3,0.2s-0.2,0.1-0.3,0.1S41.3,118.4,41.1,118.4z"/>
		<path fill="#FFFFFF" d="M46.8,118.4c-0.3,0-0.6-0.1-0.8-0.2s-0.4-0.2-0.5-0.4s-0.2-0.4-0.3-0.6s-0.1-0.5-0.2-0.8s0-0.6-0.1-0.9
			c0-0.3,0-0.5,0-0.8c0-0.3,0-0.6,0.1-0.9s0.1-0.5,0.2-0.7s0.2-0.4,0.3-0.6s0.3-0.3,0.5-0.4s0.5-0.1,0.8-0.1c0.3,0,0.5,0,0.7,0.1
			s0.4,0.2,0.5,0.3s0.2,0.3,0.3,0.5s0.2,0.4,0.2,0.6s0.1,0.5,0.1,0.7s0,0.5,0,0.8v0.1h-2.5v0.3c0,0,0,0.1,0,0.2c0,0.1,0,0.2,0,0.4
			s0,0.3,0,0.4s0,0.2,0.1,0.4s0.1,0.2,0.1,0.3s0.1,0.2,0.2,0.2s0.2,0.1,0.3,0.1c0.1,0,0.2,0,0.3-0.1s0.1-0.1,0.2-0.2
			s0.1-0.2,0.1-0.3s0-0.2,0-0.4v-0.3h1.2v0.2c0,0.7-0.2,1.2-0.5,1.5S47.5,118.4,46.8,118.4z M46.2,114.5h1.2v-0.4c0-0.2,0-0.3,0-0.4
			s0-0.2-0.1-0.4s-0.1-0.2-0.2-0.3S47,113,46.8,113c-0.1,0-0.2,0-0.3,0.1s-0.1,0.2-0.2,0.3s-0.1,0.3-0.1,0.4s0,0.3,0,0.4V114.5z"/>
		<path fill="#FFFFFF" d="M52.3,118.3l-1.2-6.2h1.1l0.7,4.7l0.7-4.7h1.1l0.7,4.7l0.7-4.7h1.1l-1.2,6.2h-1.2l-0.7-4.3l-0.7,4.3H52.3z
			"/>
		<path fill="#FFFFFF" d="M57.9,118.3v-8.8h1.2v3.2c0.2-0.2,0.3-0.3,0.5-0.4s0.3-0.2,0.5-0.3s0.4-0.1,0.7-0.1c0.3,0,0.5,0.1,0.6,0.3
			s0.2,0.4,0.2,0.7v5.3h-1.2v-4.7c0-0.2,0-0.4-0.1-0.5S60.2,113,60,113c-0.3,0-0.5,0.1-0.8,0.4v4.9H57.9z"/>
		<path fill="#FFFFFF" d="M63.8,118.4c-0.3,0-0.6-0.2-0.9-0.5s-0.4-0.6-0.4-1c0-0.3,0.1-0.6,0.2-0.8s0.2-0.4,0.3-0.6
			s0.3-0.3,0.6-0.5s0.5-0.3,0.6-0.3s0.4-0.2,0.7-0.3c0.1,0,0.1,0,0.1-0.1v-0.4c0-0.3,0-0.6-0.1-0.7s-0.3-0.3-0.5-0.3
			c-0.2,0-0.4,0.1-0.5,0.2s-0.1,0.4-0.2,0.6c0,0,0,0.1,0,0.2h-1.2c0-0.6,0.2-1.1,0.5-1.4s0.8-0.5,1.4-0.5c0.6,0,1,0.2,1.4,0.5
			s0.5,0.8,0.5,1.4v2.8c0,0.7,0.1,1.2,0.2,1.6h-1.2l-0.2-0.9c-0.1,0.1-0.1,0.2-0.2,0.3s-0.1,0.2-0.2,0.3s-0.2,0.2-0.2,0.2
			s-0.2,0.1-0.3,0.1S64,118.4,63.8,118.4z M64.5,117.3c0.1,0,0.2,0,0.3-0.1s0.1-0.1,0.2-0.2s0.1-0.1,0.2-0.2c0,0,0,0,0,0v-1.7
			c-0.1,0-0.1,0.1-0.3,0.2s-0.2,0.1-0.3,0.2s-0.2,0.1-0.3,0.2s-0.2,0.2-0.2,0.2s-0.1,0.2-0.1,0.3s-0.1,0.2-0.1,0.3
			C63.8,117.1,64,117.3,64.5,117.3z"/>
		<path fill="#FFFFFF" d="M67.4,118.3v-8.8h1.2v8.8H67.4z"/>
		<path fill="#FFFFFF" d="M71.5,118.4c-0.3,0-0.6-0.1-0.8-0.2s-0.4-0.2-0.5-0.4s-0.2-0.4-0.3-0.6s-0.1-0.5-0.2-0.8s0-0.6-0.1-0.9
			c0-0.3,0-0.5,0-0.8c0-0.3,0-0.6,0.1-0.9s0.1-0.5,0.2-0.7s0.2-0.4,0.3-0.6s0.3-0.3,0.5-0.4s0.5-0.1,0.8-0.1c0.3,0,0.5,0,0.7,0.1
			s0.4,0.2,0.5,0.3s0.2,0.3,0.3,0.5s0.2,0.4,0.2,0.6s0.1,0.5,0.1,0.7s0,0.5,0,0.8v0.1h-2.5v0.3c0,0,0,0.1,0,0.2c0,0.1,0,0.2,0,0.4
			s0,0.3,0,0.4s0,0.2,0.1,0.4s0.1,0.2,0.1,0.3s0.1,0.2,0.2,0.2s0.2,0.1,0.3,0.1c0.1,0,0.2,0,0.3-0.1s0.1-0.1,0.2-0.2
			s0.1-0.2,0.1-0.3s0-0.2,0-0.4v-0.3h1.2v0.2c0,0.7-0.2,1.2-0.5,1.5S72.2,118.4,71.5,118.4z M70.9,114.5h1.2v-0.4c0-0.2,0-0.3,0-0.4
			s0-0.2-0.1-0.4s-0.1-0.2-0.2-0.3s-0.2-0.1-0.3-0.1c-0.1,0-0.2,0-0.3,0.1s-0.1,0.2-0.2,0.3s-0.1,0.3-0.1,0.4s0,0.3,0,0.4V114.5z"/>
		<path fill="#FFFFFF" d="M76,118.4c-0.5,0-0.9-0.2-1.2-0.5s-0.5-0.7-0.6-1.2l0.9-0.3c0.2,0.6,0.5,0.9,0.9,0.9
			c0.2,0,0.4-0.1,0.5-0.2s0.2-0.3,0.2-0.5c0-0.3-0.1-0.5-0.3-0.7l-1.2-0.9c-0.1-0.1-0.3-0.2-0.4-0.3s-0.2-0.2-0.3-0.3
			s-0.2-0.3-0.2-0.4s-0.1-0.3-0.1-0.5c0-0.5,0.2-0.9,0.5-1.2s0.8-0.4,1.4-0.4c0.3,0,0.5,0,0.7,0.1s0.4,0.2,0.5,0.4s0.3,0.3,0.4,0.5
			s0.2,0.4,0.2,0.6l-0.9,0.3c0-0.1-0.1-0.2-0.1-0.3s-0.1-0.2-0.2-0.3s-0.2-0.2-0.3-0.2S76.1,113,76,113c-0.2,0-0.4,0.1-0.5,0.2
			s-0.2,0.3-0.2,0.5c0,0.2,0.1,0.4,0.3,0.5l1.2,0.9c0.1,0.1,0.3,0.2,0.4,0.3s0.2,0.2,0.3,0.4s0.2,0.3,0.2,0.5s0.1,0.3,0.1,0.5
			c0,0.5-0.2,0.9-0.5,1.2S76.5,118.4,76,118.4z"/>
		<path fill="#FFFFFF" d="M78.4,118.3V117h1.2v1.2H78.4z"/>
		<path fill="#FFFFFF" d="M83.5,118.3v-7.6h-1.6v-1.1h4.4v1.1h-1.6v7.6H83.5z"/>
		<path fill="#FFFFFF" d="M86.9,118.3v-8.8h1.2v3.2c0.2-0.2,0.3-0.3,0.5-0.4s0.3-0.2,0.5-0.3s0.4-0.1,0.7-0.1c0.3,0,0.5,0.1,0.6,0.3
			s0.2,0.4,0.2,0.7v5.3h-1.2v-4.7c0-0.2,0-0.4-0.1-0.5S89.1,113,89,113c-0.3,0-0.5,0.1-0.8,0.4v4.9H86.9z"/>
		<path fill="#FFFFFF" d="M93.5,118.4c-0.3,0-0.6-0.1-0.8-0.2s-0.4-0.2-0.5-0.4s-0.2-0.4-0.3-0.6s-0.1-0.5-0.2-0.8s0-0.6-0.1-0.9
			c0-0.3,0-0.5,0-0.8c0-0.3,0-0.6,0.1-0.9s0.1-0.5,0.2-0.7s0.2-0.4,0.3-0.6s0.3-0.3,0.5-0.4s0.5-0.1,0.8-0.1c0.3,0,0.5,0,0.7,0.1
			s0.4,0.2,0.5,0.3s0.2,0.3,0.3,0.5s0.2,0.4,0.2,0.6s0.1,0.5,0.1,0.7s0,0.5,0,0.8v0.1h-2.5v0.3c0,0,0,0.1,0,0.2c0,0.1,0,0.2,0,0.4
			s0,0.3,0,0.4s0,0.2,0.1,0.4s0.1,0.2,0.1,0.3s0.1,0.2,0.2,0.2s0.2,0.1,0.3,0.1c0.1,0,0.2,0,0.3-0.1s0.1-0.1,0.2-0.2
			s0.1-0.2,0.1-0.3s0-0.2,0-0.4v-0.3h1.2v0.2c0,0.7-0.2,1.2-0.5,1.5S94.1,118.4,93.5,118.4z M92.9,114.5h1.2v-0.4c0-0.2,0-0.3,0-0.4
			s0-0.2-0.1-0.4s-0.1-0.2-0.2-0.3s-0.2-0.1-0.3-0.1c-0.1,0-0.2,0-0.3,0.1s-0.1,0.2-0.2,0.3s-0.1,0.3-0.1,0.4s0,0.3,0,0.4V114.5z"/>
		<path fill="#FFFFFF" d="M98.3,118.3v-8.8h1.2v3.2c0.2-0.2,0.3-0.3,0.5-0.4s0.3-0.2,0.5-0.3s0.4-0.1,0.7-0.1c0.3,0,0.5,0.1,0.6,0.3
			s0.2,0.4,0.2,0.7v5.3h-1.2v-4.7c0-0.2,0-0.4-0.1-0.5s-0.2-0.2-0.3-0.2c-0.3,0-0.5,0.1-0.8,0.4v4.9H98.3z"/>
		<path fill="#FFFFFF" d="M104.9,118.4c-0.3,0-0.6-0.1-0.8-0.2s-0.4-0.2-0.5-0.4s-0.2-0.4-0.3-0.6s-0.1-0.5-0.2-0.8s0-0.6-0.1-0.9
			c0-0.3,0-0.5,0-0.8c0-0.3,0-0.6,0.1-0.9s0.1-0.5,0.2-0.7s0.2-0.4,0.3-0.6s0.3-0.3,0.5-0.4s0.5-0.1,0.8-0.1c0.3,0,0.5,0,0.7,0.1
			s0.4,0.2,0.5,0.3s0.2,0.3,0.3,0.5s0.2,0.4,0.2,0.6s0.1,0.5,0.1,0.7s0,0.5,0,0.8v0.1h-2.5v0.3c0,0,0,0.1,0,0.2c0,0.1,0,0.2,0,0.4
			s0,0.3,0,0.4s0,0.2,0.1,0.4s0.1,0.2,0.1,0.3s0.1,0.2,0.2,0.2s0.2,0.1,0.3,0.1c0.1,0,0.2,0,0.3-0.1s0.1-0.1,0.2-0.2
			s0.1-0.2,0.1-0.3s0-0.2,0-0.4v-0.3h1.2v0.2c0,0.7-0.2,1.2-0.5,1.5S105.5,118.4,104.9,118.4z M104.3,114.5h1.2v-0.4
			c0-0.2,0-0.3,0-0.4s0-0.2-0.1-0.4s-0.1-0.2-0.2-0.3s-0.2-0.1-0.3-0.1c-0.1,0-0.2,0-0.3,0.1s-0.1,0.2-0.2,0.3s-0.1,0.3-0.1,0.4
			s0,0.3,0,0.4V114.5z"/>
		<path fill="#FFFFFF" d="M108.8,118.4c-0.3,0-0.6-0.2-0.9-0.5s-0.4-0.6-0.4-1c0-0.3,0.1-0.6,0.2-0.8s0.2-0.4,0.3-0.6
			s0.3-0.3,0.6-0.5s0.5-0.3,0.6-0.3s0.4-0.2,0.7-0.3c0.1,0,0.1,0,0.1-0.1v-0.4c0-0.3,0-0.6-0.1-0.7s-0.3-0.3-0.5-0.3
			c-0.2,0-0.4,0.1-0.5,0.2s-0.1,0.4-0.2,0.6c0,0,0,0.1,0,0.2h-1.2c0-0.6,0.2-1.1,0.5-1.4s0.8-0.5,1.4-0.5c0.6,0,1,0.2,1.4,0.5
			s0.5,0.8,0.5,1.4v2.8c0,0.7,0.1,1.2,0.2,1.6h-1.2l-0.2-0.9c-0.1,0.1-0.1,0.2-0.2,0.3s-0.1,0.2-0.2,0.3s-0.2,0.2-0.2,0.2
			s-0.2,0.1-0.3,0.1S108.9,118.4,108.8,118.4z M109.4,117.3c0.1,0,0.2,0,0.3-0.1s0.1-0.1,0.2-0.2s0.1-0.1,0.2-0.2c0,0,0,0,0,0v-1.7
			c-0.1,0-0.1,0.1-0.3,0.2s-0.2,0.1-0.3,0.2s-0.2,0.1-0.3,0.2s-0.2,0.2-0.2,0.2s-0.1,0.2-0.1,0.3s-0.1,0.2-0.1,0.3
			C108.8,117.1,109,117.3,109.4,117.3z"/>
		<path fill="#FFFFFF" d="M113.3,118.3l-1.4-6.2h1.2l0.9,4.7l0.8-4.7h1.2l-1.4,6.2H113.3z"/>
		<path fill="#FFFFFF" d="M116.7,111.1v-1.2h1.2v1.2H116.7z M116.7,118.3V112h1.2v6.2H116.7z"/>
		<path fill="#FFFFFF" d="M120.9,118.4c-0.3,0-0.6-0.1-0.8-0.2s-0.4-0.2-0.5-0.4s-0.2-0.4-0.3-0.6s-0.1-0.5-0.2-0.8s0-0.6-0.1-0.9
			c0-0.3,0-0.5,0-0.8c0-0.3,0-0.6,0.1-0.9s0.1-0.5,0.2-0.7s0.2-0.4,0.3-0.6s0.3-0.3,0.5-0.4s0.5-0.1,0.8-0.1c0.3,0,0.5,0,0.7,0.1
			s0.4,0.2,0.5,0.3s0.2,0.3,0.3,0.5s0.2,0.4,0.2,0.6s0.1,0.5,0.1,0.7s0,0.5,0,0.8v0.1h-2.5v0.3c0,0,0,0.1,0,0.2c0,0.1,0,0.2,0,0.4
			s0,0.3,0,0.4s0,0.2,0.1,0.4s0.1,0.2,0.1,0.3s0.1,0.2,0.2,0.2s0.2,0.1,0.3,0.1c0.1,0,0.2,0,0.3-0.1s0.1-0.1,0.2-0.2
			s0.1-0.2,0.1-0.3s0-0.2,0-0.4v-0.3h1.2v0.2c0,0.7-0.2,1.2-0.5,1.5S121.5,118.4,120.9,118.4z M120.3,114.5h1.2v-0.4
			c0-0.2,0-0.3,0-0.4s0-0.2-0.1-0.4s-0.1-0.2-0.2-0.3s-0.2-0.1-0.3-0.1c-0.1,0-0.2,0-0.3,0.1s-0.1,0.2-0.2,0.3s-0.1,0.3-0.1,0.4
			s0,0.3,0,0.4V114.5z"/>
		<path fill="#FFFFFF" d="M125.3,118.4c-0.5,0-0.9-0.2-1.2-0.5s-0.5-0.7-0.6-1.2l0.9-0.3c0.2,0.6,0.5,0.9,0.9,0.9
			c0.2,0,0.4-0.1,0.5-0.2s0.2-0.3,0.2-0.5c0-0.3-0.1-0.5-0.3-0.7l-1.2-0.9c-0.1-0.1-0.3-0.2-0.4-0.3s-0.2-0.2-0.3-0.3
			s-0.2-0.3-0.2-0.4s-0.1-0.3-0.1-0.5c0-0.5,0.2-0.9,0.5-1.2s0.8-0.4,1.4-0.4c0.3,0,0.5,0,0.7,0.1s0.4,0.2,0.5,0.4s0.3,0.3,0.4,0.5
			s0.2,0.4,0.2,0.6l-0.9,0.3c0-0.1-0.1-0.2-0.1-0.3s-0.1-0.2-0.2-0.3s-0.2-0.2-0.3-0.2s-0.2-0.1-0.3-0.1c-0.2,0-0.4,0.1-0.5,0.2
			s-0.2,0.3-0.2,0.5c0,0.2,0.1,0.4,0.3,0.5l1.2,0.9c0.1,0.1,0.3,0.2,0.4,0.3s0.2,0.2,0.3,0.4s0.2,0.3,0.2,0.5s0.1,0.3,0.1,0.5
			c0,0.5-0.2,0.9-0.5,1.2S125.9,118.4,125.3,118.4z"/>
		<path fill="#FFFFFF" d="M129.7,118.4c-0.5,0-0.8-0.1-1.1-0.4s-0.3-0.6-0.3-1.1V113h-0.6V112h0.6v-2.2h1.2v2.2h0.9v0.9h-0.9v3.6
			c0,0.3,0,0.4,0.1,0.6s0.2,0.2,0.4,0.2c0.1,0,0.2,0,0.4,0v1C130.2,118.3,129.9,118.4,129.7,118.4z"/>
		<path fill="#FFFFFF" d="M33.5,130.3l-1.2-6.2h1.1l0.7,4.7l0.7-4.7h1.1l0.7,4.7l0.7-4.7h1.1l-1.2,6.2H36l-0.7-4.3l-0.7,4.3H33.5z"
			/>
		<path fill="#FFFFFF" d="M40.7,130.4c-0.3,0-0.6-0.1-0.8-0.2s-0.4-0.2-0.5-0.4s-0.2-0.4-0.3-0.6s-0.1-0.5-0.2-0.8s0-0.6-0.1-0.9
			c0-0.3,0-0.5,0-0.8c0-0.3,0-0.6,0.1-0.9s0.1-0.5,0.2-0.7s0.2-0.4,0.3-0.6s0.3-0.3,0.5-0.4s0.5-0.1,0.8-0.1c0.3,0,0.5,0,0.7,0.1
			s0.4,0.2,0.5,0.3s0.2,0.3,0.3,0.5s0.2,0.4,0.2,0.6s0.1,0.5,0.1,0.7s0,0.5,0,0.8v0.1h-2.5v0.3c0,0,0,0.1,0,0.2c0,0.1,0,0.2,0,0.4
			s0,0.3,0,0.4s0,0.2,0.1,0.4s0.1,0.2,0.1,0.3s0.1,0.2,0.2,0.2s0.2,0.1,0.3,0.1c0.1,0,0.2,0,0.3-0.1s0.1-0.1,0.2-0.2
			s0.1-0.2,0.1-0.3s0-0.2,0-0.4v-0.3h1.2v0.2c0,0.7-0.2,1.2-0.5,1.5S41.3,130.4,40.7,130.4z M40.1,126.5h1.2v-0.4c0-0.2,0-0.3,0-0.4
			s0-0.2-0.1-0.4s-0.1-0.2-0.2-0.3s-0.2-0.1-0.3-0.1c-0.1,0-0.2,0-0.3,0.1s-0.1,0.2-0.2,0.3s-0.1,0.3-0.1,0.4s0,0.3,0,0.4V126.5z"/>
		<path fill="#FFFFFF" d="M43.6,123.1v-1.2h1.2v1.2H43.6z M43.6,130.3V124h1.2v6.2H43.6z"/>
		<path fill="#FFFFFF" d="M48,132.1c-0.2,0-0.3,0-0.4,0s-0.2,0-0.4,0s-0.3,0-0.4,0s-0.2,0-0.4-0.1s-0.3-0.1-0.4-0.1
			s-0.2-0.1-0.3-0.2s-0.2-0.1-0.2-0.2s-0.1-0.2-0.1-0.3c0-0.3,0.1-0.6,0.3-0.8s0.4-0.4,0.7-0.6c-0.2,0-0.3-0.1-0.4-0.2
			s-0.2-0.2-0.2-0.3c0-0.1,0-0.1,0-0.2s0-0.1,0-0.2s0-0.1,0.1-0.2s0.1-0.1,0.1-0.2s0.1-0.1,0.1-0.2s0.1-0.1,0.1-0.1s0.1-0.1,0.1-0.1
			s0.1-0.1,0.1-0.1c-0.4-0.5-0.6-1.1-0.6-1.9c0-0.4,0.1-0.8,0.2-1.2s0.3-0.6,0.6-0.8s0.6-0.3,1-0.3c0.2,0,0.4,0,0.6,0.1
			s0.3,0.1,0.4,0.2s0.2,0.2,0.3,0.4c0.2-0.5,0.6-0.7,1.1-0.7c0,0,0,0,0,0s0,0,0,0s0,0,0,0v1c0,0,0,0-0.1,0c-0.1,0-0.2,0-0.3,0
			s-0.2,0-0.2,0s-0.2,0.1-0.2,0.1c0.1,0.1,0.1,0.3,0.2,0.5s0.1,0.4,0.1,0.6c0,0.4-0.1,0.8-0.2,1.2s-0.3,0.6-0.6,0.8s-0.6,0.3-1,0.3
			l-0.6-0.1c0,0,0,0,0,0.1s0,0.1-0.1,0.1s0,0.1,0,0.1s0,0.1,0,0.1c0,0.1,0,0.2,0.1,0.2s0.2,0.1,0.3,0.1s0.3,0,0.4,0.1s0.3,0,0.4,0
			s0.3,0,0.3,0c0.2,0,0.4,0.1,0.5,0.1s0.3,0.1,0.4,0.1s0.3,0.1,0.4,0.2s0.2,0.2,0.2,0.4s0.1,0.3,0.1,0.5c0,0.2,0,0.4-0.1,0.6
			s-0.2,0.3-0.3,0.4s-0.3,0.2-0.5,0.3s-0.4,0.1-0.6,0.2S48.2,132.1,48,132.1z M48,131.2c0.1,0,0.2,0,0.2,0s0.2,0,0.2,0s0.2,0,0.2,0
			s0.1,0,0.2-0.1s0.1-0.1,0.1-0.1s0-0.1,0-0.2c0-0.3-0.3-0.6-1-0.6l-1-0.1c-0.1,0.1-0.2,0.2-0.3,0.4s-0.1,0.4-0.1,0.5
			c0,0.1,0,0.1,0.1,0.1s0.1,0.1,0.2,0.1s0.1,0,0.2,0s0.2,0,0.3,0s0.2,0,0.3,0s0.2,0,0.3,0S48,131.2,48,131.2z M47.7,127.5
			c0.5,0,0.8-0.4,0.8-1.3c0-0.2,0-0.3,0-0.5s-0.1-0.3-0.1-0.4s-0.1-0.3-0.2-0.3s-0.2-0.1-0.4-0.1c-0.2,0-0.3,0-0.4,0.1
			s-0.2,0.2-0.2,0.3s-0.1,0.3-0.1,0.4s0,0.3,0,0.5C46.9,127.1,47.2,127.5,47.7,127.5z"/>
		<path fill="#FFFFFF" d="M50.5,130.3v-8.8h1.2v3.2c0.2-0.2,0.3-0.3,0.5-0.4s0.3-0.2,0.5-0.3s0.4-0.1,0.7-0.1c0.3,0,0.5,0.1,0.6,0.3
			s0.2,0.4,0.2,0.7v5.3H53v-4.7c0-0.2,0-0.4-0.1-0.5s-0.2-0.2-0.3-0.2c-0.3,0-0.5,0.1-0.8,0.4v4.9H50.5z"/>
		<path fill="#FFFFFF" d="M57.1,130.4c-0.3,0-0.6-0.1-0.8-0.2s-0.4-0.2-0.5-0.4s-0.2-0.4-0.3-0.6s-0.1-0.5-0.2-0.8s0-0.6-0.1-0.9
			c0-0.3,0-0.5,0-0.8c0-0.3,0-0.6,0.1-0.9s0.1-0.5,0.2-0.7s0.2-0.4,0.3-0.6s0.3-0.3,0.5-0.4s0.5-0.1,0.8-0.1c0.3,0,0.5,0,0.7,0.1
			s0.4,0.2,0.5,0.3s0.2,0.3,0.3,0.5s0.2,0.4,0.2,0.6s0.1,0.5,0.1,0.7s0,0.5,0,0.8v0.1h-2.5v0.3c0,0,0,0.1,0,0.2c0,0.1,0,0.2,0,0.4
			s0,0.3,0,0.4s0,0.2,0.1,0.4s0.1,0.2,0.1,0.3s0.1,0.2,0.2,0.2s0.2,0.1,0.3,0.1c0.1,0,0.2,0,0.3-0.1s0.1-0.1,0.2-0.2
			s0.1-0.2,0.1-0.3s0-0.2,0-0.4v-0.3H59v0.2c0,0.7-0.2,1.2-0.5,1.5S57.8,130.4,57.1,130.4z M56.5,126.5h1.2v-0.4c0-0.2,0-0.3,0-0.4
			s0-0.2-0.1-0.4s-0.1-0.2-0.2-0.3s-0.2-0.1-0.3-0.1c-0.1,0-0.2,0-0.3,0.1s-0.1,0.2-0.2,0.3s-0.1,0.3-0.1,0.4s0,0.3,0,0.4V126.5z"/>
		<path fill="#FFFFFF" d="M61.4,130.4c-0.3,0-0.5-0.1-0.7-0.2s-0.4-0.4-0.5-0.6s-0.2-0.5-0.3-0.8s-0.1-0.6-0.1-0.9
			c0-0.2,0-0.5,0-1.1c0-0.2,0-0.4,0-0.6s0-0.4,0.1-0.5s0.1-0.4,0.1-0.5s0.1-0.3,0.2-0.4s0.2-0.2,0.3-0.3s0.2-0.2,0.4-0.2
			s0.3-0.1,0.5-0.1c0.1,0,0.3,0,0.4,0.1s0.2,0.1,0.3,0.2s0.2,0.2,0.3,0.2s0.2,0.1,0.3,0.3v-3.1h1.2v8.7h-1.2v-0.6
			c-0.2,0.2-0.4,0.4-0.6,0.5S61.6,130.4,61.4,130.4z M61.7,129.3c0.3,0,0.6-0.1,0.9-0.2v-3.9c-0.3-0.2-0.6-0.2-0.9-0.2
			c-0.1,0-0.2,0-0.3,0.1s-0.1,0.1-0.2,0.3s-0.1,0.2-0.1,0.4s0,0.3,0,0.4c0,0.7,0,1.3,0,1.7c0,0.2,0,0.4,0,0.6s0.1,0.3,0.1,0.5
			s0.1,0.3,0.2,0.3S61.6,129.3,61.7,129.3z"/>
		<path fill="#FFFFFF" d="M67.1,123.1v-1.2h1.2v1.2H67.1z M67.1,130.3V124h1.2v6.2H67.1z"/>
		<path fill="#FFFFFF" d="M71.2,130.4c-0.5,0-0.9-0.2-1.2-0.5s-0.5-0.7-0.6-1.2l0.9-0.3c0.2,0.6,0.5,0.9,0.9,0.9
			c0.2,0,0.4-0.1,0.5-0.2s0.2-0.3,0.2-0.5c0-0.3-0.1-0.5-0.3-0.7l-1.2-0.9c-0.1-0.1-0.3-0.2-0.4-0.3s-0.2-0.2-0.3-0.3
			s-0.2-0.3-0.2-0.4s-0.1-0.3-0.1-0.5c0-0.5,0.2-0.9,0.5-1.2s0.8-0.4,1.4-0.4c0.3,0,0.5,0,0.7,0.1s0.4,0.2,0.5,0.4s0.3,0.3,0.4,0.5
			s0.2,0.4,0.2,0.6l-0.9,0.3c0-0.1-0.1-0.2-0.1-0.3s-0.1-0.2-0.2-0.3s-0.2-0.2-0.3-0.2s-0.2-0.1-0.3-0.1c-0.2,0-0.4,0.1-0.5,0.2
			s-0.2,0.3-0.2,0.5c0,0.2,0.1,0.4,0.3,0.5l1.2,0.9c0.1,0.1,0.3,0.2,0.4,0.3s0.2,0.2,0.3,0.4s0.2,0.3,0.2,0.5s0.1,0.3,0.1,0.5
			c0,0.5-0.2,0.9-0.5,1.2S71.8,130.4,71.2,130.4z"/>
		<path fill="#FFFFFF" d="M76.6,130.3v-6.9h-0.9v-0.9c0.6-0.2,1-0.5,1.2-0.9h0.9v8.8H76.6z"/>
		<path fill="#FFFFFF" d="M81.1,130.4c-0.7,0-1.2-0.2-1.6-0.6s-0.6-1-0.6-1.7h1.2c0,0.4,0.1,0.7,0.2,0.9s0.4,0.3,0.7,0.3
			c0.6,0,0.9-0.6,0.9-1.9v-1.2c-0.2,0.4-0.7,0.6-1.2,0.6c-0.4,0-0.7-0.1-0.9-0.2s-0.4-0.3-0.6-0.5s-0.2-0.5-0.3-0.8s-0.1-0.6-0.1-1
			c0-0.4,0-0.8,0.1-1.1s0.2-0.6,0.4-0.9s0.4-0.5,0.7-0.6s0.6-0.2,1-0.2c0.3,0,0.6,0.1,0.8,0.2s0.5,0.2,0.6,0.4s0.3,0.4,0.4,0.6
			s0.2,0.5,0.3,0.8s0.1,0.6,0.1,0.9v2.8c0,0.4,0,0.7-0.1,1s-0.1,0.6-0.2,0.9s-0.2,0.5-0.4,0.7s-0.4,0.4-0.6,0.5
			S81.4,130.4,81.1,130.4z M81.1,125.9c0.4,0,0.7-0.2,0.9-0.6V124c0-0.2,0-0.4,0-0.6s-0.1-0.3-0.1-0.5s-0.2-0.3-0.3-0.4
			s-0.3-0.1-0.5-0.1s-0.3,0-0.5,0.1s-0.2,0.2-0.3,0.4s-0.1,0.3-0.1,0.5s0,0.4,0,0.6c0,0.1,0,0.2,0,0.3s0,0.2,0,0.3s0,0.2,0,0.3
			s0,0.1,0,0.2s0,0.2,0.1,0.2s0.1,0.1,0.1,0.2s0.1,0.1,0.1,0.2s0.1,0.1,0.2,0.1s0.1,0.1,0.2,0.1S81,125.9,81.1,125.9z"/>
		<path fill="#FFFFFF" d="M86.4,130.4c-0.5,0-0.9-0.1-1.2-0.3s-0.6-0.5-0.7-0.9s-0.2-0.8-0.2-1.3V124c0-0.8,0.2-1.4,0.5-1.9
			s0.9-0.7,1.6-0.7c0.7,0,1.3,0.2,1.6,0.7s0.5,1.1,0.5,1.9v3.8c0,0.8-0.2,1.4-0.6,1.9S87.1,130.4,86.4,130.4z M86.4,129.3
			c0.6,0,0.9-0.5,0.9-1.6V124c0-0.2,0-0.3,0-0.5s0-0.3-0.1-0.4s-0.1-0.3-0.2-0.4s-0.2-0.2-0.3-0.2s-0.2-0.1-0.4-0.1s-0.3,0-0.4,0.1
			s-0.2,0.1-0.3,0.2s-0.1,0.2-0.2,0.4s-0.1,0.3-0.1,0.4s0,0.3,0,0.5v3.8c0,0.2,0,0.4,0,0.6s0.1,0.3,0.1,0.5s0.2,0.3,0.3,0.4
			S86.2,129.3,86.4,129.3z"/>
		<path fill="#FFFFFF" d="M91.7,130.3v-8.8h1.2v8.8H91.7z"/>
		<path fill="#FFFFFF" d="M96.5,130.4c-0.3,0-0.5-0.1-0.7-0.2s-0.4-0.3-0.6-0.5v0.6H94v-8.7h1.2v3.1c0.1-0.1,0.2-0.2,0.3-0.3
			s0.1-0.1,0.3-0.2s0.2-0.1,0.3-0.2s0.3-0.1,0.4-0.1c0.2,0,0.4,0,0.6,0.1s0.3,0.2,0.4,0.3s0.2,0.3,0.3,0.5s0.1,0.4,0.2,0.5
			s0.1,0.4,0.1,0.7s0,0.5,0,0.7s0,0.4,0,0.7v0.1c0,0.3,0,0.5,0,0.8s-0.1,0.5-0.2,0.8s-0.2,0.5-0.3,0.7s-0.3,0.3-0.4,0.5
			S96.8,130.4,96.5,130.4z M96.2,129.3c0.1,0,0.2,0,0.3-0.1s0.2-0.2,0.2-0.4s0.1-0.4,0.1-0.5s0-0.4,0-0.6c0-0.2,0-0.4,0-0.7
			s0-0.5,0-0.7s0-0.3,0-0.4s0-0.2,0-0.3s-0.1-0.2-0.1-0.3s-0.1-0.1-0.2-0.2s-0.2-0.1-0.3-0.1c-0.3,0-0.7,0.1-0.9,0.2v3.9
			C95.6,129.3,95.9,129.3,96.2,129.3z"/>
		<path fill="#FFFFFF" d="M100.7,130.4c-0.5,0-0.9-0.2-1.2-0.5s-0.5-0.7-0.6-1.2l0.9-0.3c0.2,0.6,0.5,0.9,0.9,0.9
			c0.2,0,0.4-0.1,0.5-0.2s0.2-0.3,0.2-0.5c0-0.3-0.1-0.5-0.3-0.7l-1.2-0.9c-0.1-0.1-0.3-0.2-0.4-0.3s-0.2-0.2-0.3-0.3
			s-0.2-0.3-0.2-0.4s-0.1-0.3-0.1-0.5c0-0.5,0.2-0.9,0.5-1.2s0.8-0.4,1.4-0.4c0.3,0,0.5,0,0.7,0.1s0.4,0.2,0.5,0.4s0.3,0.3,0.4,0.5
			s0.2,0.4,0.2,0.6l-0.9,0.3c0-0.1-0.1-0.2-0.1-0.3s-0.1-0.2-0.2-0.3s-0.2-0.2-0.3-0.2s-0.2-0.1-0.3-0.1c-0.2,0-0.4,0.1-0.5,0.2
			s-0.2,0.3-0.2,0.5c0,0.2,0.1,0.4,0.3,0.5l1.2,0.9c0.1,0.1,0.3,0.2,0.4,0.3s0.2,0.2,0.3,0.4s0.2,0.3,0.2,0.5s0.1,0.3,0.1,0.5
			c0,0.5-0.2,0.9-0.5,1.2S101.3,130.4,100.7,130.4z"/>
		<path fill="#FFFFFF" d="M103.1,130.3V129h1.2v1.2H103.1z"/>
	</g>
</g>
<g id="whale-body">
	<g>
		<path fill="#5B87DA" d="M275.1,53.5c-0.2,6-2.2,22.8-19.8,26.8c0,0-8.7,82.3-66.4,89.9c-57.7,7.6-51.1,15.8-71.2,11.4
			c-20.1-4.4-41.2-29.1-42.1-32.2c-0.2-0.7-0.3-1.3-0.2-1.8c0.1-0.7,0.4-1.1,0.9-1.2c0.5-0.2,1.1,0,1.5,0.4c0.7,0.8,1.7,1.9,2.5,2
			c0.1,0,0.3,0,0.4-0.1c0.1,0,0.2-0.1,0.3-0.3c0.1-0.1,0.1-0.2,0.2-0.3l0,0c0.2-0.5,0.2-0.8,0.2-1c0-0.1,0-0.1,0-0.2
			c0-0.1-0.1-0.2-0.1-0.2c-0.1-0.1-0.2-0.2-0.4-0.2c0,0,0,0,0,0c-0.1,0-0.1,0-0.1,0c0,0-0.1,0-0.1,0s-2.8-1.4-2-3.1
			c0-0.1,0.1-0.2,0.1-0.2c0.2-0.3,1-0.5,2.3-0.7c5.6-0.7,20.2-0.8,36.8-8.4c0,0,7.6,0.7,15-1.1c7.4-1.8,11.4-2.9,35.7-2.9
			s38.8-8.1,42.6-14.9c0,0,1.8,11.1,16-7.1s17.4-30.3,17.4-30.3s-0.4-0.5-1-1.3c-2.1-2.9-6.6-10.3-5.7-18.1c0.2-2.2,1-4.5,2.3-6.7
			c2.1-3.4,3.2-5.2,3.7-5.8c0.6-0.8,0.3,0.2,0.2,1.9c-0.2,1.7-0.3,4,0.5,6.1c2.4,6,7.2,6.9,7.2,11.6c0,4.7,3.5,0.5,4.2-1.1
			c0.7-1.6,5.1-4.2,8.5-4.7c3.4-0.5,8-8,8.3-11.1c0.2-1.5,0.8-1.8,1.3-1.1h0c0.4,0.5,0.8,1.7,1,3.3v0
			C275.1,51.6,275.2,52.5,275.1,53.5z"/>
		<path fill="#FFFFFF" d="M133.5,161.3c0,0-5.6,1.3-15.6-4.3c-10-5.6-8-3.2-16.4-3c-8.4,0.2-19.6-3.2-21.3-5.1
			c0.3,0,0.6-0.1,0.8-0.6c0.5-1.2,0-1.6-0.3-1.7c2.1,0.5,21.1,4.7,35.3,3.6C116,150.1,121,161.9,133.5,161.3z"/>
		<path fill="#4B6798" d="M146.7,162.4c0,0,5.6,10.9,22.4,4.4s14-11,14-11s-2.3,3.3-15.4-1s-18.1,5.3-18.1,5.3s5.9-8.4,17.9-4.6
			c5.7,2,12.1,2.9,14.8,1.5c-1.7,2.6-5.1,5.4-11,7.8S154.8,170.6,146.7,162.4z"/>
		<path fill="#4B6798" d="M138.3,157.6c0,0,6.3-6.3-4.8-6.7s-9.8,5.2-9.8,5.2s-0.9-4.7,9.8-4.6C137.1,151.9,140.9,152.2,138.3,157.6
			z"/>
		<path fill="#010101" d="M132.2,157.6c0,0-2.4,0.3-4.6,0.1c-0.4-0.4-1.2-1.5-0.1-2.7c0,0,0.1,0,0.1,0c0.3,0,0.5-0.1,0.8-0.1
			C128.4,154.9,129.6,157.8,132.2,157.6z"/>
		<path fill="#FFFFFF" d="M127.6,157.8c-1.4-0.1-2.7-0.4-3.3-1c0,0,1-1.3,3.1-1.7C126.4,156.3,127.2,157.3,127.6,157.8z"/>
	</g>
	<path fill="#4B6798" d="M244.5,77.8c0,0-0.4-0.5-1-1.3c-2.1-2.9-6.6-10.3-5.7-18.1c0.2-2.2,1-4.5,2.3-6.7
		c-2.1,9.2-0.8,10.7,1.6,16.3C244.3,74.3,244.5,77.8,244.5,77.8z"/>
	<path fill="#4B6798" d="M275.1,53.5c-0.2,6-2.2,22.8-19.8,26.8c0,0-8.7,82.3-66.4,89.9c-57.7,7.6-51.1,15.8-71.2,11.4
		c-20.1-4.4-41.2-29.1-42.1-32.2c-0.2-0.7-0.3-1.3-0.2-1.8c11.7,15.2,33.5,37.7,56.8,31.5c34.4-9.2,50.9-6.8,65.4-13
		c47-21.8,54.5-78.2,55.8-86.5c25.2-7.5,20.7-32.1,20.7-32.1h0c0.4,0.5,0.8,1.7,1,3.3v0C275.1,51.6,275.2,52.5,275.1,53.5z"/>
	<g>
	</g>
	<g>
	</g>
	<g>
	</g>
	<g>
	</g>
	<g>
	</g>
	<g>
	</g>
</g>
</svg>
